<svg xmlns="http://www.w3.org/2000/svg" xmlns:xlink="http://www.w3.org/1999/xlink" width="128" height="157.59" viewBox="0 0 128 157.59">
  <defs>
    <clipPath id="clip-path">
      <rect id="Rect치ngulo_401079" data-name="Rect치ngulo 401079" width="54.417" height="61.037" fill="#12263f"/>
    </clipPath>
  </defs>
  <g id="Grupo_1099730" data-name="Grupo 1099730" transform="translate(-528.5 -10447.705)">
    <rect id="Rect치ngulo_401002" data-name="Rect치ngulo 401002" width="125" height="154.59" rx="20" transform="translate(530 10449.205)" fill="none" stroke="#ff725d" stroke-miterlimit="10" stroke-width="3"/>
    <g id="Grupo_1099310" data-name="Grupo 1099310" transform="translate(568.547 10495.981)">
      <g id="Grupo_1099309" data-name="Grupo 1099309" clip-path="url(#clip-path)">
        <path id="Trazado_873416" data-name="Trazado 873416" d="M54.256,34.573a2.18,2.18,0,0,1-1.2,2.84L47,39.876l5.606,3.368a2.18,2.18,0,1,1-2.162,3.786l-.083-.05-5.605-3.368.669,6.507a2.18,2.18,0,0,1-4.336.445l-1-9.758L29.373,34.371v12.5l7.848,5.886A2.18,2.18,0,1,1,34.6,56.241l-5.232-3.924v6.54a2.18,2.18,0,0,1-4.36,0v-6.54l-5.232,3.924a2.18,2.18,0,1,1-2.616-3.488l7.848-5.886v-12.5L14.3,40.808l-1,9.758a2.18,2.18,0,0,1-2.166,1.957,2.047,2.047,0,0,1-.224-.012,2.178,2.178,0,0,1-1.946-2.388v0l.669-6.507L4.026,46.982A2.18,2.18,0,1,1,1.7,43.3c.027-.017.055-.034.083-.05l5.606-3.368L1.329,37.414A2.18,2.18,0,0,1,2.97,33.376l9.087,3.7,10.9-6.553-10.9-6.552-9.087,3.7a2.18,2.18,0,0,1-1.641-4.038l6.057-2.463-5.606-3.37a2.18,2.18,0,1,1,2.162-3.786c.028.016.056.033.083.05L9.63,17.424l-.669-6.507a2.18,2.18,0,0,1,4.337-.445l1,9.758,10.712,6.436v-12.5L17.165,8.284A2.18,2.18,0,1,1,19.78,4.795h0l5.232,3.924V2.18a2.18,2.18,0,0,1,4.36,0V8.72L34.6,4.8A2.18,2.18,0,1,1,37.22,8.284l-7.848,5.885v12.5l10.712-6.437,1-9.758a2.18,2.18,0,0,1,4.336.445l-.669,6.507,5.605-3.368a2.18,2.18,0,1,1,2.329,3.686c-.027.017-.055.034-.083.05L47,21.159l6.057,2.463a2.18,2.18,0,0,1-1.641,4.038l-9.087-3.7-10.9,6.553,10.9,6.552,9.087-3.7a2.177,2.177,0,0,1,2.838,1.194Z" transform="translate(-0.001)" fill="#12263f"/>
      </g>
    </g>
  </g>
</svg>
