<svg xmlns="http://www.w3.org/2000/svg" xmlns:xlink="http://www.w3.org/1999/xlink" width="128" height="157.59" viewBox="0 0 128 157.59">
  <defs>
    <clipPath id="clip-path">
      <rect id="Rect치ngulo_401080" data-name="Rect치ngulo 401080" width="44.452" height="56.707" fill="none" stroke="#12263f" stroke-linecap="round" stroke-linejoin="round" stroke-width="4"/>
    </clipPath>
  </defs>
  <g id="Grupo_1099731" data-name="Grupo 1099731" transform="translate(-943.5 -10447.705)">
    <rect id="Rect치ngulo_401078" data-name="Rect치ngulo 401078" width="125" height="154.59" rx="20" transform="translate(945 10449.205)" fill="none" stroke="#ff725d" stroke-miterlimit="10" stroke-width="3"/>
    <g id="Grupo_1099312" data-name="Grupo 1099312" transform="translate(988.924 10495.981)">
      <g id="Grupo_1099311" data-name="Grupo 1099311" transform="translate(0)" clip-path="url(#clip-path)">
        <g id="Trazado_873417" data-name="Trazado 873417" transform="translate(0 0)" fill="none" stroke-linecap="round" stroke-linejoin="round">
          <path d="M39.82,16.779a2.016,2.016,0,0,0-3.232.525,14.3,14.3,0,0,1-2.243,2.929A24.243,24.243,0,0,0,28.809,5.728,18.95,18.95,0,0,0,14.142.031,2.02,2.02,0,0,0,12.364,1.1a2.02,2.02,0,0,0,.1,2.02c.283.424,6.424,9.879-.586,18.385-1.778-1.394-3.8-3.6-3.8-5.313a2.02,2.02,0,0,0-3.818-.909A46.466,46.466,0,0,0,0,34.376C0,51.79,12.95,56.316,13.5,56.6a2.02,2.02,0,0,0,2.384-2.95,18.345,18.345,0,0,1-2.162-11.314,15.617,15.617,0,0,0,5.374,5.94,2.02,2.02,0,0,0,2.727-.465,21.88,21.88,0,0,0,3.758-13.94c2.121,3.253,3.738,9.334.768,20.2A2.02,2.02,0,0,0,28.284,56.6a1.7,1.7,0,0,0,.545,0A22.89,22.89,0,0,0,44.446,34.376C44.446,21.789,40.284,17.264,39.82,16.779Z" stroke="none"/>
          <path d="M 17.49767303466797 4.170429229736328 C 17.99847984313965 5.366107940673828 18.49729347229004 6.834999084472656 18.82976722717285 8.500999450683594 C 19.97142219543457 14.22169876098633 18.63531112670898 19.59866333007812 14.96590042114258 24.05060958862305 C 13.5849781036377 25.72601699829102 11.11968231201172 25.99392127990723 9.411109924316406 24.65425491333008 C 8.457977294921875 23.90690994262695 7.195705413818359 22.78969192504883 6.138751983642578 21.41901016235352 C 5.69879150390625 22.75191879272461 5.324672698974609 24.10657119750977 5.019222259521484 25.474609375 C 4.366722106933594 28.39698600769043 4.023818969726562 31.3969554901123 4.000003814697266 34.39131164550781 C 4.004135131835938 42.34392547607422 7.0819091796875 47.08405685424805 10.16211318969727 49.83603668212891 C 9.547935485839844 47.21688461303711 9.400676727294922 44.48847198486328 9.751712799072266 41.81484222412109 C 9.979377746582031 40.08083343505859 11.30715560913086 38.69577789306641 13.03000068664551 38.39511108398438 C 14.75286674499512 38.09444046020508 16.47127914428711 38.9478874206543 17.2728328704834 40.50227355957031 C 17.8809757232666 41.68161773681641 18.68745994567871 42.7464485168457 19.64973068237305 43.64973831176758 C 21.14468002319336 40.73944091796875 21.82695198059082 37.44185256958008 21.58734512329102 34.16204071044922 C 21.45442199707031 32.34260940551758 22.56936645507812 30.66375350952148 24.29791069030762 30.08052062988281 C 26.02643966674805 29.49729537963867 27.93061065673828 30.15748596191406 28.92715454101562 31.68553161621094 C 31.12424468994141 35.05439758300781 33.12874984741211 41.07732772827148 31.13582992553711 51.17916870117188 C 31.7484245300293 50.81923675537109 32.34098815917969 50.42433547973633 32.9111213684082 49.99574279785156 C 34.49438858032227 48.8055305480957 35.87594604492188 47.37841033935547 37.0174446105957 45.75402069091797 C 38.15894317626953 44.12964248657227 39.03350067138672 42.34622955322266 39.6168098449707 40.45334243774414 C 40.21379089355469 38.51614379882812 40.49314498901367 36.50174331665039 40.44711303710938 34.46608734130859 C 40.44643402099609 34.43595123291016 40.44609069824219 34.40580749511719 40.44609069824219 34.37566375732422 C 40.44609069824219 28.43584251403809 39.43658828735352 24.64786529541016 38.5897102355957 22.51608657836914 C 38.4913215637207 22.26841735839844 38.39347457885742 22.03828811645508 38.2973518371582 21.82492065429688 C 37.94415283203125 22.25123977661133 37.57156753540039 22.66160583496094 37.18070220947266 23.0545768737793 C 36.05819702148438 24.1830940246582 34.37342071533203 24.5386962890625 32.89060211181641 23.96006393432617 C 31.40777778625488 23.38142013549805 30.40914535522461 21.97868728637695 30.34768867492676 20.38814163208008 C 30.26242256164551 18.18097686767578 29.81990051269531 16.01552200317383 29.03241157531738 13.95193099975586 C 28.26461791992188 11.93997192382812 27.18769073486328 10.07419586181641 25.83045768737793 8.403995513916016 C 24.45269584655762 7.01898193359375 22.84119987487793 5.932151794433594 21.03847694396973 5.172599792480469 C 19.89424324035645 4.690483093261719 18.70966529846191 4.355556488037109 17.49767303466797 4.170429229736328 M 15.23468017578125 -0.00055694580078125 C 20.33098793029785 -0.00055694580078125 25.23200416564941 2.055171966552734 28.80915451049805 5.728141784667969 C 32.19463348388672 9.825763702392578 34.13952255249023 14.92242050170898 34.34471130371094 20.23373031616211 C 35.215576171875 19.35818862915039 35.96926879882812 18.37355422973633 36.58722305297852 17.3043212890625 C 36.8758659362793 16.72564315795898 37.42411041259766 16.32006454467773 38.0620231628418 16.21337509155273 C 38.7048454284668 16.10757064819336 39.35929107666016 16.31817245483398 39.81965637207031 16.779052734375 C 40.28432083129883 17.26391983032227 44.44609069824219 21.78932952880859 44.44609069824219 34.37566375732422 C 44.67286682128906 44.40520858764648 38.34245681762695 53.41361999511719 28.82935523986816 56.59870910644531 C 28.64866828918457 56.62813186645508 28.46456718444824 56.62813186645508 28.28387832641602 56.59870910644531 C 28.11910057067871 56.59732055664062 27.9549560546875 56.57585525512695 27.79534530639648 56.53456497192383 C 26.71501159667969 56.25564193725586 26.06548881530762 55.15370941162109 26.34441184997559 54.0733642578125 C 29.31422233581543 43.20427703857422 27.69799995422363 37.12324523925781 25.57671165466309 33.87059783935547 C 25.93745613098145 38.80853271484375 24.61265563964844 43.72285461425781 21.81898880004883 47.81050872802734 C 21.17515563964844 48.66130065917969 19.98078536987305 48.86470794677734 19.09161186218262 48.27517700195312 C 16.81438827514648 46.79619598388672 14.96216583251953 44.74890899658203 13.71767807006836 42.33555221557617 C 13.20491027832031 46.24099731445312 13.96288871765137 50.20782089233398 15.8793773651123 53.64910888671875 C 16.18355560302734 54.15783309936523 16.24895477294922 54.77453231811523 16.05830001831055 55.33578872680664 C 15.6993236541748 56.39226531982422 14.55192756652832 56.95768737792969 13.49544525146484 56.59870910644531 C 12.94997787475586 56.31587600708008 0 51.79045486450195 0 34.37566375732422 C 0.05013275146484375 27.78135299682617 1.503211975097656 21.27328872680664 4.262779235839844 15.28404235839844 C 4.606479644775391 14.61318588256836 5.295143127441406 14.1894416809082 6.048831939697266 14.18488693237305 C 7.165615081787109 14.17871856689453 8.074546813964844 15.07747650146484 8.081111907958984 16.19316482543945 C 8.081111907958984 17.91040802001953 10.10139083862305 20.11251068115234 11.87923431396484 21.50649642944336 C 18.88958930969238 13.00113296508789 12.74794387817383 3.546230316162109 12.46511077880859 3.121974945068359 C 12.07242202758789 2.515144348144531 12.03390121459961 1.744651794433594 12.36408996582031 1.101699829101562 C 12.714111328125 0.4443550109863281 13.3972110748291 0.0329742431640625 14.14193344116211 0.03095245361328125 C 14.50708770751953 0.009883880615234375 14.87110900878906 -0.00055694580078125 15.23468017578125 -0.00055694580078125 Z" stroke="none" fill="#12263f"/>
        </g>
      </g>
    </g>
  </g>
</svg>
