<svg xmlns="http://www.w3.org/2000/svg" xmlns:xlink="http://www.w3.org/1999/xlink" width="400" height="224" viewBox="0 0 400 224">
  <defs>
    <clipPath id="clip-path">
      <rect id="Rectángulo_401093" data-name="Rectángulo 401093" width="400" height="224" transform="translate(831 11383.673)" fill="#fff" stroke="#707070" stroke-width="1"/>
    </clipPath>
  </defs>
  <g id="Grupo_1099733" data-name="Grupo 1099733" transform="translate(-915 -13866)">
    <g id="Enmascarar_grupo_1098688" data-name="Enmascarar grupo 1098688" transform="translate(84 2482.327)" clip-path="url(#clip-path)">
      <g id="t1-l13" transform="translate(831.39 11383.501)">
        <path id="Rectangle_36583" data-name="Rectangle 36583" d="M-.762-.762h399.22V223.8H-.762ZM396.676,1.02H1.02v221H396.676Z" transform="translate(0.762 0.762)" fill="#12263f"/>
        <g id="Group_107543" data-name="Group 107543" transform="translate(21.808 13.524)">
          <rect id="Rectangle_36584" data-name="Rectangle 36584" width="35.645" height="149.708" transform="translate(24.286 19.364)" fill="#fff505"/>
          <rect id="Rectangle_36585" data-name="Rectangle 36585" width="35.645" height="99.805" transform="translate(90.228 19.364)" fill="#fff505"/>
          <rect id="Rectangle_36586" data-name="Rectangle 36586" width="35.645" height="124.756" transform="translate(156.171 19.364)" fill="#fff505"/>
          <rect id="Rectangle_36587" data-name="Rectangle 36587" width="35.645" height="74.854" transform="translate(222.113 19.364)" fill="#fff505"/>
          <g id="SECUNDARIO" transform="translate(114.434 0)" style="isolation: isolate">
            <path id="Path_156746" data-name="Path 156746" d="M6.621-.538H2.959l-.7,2.089H.042L3.815-8.586H5.75L9.545,1.551H7.324Zm-3.1-1.693h2.53L4.783-6.024Zm8.354-3.752.062.871A2.63,2.63,0,0,1,14.1-6.123a2.186,2.186,0,0,1,1.782.7,3.281,3.281,0,0,1,.6,2.1V1.551H14.474V-3.267A1.305,1.305,0,0,0,14.2-4.2a1.248,1.248,0,0,0-.925-.289A1.384,1.384,0,0,0,12-3.761V1.551H9.983V-5.982ZM21.144.066a1.32,1.32,0,0,0,.905-.307,1.069,1.069,0,0,0,.362-.814H24.3a2.584,2.584,0,0,1-.423,1.4,2.756,2.756,0,0,1-1.12.989,3.519,3.519,0,0,1-1.577.352A3.27,3.27,0,0,1,18.63.659,4.064,4.064,0,0,1,17.7-2.174v-.132a4.017,4.017,0,0,1,.926-2.778,3.232,3.232,0,0,1,2.541-1.037,3.168,3.168,0,0,1,2.266.8A2.852,2.852,0,0,1,24.3-3.18H22.41a1.382,1.382,0,0,0-.362-.955,1.207,1.207,0,0,0-.919-.367,1.212,1.212,0,0,0-1.061.512,2.97,2.97,0,0,0-.356,1.663v.209a3.008,3.008,0,0,0,.356,1.674,1.227,1.227,0,0,0,1.075.512ZM27.41-5.162a2.511,2.511,0,0,1,2.012-.961q2.451,0,2.485,2.852V1.551H29.894V-3.219a1.4,1.4,0,0,0-.278-.957,1.194,1.194,0,0,0-.929-.309,1.37,1.37,0,0,0-1.281.683V1.551H25.4V-9.143h2.012ZM37.935.785a2.523,2.523,0,0,1-2.06.9,2.379,2.379,0,0,1-1.848-.7,2.972,2.972,0,0,1-.651-2.04V-5.982h2.012V-1.11q0,1.178,1.069,1.178a1.453,1.453,0,0,0,1.406-.713V-5.982h2.019V1.551H37.991Zm7.7-4.881a5.466,5.466,0,0,0-.724-.055,1.474,1.474,0,0,0-1.5.773V1.551H41.4V-5.982h1.9l.056.9a1.864,1.864,0,0,1,1.678-1.037,2.108,2.108,0,0,1,.624.089Zm5.124,5.646a2.234,2.234,0,0,1-.2-.675,2.435,2.435,0,0,1-1.9.814,2.673,2.673,0,0,1-1.835-.641,2.06,2.06,0,0,1-.727-1.615A2.129,2.129,0,0,1,46.985-2.4a4.38,4.38,0,0,1,2.566-.648h.926v-.431a1.241,1.241,0,0,0-.267-.835,1.054,1.054,0,0,0-.846-.314,1.2,1.2,0,0,0-.8.243.828.828,0,0,0-.289.668H46.261a2.021,2.021,0,0,1,.4-1.211A2.673,2.673,0,0,1,47.807-5.8a4.161,4.161,0,0,1,1.657-.316,3.287,3.287,0,0,1,2.214.7A2.448,2.448,0,0,1,52.5-3.455V-.19a3.6,3.6,0,0,0,.3,1.622v.119ZM49.093.151a1.733,1.733,0,0,0,.822-.2,1.3,1.3,0,0,0,.557-.535V-1.875h-.755q-1.515,0-1.6,1.044l-.007.119a.8.8,0,0,0,.267.624,1.027,1.027,0,0,0,.72.24Z" transform="translate(-0.042 9.143)" fill="#12263f"/>
          </g>
          <path id="Path_156749" data-name="Path 156749" d="M2.088,7.273v3.572H0V.708H3.954a4.575,4.575,0,0,1,2.009.418,3.078,3.078,0,0,1,1.33,1.187,3.31,3.31,0,0,1,.466,1.751A2.91,2.91,0,0,1,6.742,6.413a4.248,4.248,0,0,1-2.823.86Zm0-1.693H3.954a1.835,1.835,0,0,0,1.264-.389,1.418,1.418,0,0,0,.435-1.114,1.672,1.672,0,0,0-.438-1.2A1.639,1.639,0,0,0,4,2.4H2.088ZM13.3,5.2a5.466,5.466,0,0,0-.724-.055,1.474,1.474,0,0,0-1.5.773v4.931H9.064V3.312h1.9l.056.9A1.864,1.864,0,0,1,12.7,3.173a2.108,2.108,0,0,1,.624.089Zm.4,1.816a4.467,4.467,0,0,1,.431-2,3.16,3.16,0,0,1,1.243-1.362,3.626,3.626,0,0,1,1.883-.48,3.43,3.43,0,0,1,2.489.933,3.743,3.743,0,0,1,1.076,2.534l.014.515a3.937,3.937,0,0,1-.968,2.78,3.364,3.364,0,0,1-2.6,1.048,3.38,3.38,0,0,1-2.6-1.044A4.01,4.01,0,0,1,13.7,7.1Zm2.012.143a2.816,2.816,0,0,0,.4,1.64,1.453,1.453,0,0,0,2.3.007,3.081,3.081,0,0,0,.411-1.8,2.787,2.787,0,0,0-.412-1.633A1.337,1.337,0,0,0,17.256,4.8a1.314,1.314,0,0,0-1.142.576,3.133,3.133,0,0,0-.4,1.781Zm6.912,3.689V4.785H21.5V3.312h1.121V2.671A2.6,2.6,0,0,1,23.353.7a2.818,2.818,0,0,1,2.036-.7,4.7,4.7,0,0,1,1.023.139L26.391,1.7a2.565,2.565,0,0,0-.612-.062q-1.134,0-1.134,1.069v.606h1.5V4.785h-1.5v6.06Zm9.072-.765a2.523,2.523,0,0,1-2.061.9,2.379,2.379,0,0,1-1.847-.7,2.972,2.972,0,0,1-.651-2.04V3.312H29.15V8.184q0,1.178,1.069,1.178a1.453,1.453,0,0,0,1.406-.713V3.312h2.019v7.533H31.752Zm5.319-6.767.062.871a2.63,2.63,0,0,1,2.165-1.01,2.186,2.186,0,0,1,1.782.7,3.281,3.281,0,0,1,.6,2.1v4.866H39.613V6.027a1.306,1.306,0,0,0-.278-.929,1.248,1.248,0,0,0-.926-.289,1.384,1.384,0,0,0-1.274.724v5.311H35.122V3.312Zm5.82,3.711a4.539,4.539,0,0,1,.79-2.805,2.564,2.564,0,0,1,2.163-1.044,2.307,2.307,0,0,1,1.817.822V.151h2.015V10.845H47.807l-.1-.8a2.368,2.368,0,0,1-1.936.941A2.557,2.557,0,0,1,43.64,9.936a4.686,4.686,0,0,1-.8-2.913Zm2.012.15A2.974,2.974,0,0,0,45.217,8.8a1.2,1.2,0,0,0,1.069.565A1.346,1.346,0,0,0,47.6,8.572V5.6a1.327,1.327,0,0,0-1.3-.788q-1.453,0-1.453,2.363Zm8.458,3.672H51.287V3.312h2.019ZM51.168,1.362a.991.991,0,0,1,.3-.745,1.311,1.311,0,0,1,1.645,0,.985.985,0,0,1,.307.745.987.987,0,0,1-.31.752,1.291,1.291,0,0,1-1.636,0,.987.987,0,0,1-.307-.757Zm3.481,5.66a4.539,4.539,0,0,1,.79-2.805A2.564,2.564,0,0,1,57.6,3.173a2.307,2.307,0,0,1,1.817.822V.151h2.019V10.845H59.621l-.1-.8a2.368,2.368,0,0,1-1.935.941,2.557,2.557,0,0,1-2.134-1.048,4.685,4.685,0,0,1-.8-2.913Zm2.012.15A2.974,2.974,0,0,0,57.031,8.8,1.2,1.2,0,0,0,58.1,9.36a1.346,1.346,0,0,0,1.322-.786V5.6a1.327,1.327,0,0,0-1.3-.788q-1.461,0-1.461,2.363Zm10.7,3.672a2.234,2.234,0,0,1-.2-.675,2.435,2.435,0,0,1-1.9.814,2.673,2.673,0,0,1-1.835-.641A2.06,2.06,0,0,1,62.7,8.728a2.129,2.129,0,0,1,.891-1.837,4.38,4.38,0,0,1,2.566-.648h.926V5.812a1.241,1.241,0,0,0-.267-.835,1.054,1.054,0,0,0-.846-.314,1.2,1.2,0,0,0-.8.243.828.828,0,0,0-.289.668H62.866a2.021,2.021,0,0,1,.4-1.211,2.673,2.673,0,0,1,1.142-.873,4.161,4.161,0,0,1,1.657-.316,3.287,3.287,0,0,1,2.21.7A2.448,2.448,0,0,1,69.1,5.84V9.105a3.6,3.6,0,0,0,.3,1.622v.118ZM65.7,9.446a1.733,1.733,0,0,0,.822-.2,1.3,1.3,0,0,0,.557-.535V7.419h-.752q-1.515,0-1.6,1.044l-.007.119a.8.8,0,0,0,.267.624,1.027,1.027,0,0,0,.717.24Zm4.634-2.423a4.539,4.539,0,0,1,.79-2.805A2.564,2.564,0,0,1,73.28,3.173a2.307,2.307,0,0,1,1.817.822V.151h2.019V10.845H75.3l-.1-.8a2.368,2.368,0,0,1-1.936.941,2.557,2.557,0,0,1-2.133-1.048,4.685,4.685,0,0,1-.8-2.913Zm2.012.15A2.974,2.974,0,0,0,72.709,8.8a1.2,1.2,0,0,0,1.069.565,1.346,1.346,0,0,0,1.316-.788V5.6a1.327,1.327,0,0,0-1.3-.788Q72.344,4.809,72.344,7.173Z" transform="translate(0 132.717) rotate(-90)" fill="#12263f"/>
          <path id="Rectangle_36588" data-name="Rectangle 36588" d="M-.61-.61h37.07V25.768H-.61ZM35.035.816H.816V24.342H35.035Z" transform="translate(24.182 19.261)" fill="#12263f"/>
          <path id="Rectangle_36589" data-name="Rectangle 36589" d="M-.61-.61h37.07V25.768H-.61ZM35.035.816H.816V24.342H35.035Z" transform="translate(24.182 44.212)" fill="#12263f"/>
          <path id="Rectangle_36590" data-name="Rectangle 36590" d="M-.61-.61h37.07V25.768H-.61ZM35.035.816H.816V24.342H35.035Z" transform="translate(24.182 69.163)" fill="#12263f"/>
          <path id="Rectangle_36591" data-name="Rectangle 36591" d="M-.61-.61h37.07V25.768H-.61ZM35.035.816H.816V24.342H35.035Z" transform="translate(24.182 94.114)" fill="#12263f"/>
          <path id="Rectangle_36592" data-name="Rectangle 36592" d="M-.61-.61h37.07V25.768H-.61ZM35.035.816H.816V24.342H35.035Z" transform="translate(24.182 119.066)" fill="#12263f"/>
          <path id="Rectangle_36593" data-name="Rectangle 36593" d="M-.61-.61h37.07V25.768H-.61ZM35.035.816H.816V24.342H35.035Z" transform="translate(24.182 144.017)" fill="#12263f"/>
          <path id="Rectangle_36594" data-name="Rectangle 36594" d="M-.61-.61h37.07V25.768H-.61ZM35.035.816H.816V24.342H35.035Z" transform="translate(90.125 19.261)" fill="#12263f"/>
          <path id="Rectangle_36595" data-name="Rectangle 36595" d="M-.61-.61h37.07V25.768H-.61ZM35.035.816H.816V24.342H35.035Z" transform="translate(90.125 44.212)" fill="#12263f"/>
          <path id="Rectangle_36596" data-name="Rectangle 36596" d="M-.61-.61h37.07V25.768H-.61ZM35.035.816H.816V24.342H35.035Z" transform="translate(90.125 69.163)" fill="#12263f"/>
          <path id="Rectangle_36597" data-name="Rectangle 36597" d="M-.61-.61h37.07V25.768H-.61ZM35.035.816H.816V24.342H35.035Z" transform="translate(90.125 94.114)" fill="#12263f"/>
          <path id="Rectangle_36598" data-name="Rectangle 36598" d="M-.61-.61h37.07V25.768H-.61ZM35.035.816H.816V24.342H35.035Z" transform="translate(156.067 19.261)" fill="#12263f"/>
          <path id="Rectangle_36599" data-name="Rectangle 36599" d="M-.61-.61h37.07V25.768H-.61ZM35.035.816H.816V24.342H35.035Z" transform="translate(156.067 44.212)" fill="#12263f"/>
          <path id="Rectangle_36600" data-name="Rectangle 36600" d="M-.61-.61h37.07V25.768H-.61ZM35.035.816H.816V24.342H35.035Z" transform="translate(156.067 69.163)" fill="#12263f"/>
          <path id="Rectangle_36601" data-name="Rectangle 36601" d="M-.61-.61h37.07V25.768H-.61ZM35.035.816H.816V24.342H35.035Z" transform="translate(156.067 94.114)" fill="#12263f"/>
          <path id="Rectangle_36602" data-name="Rectangle 36602" d="M-.61-.61h37.07V25.768H-.61ZM35.035.816H.816V24.342H35.035Z" transform="translate(156.067 119.066)" fill="#12263f"/>
          <path id="Rectangle_36603" data-name="Rectangle 36603" d="M-.61-.61h37.07V25.768H-.61ZM35.035.816H.816V24.342H35.035Z" transform="translate(222.01 19.261)" fill="#12263f"/>
          <path id="Rectangle_36604" data-name="Rectangle 36604" d="M-.61-.61h37.07V25.768H-.61ZM35.035.816H.816V24.342H35.035Z" transform="translate(222.01 44.212)" fill="#12263f"/>
          <path id="Rectangle_36605" data-name="Rectangle 36605" d="M-.61-.61h37.07V25.768H-.61ZM35.035.816H.816V24.342H35.035Z" transform="translate(222.01 69.163)" fill="#12263f"/>
          <g id="SECUNDARIO-2" data-name="SECUNDARIO" transform="translate(294.195 45.447)" style="isolation: isolate">
            <path id="Path_156747" data-name="Path 156747" d="M.793,1.551V-8.586H3.912a4.736,4.736,0,0,1,2.392.6A4.2,4.2,0,0,1,7.95-6.271a5.283,5.283,0,0,1,.592,2.524v.466A5.3,5.3,0,0,1,7.961-.766a4.163,4.163,0,0,1-1.64,1.7,4.772,4.772,0,0,1-2.388.612ZM2.881-6.895V-.127h1.01a2.268,2.268,0,0,0,1.871-.8,3.618,3.618,0,0,0,.661-2.29v-.535A3.675,3.675,0,0,0,5.783-6.1a2.261,2.261,0,0,0-1.871-.8ZM12.05,1.551H10.032V-5.982h2.019ZM9.911-7.932a.991.991,0,0,1,.3-.745,1.138,1.138,0,0,1,.825-.292,1.141,1.141,0,0,1,.822.292.985.985,0,0,1,.307.745.987.987,0,0,1-.31.752,1.143,1.143,0,0,1-.818.292,1.143,1.143,0,0,1-.814-.295.987.987,0,0,1-.312-.749Zm7.874,7.4a.648.648,0,0,0-.365-.581,4.152,4.152,0,0,0-1.173-.38q-2.688-.564-2.688-2.283a2.07,2.07,0,0,1,.832-1.674,3.356,3.356,0,0,1,2.175-.672,3.612,3.612,0,0,1,2.294.675,2.128,2.128,0,0,1,.86,1.755H17.71a.973.973,0,0,0-.278-.713,1.178,1.178,0,0,0-.871-.279,1.2,1.2,0,0,0-.787.23.725.725,0,0,0-.278.585.624.624,0,0,0,.316.539,3.259,3.259,0,0,0,1.069.356,8.733,8.733,0,0,1,1.267.338A2.082,2.082,0,0,1,19.743-.615a1.96,1.96,0,0,1-.884,1.667,3.814,3.814,0,0,1-2.283.637,3.983,3.983,0,0,1-1.682-.338A2.821,2.821,0,0,1,13.742.426a2.151,2.151,0,0,1-.418-1.271h1.908a1.051,1.051,0,0,0,.4.822,1.574,1.574,0,0,0,.988.285A1.457,1.457,0,0,0,17.49.043a.683.683,0,0,0,.3-.574Zm6.72,2.225a3.7,3.7,0,0,1-2.7-1.016,3.613,3.613,0,0,1-1.043-2.708v-.2a4.55,4.55,0,0,1,.438-2.029,3.219,3.219,0,0,1,1.243-1.379,3.488,3.488,0,0,1,1.835-.484,3.126,3.126,0,0,1,2.433.975,3.96,3.96,0,0,1,.891,2.762v.822h-4.8a1.871,1.871,0,0,0,.588,1.183,1.782,1.782,0,0,0,1.243.446,2.172,2.172,0,0,0,1.817-.842L27.443.331a3.02,3.02,0,0,1-1.225,1,4.02,4.02,0,0,1-1.713.358ZM24.275-4.5a1.257,1.257,0,0,0-.971.405,2.1,2.1,0,0,0-.477,1.158h2.8V-3.1a1.5,1.5,0,0,0-.362-1.038,1.3,1.3,0,0,0-.989-.364ZM30.6-5.982l.062.871a2.63,2.63,0,0,1,2.165-1.01,2.186,2.186,0,0,1,1.782.7,3.281,3.281,0,0,1,.6,2.1V1.551H33.193V-3.267a1.305,1.305,0,0,0-.278-.929,1.248,1.248,0,0,0-.926-.289,1.384,1.384,0,0,0-1.274.724V1.551H28.7V-5.982Zm4-3.072a1.949,1.949,0,0,1-.46,1.319,1.426,1.426,0,0,1-1.121.535,1.7,1.7,0,0,1-.47-.059,3.153,3.153,0,0,1-.568-.254,3.061,3.061,0,0,0-.522-.241A1.276,1.276,0,0,0,31.1-7.8a.559.559,0,0,0-.414.178.676.676,0,0,0-.17.495L29.351-7.2a1.978,1.978,0,0,1,.456-1.316,1.406,1.406,0,0,1,1.117-.543,1.438,1.438,0,0,1,.393.053,4.332,4.332,0,0,1,.6.254,3.914,3.914,0,0,0,.577.243,1.319,1.319,0,0,0,.334.042.587.587,0,0,0,.421-.17.649.649,0,0,0,.178-.491Zm1.824,6.772a4.467,4.467,0,0,1,.431-2,3.16,3.16,0,0,1,1.243-1.362,3.626,3.626,0,0,1,1.883-.48,3.43,3.43,0,0,1,2.489.933,3.743,3.743,0,0,1,1.076,2.534l.014.514A3.937,3.937,0,0,1,42.585.642a3.364,3.364,0,0,1-2.6,1.048,3.38,3.38,0,0,1-2.6-1.044,4.01,4.01,0,0,1-.971-2.837Zm2.012.143a2.816,2.816,0,0,0,.4,1.64A1.337,1.337,0,0,0,39.988.07,1.337,1.337,0,0,0,41.13-.492a3.081,3.081,0,0,0,.411-1.8,2.787,2.787,0,0,0-.411-1.632A1.337,1.337,0,0,0,39.971-4.5a1.314,1.314,0,0,0-1.142.576,3.133,3.133,0,0,0-.4,1.78Zm9.6-.129a4.539,4.539,0,0,1,.79-2.805,2.564,2.564,0,0,1,2.162-1.044A2.307,2.307,0,0,1,52.8-5.3V-9.143h2.019V1.551H53l-.1-.8a2.368,2.368,0,0,1-1.935.941A2.557,2.557,0,0,1,48.833.642a4.685,4.685,0,0,1-.8-2.913Zm2.012.15A2.974,2.974,0,0,0,50.414-.5a1.2,1.2,0,0,0,1.069.565A1.346,1.346,0,0,0,52.8-.722V-3.7a1.327,1.327,0,0,0-1.3-.788q-1.457,0-1.457,2.363Zm9.8,3.811a3.7,3.7,0,0,1-2.7-1.019A3.613,3.613,0,0,1,56.1-2.034v-.2a4.55,4.55,0,0,1,.438-2.029,3.219,3.219,0,0,1,1.243-1.379,3.488,3.488,0,0,1,1.835-.484,3.126,3.126,0,0,1,2.433.975,3.96,3.96,0,0,1,.891,2.762v.822h-4.8a1.871,1.871,0,0,0,.588,1.183,1.782,1.782,0,0,0,1.243.446,2.172,2.172,0,0,0,1.817-.842L62.781.331a3.02,3.02,0,0,1-1.228,1,4.02,4.02,0,0,1-1.71.358ZM59.613-4.5a1.257,1.257,0,0,0-.971.405,2.1,2.1,0,0,0-.477,1.158h2.8v-.161A1.5,1.5,0,0,0,60.6-4.131a1.3,1.3,0,0,0-.989-.368ZM2.547,11.127l.062.842a2.648,2.648,0,0,1,2.165-.98,2.009,2.009,0,0,1,2,1.148,2.584,2.584,0,0,1,2.263-1.149,2.247,2.247,0,0,1,1.824.713,3.28,3.28,0,0,1,.6,2.148v4.812H9.44v-4.8a1.435,1.435,0,0,0-.25-.937,1.11,1.11,0,0,0-.884-.3,1.256,1.256,0,0,0-1.253.863l.007,5.168H5.047V13.863a1.417,1.417,0,0,0-.258-.946,1.122,1.122,0,0,0-.877-.292,1.3,1.3,0,0,0-1.24.713V18.66H.661V11.127Zm10.144,3.7a4.467,4.467,0,0,1,.431-2,3.16,3.16,0,0,1,1.243-1.357,3.626,3.626,0,0,1,1.883-.48,3.43,3.43,0,0,1,2.489.933,3.743,3.743,0,0,1,1.076,2.534l.014.515a3.937,3.937,0,0,1-.968,2.781,3.364,3.364,0,0,1-2.6,1.048,3.38,3.38,0,0,1-2.6-1.044,4.01,4.01,0,0,1-.971-2.843Zm2.012.143a2.816,2.816,0,0,0,.4,1.642,1.451,1.451,0,0,0,2.3.007,3.081,3.081,0,0,0,.411-1.8,2.787,2.787,0,0,0-.411-1.632,1.337,1.337,0,0,0-1.158-.578,1.314,1.314,0,0,0-1.142.576,3.133,3.133,0,0,0-.4,1.777Zm9.079,1.236,1.4-5.079h2.1L24.742,18.66H22.82l-2.541-7.533h2.1Zm6.505,2.458H28.272V11.127h2.019ZM28.148,9.182a.991.991,0,0,1,.3-.745,1.305,1.305,0,0,1,1.647,0,1.063,1.063,0,0,1,0,1.5,1.29,1.29,0,0,1-1.636,0,.987.987,0,0,1-.308-.757ZM34.07,18.66H32.052V7.967h2.019Zm3.78,0H35.832V11.127H37.85Zm-2.14-9.482a.991.991,0,0,1,.3-.745,1.305,1.305,0,0,1,1.647,0,1.063,1.063,0,0,1,0,1.5,1.29,1.29,0,0,1-1.636,0,.987.987,0,0,1-.314-.752Zm8.162,9.482a2.234,2.234,0,0,1-.2-.675,2.435,2.435,0,0,1-1.9.814,2.673,2.673,0,0,1-1.835-.641,2.06,2.06,0,0,1-.727-1.615,2.129,2.129,0,0,1,.891-1.837,4.38,4.38,0,0,1,2.562-.648h.926v-.431a1.241,1.241,0,0,0-.267-.835,1.054,1.054,0,0,0-.846-.314,1.2,1.2,0,0,0-.8.243.828.828,0,0,0-.289.668H39.376a2.021,2.021,0,0,1,.4-1.211,2.673,2.673,0,0,1,1.142-.873,4.161,4.161,0,0,1,1.657-.316,3.287,3.287,0,0,1,2.21.7,2.448,2.448,0,0,1,.818,1.967v3.265a3.6,3.6,0,0,0,.3,1.622v.118Zm-1.664-1.4a1.733,1.733,0,0,0,.822-.2,1.3,1.3,0,0,0,.557-.535V15.235H42.84q-1.515,0-1.6,1.044l-.007.119a.8.8,0,0,0,.267.624,1.027,1.027,0,0,0,.713.24Zm9.179-4.247a5.466,5.466,0,0,0-.724-.055,1.474,1.474,0,0,0-1.5.773V18.66H47.152V11.127h1.9l.056.9a1.864,1.864,0,0,1,1.678-1.037,2.108,2.108,0,0,1,.624.089Zm3.089,5.646H52.457V11.127h2.019ZM52.337,9.178a.991.991,0,0,1,.3-.745,1.305,1.305,0,0,1,1.647,0,1.063,1.063,0,0,1,0,1.5,1.29,1.29,0,0,1-1.636,0,.987.987,0,0,1-.313-.752Zm3.482,5.651a4.467,4.467,0,0,1,.431-2,3.16,3.16,0,0,1,1.243-1.357,3.626,3.626,0,0,1,1.883-.48,3.43,3.43,0,0,1,2.489.933,3.743,3.743,0,0,1,1.076,2.534l.014.515a3.937,3.937,0,0,1-.968,2.781,3.751,3.751,0,0,1-5.2,0,4.01,4.01,0,0,1-.971-2.839Zm2.012.143a2.816,2.816,0,0,0,.4,1.642,1.451,1.451,0,0,0,2.3.007,3.081,3.081,0,0,0,.411-1.8,2.787,2.787,0,0,0-.411-1.632,1.337,1.337,0,0,0-1.158-.578,1.313,1.313,0,0,0-1.142.576,3.133,3.133,0,0,0-.4,1.777Z" transform="translate(-0.661 9.143)" fill="#12263f"/>
          </g>
          <g id="SECUNDARIO-3" data-name="SECUNDARIO" transform="translate(83.92 184.461)" style="isolation: isolate">
            <path id="Path_156748" data-name="Path 156748" d="M.774,1.551V-8.586H3.893a4.736,4.736,0,0,1,2.392.6A4.2,4.2,0,0,1,7.931-6.271a5.283,5.283,0,0,1,.592,2.524v.466A5.3,5.3,0,0,1,7.941-.766,4.163,4.163,0,0,1,6.3.938a4.772,4.772,0,0,1-2.388.612ZM2.862-6.895V-.127h1.01a2.268,2.268,0,0,0,1.871-.8A3.618,3.618,0,0,0,6.4-3.22v-.535A3.675,3.675,0,0,0,5.763-6.1a2.261,2.261,0,0,0-1.871-.8Zm9.169,8.445H10.012V-5.982h2.019ZM9.892-7.932a.991.991,0,0,1,.3-.745,1.138,1.138,0,0,1,.825-.292,1.141,1.141,0,0,1,.822.292.985.985,0,0,1,.307.745.987.987,0,0,1-.31.752,1.143,1.143,0,0,1-.818.292,1.143,1.143,0,0,1-.814-.295.987.987,0,0,1-.312-.749Zm7.874,7.4a.648.648,0,0,0-.365-.581,4.152,4.152,0,0,0-1.173-.38Q13.54-2.06,13.54-3.779a2.07,2.07,0,0,1,.832-1.674,3.356,3.356,0,0,1,2.175-.672,3.612,3.612,0,0,1,2.294.675A2.128,2.128,0,0,1,19.7-3.7h-2.01a.973.973,0,0,0-.278-.713,1.178,1.178,0,0,0-.871-.279,1.2,1.2,0,0,0-.787.23.725.725,0,0,0-.278.585.624.624,0,0,0,.316.539,3.259,3.259,0,0,0,1.069.356,8.733,8.733,0,0,1,1.267.338A2.082,2.082,0,0,1,19.724-.615a1.96,1.96,0,0,1-.884,1.667,3.814,3.814,0,0,1-2.283.637,3.983,3.983,0,0,1-1.682-.338A2.821,2.821,0,0,1,13.723.426,2.151,2.151,0,0,1,13.3-.845h1.908a1.051,1.051,0,0,0,.4.822A1.574,1.574,0,0,0,16.6.262a1.457,1.457,0,0,0,.873-.219.683.683,0,0,0,.3-.574Zm6.72,2.225A3.7,3.7,0,0,1,21.79.674a3.613,3.613,0,0,1-1.043-2.708v-.2a4.55,4.55,0,0,1,.438-2.029,3.219,3.219,0,0,1,1.243-1.379,3.488,3.488,0,0,1,1.835-.484,3.126,3.126,0,0,1,2.433.975,3.96,3.96,0,0,1,.891,2.762v.822h-4.8a1.871,1.871,0,0,0,.588,1.183,1.782,1.782,0,0,0,1.243.446,2.172,2.172,0,0,0,1.817-.842L27.424.331a3.02,3.02,0,0,1-1.225,1,4.02,4.02,0,0,1-1.713.358ZM24.256-4.5a1.257,1.257,0,0,0-.971.405,2.1,2.1,0,0,0-.477,1.158h2.8V-3.1a1.5,1.5,0,0,0-.362-1.038,1.3,1.3,0,0,0-.989-.364Zm6.322-1.483.062.871a2.63,2.63,0,0,1,2.165-1.01,2.186,2.186,0,0,1,1.782.7,3.281,3.281,0,0,1,.6,2.1V1.551H33.174V-3.267A1.305,1.305,0,0,0,32.9-4.2a1.248,1.248,0,0,0-.926-.289,1.384,1.384,0,0,0-1.274.724V1.551H28.684V-5.982Zm4-3.072a1.949,1.949,0,0,1-.46,1.319,1.426,1.426,0,0,1-1.121.535,1.7,1.7,0,0,1-.47-.059,3.153,3.153,0,0,1-.568-.254,3.061,3.061,0,0,0-.522-.241,1.276,1.276,0,0,0-.348-.045.559.559,0,0,0-.414.178.676.676,0,0,0-.17.495L29.332-7.2a1.978,1.978,0,0,1,.456-1.316,1.406,1.406,0,0,1,1.117-.543,1.438,1.438,0,0,1,.393.053,4.332,4.332,0,0,1,.6.254,3.914,3.914,0,0,0,.577.243,1.319,1.319,0,0,0,.334.042.587.587,0,0,0,.421-.17.649.649,0,0,0,.178-.491ZM36.4-2.281a4.467,4.467,0,0,1,.431-2,3.16,3.16,0,0,1,1.243-1.362,3.626,3.626,0,0,1,1.883-.48,3.43,3.43,0,0,1,2.489.933,3.743,3.743,0,0,1,1.076,2.534l.014.514A3.937,3.937,0,0,1,42.566.642a3.364,3.364,0,0,1-2.6,1.048,3.38,3.38,0,0,1-2.6-1.044A4.01,4.01,0,0,1,36.4-2.192Zm2.012.143a2.816,2.816,0,0,0,.4,1.64A1.337,1.337,0,0,0,39.969.07,1.337,1.337,0,0,0,41.11-.492a3.081,3.081,0,0,0,.411-1.8,2.787,2.787,0,0,0-.411-1.632A1.337,1.337,0,0,0,39.952-4.5a1.313,1.313,0,0,0-1.142.576,3.133,3.133,0,0,0-.4,1.78Zm9.6-.129a4.539,4.539,0,0,1,.79-2.805,2.564,2.564,0,0,1,2.162-1.044,2.307,2.307,0,0,1,1.817.822V-9.143H54.8V1.551H52.979l-.1-.8a2.368,2.368,0,0,1-1.935.941A2.557,2.557,0,0,1,48.814.642a4.685,4.685,0,0,1-.8-2.913Zm2.012.15A2.974,2.974,0,0,0,50.4-.5a1.2,1.2,0,0,0,1.069.565,1.346,1.346,0,0,0,1.316-.788V-3.7a1.327,1.327,0,0,0-1.3-.788q-1.457,0-1.457,2.363Zm9.8,3.811a3.7,3.7,0,0,1-2.7-1.019,3.613,3.613,0,0,1-1.041-2.708v-.2a4.55,4.55,0,0,1,.438-2.029,3.219,3.219,0,0,1,1.243-1.379A3.488,3.488,0,0,1,59.6-6.121a3.126,3.126,0,0,1,2.433.975,3.96,3.96,0,0,1,.891,2.762v.822h-4.8a1.871,1.871,0,0,0,.588,1.183,1.782,1.782,0,0,0,1.243.446,2.172,2.172,0,0,0,1.817-.842L62.762.331a3.02,3.02,0,0,1-1.228,1,4.02,4.02,0,0,1-1.71.358ZM59.594-4.5a1.257,1.257,0,0,0-.971.405,2.1,2.1,0,0,0-.477,1.158h2.8v-.161a1.5,1.5,0,0,0-.362-1.038,1.3,1.3,0,0,0-.989-.368Zm14.8,2.35a4.518,4.518,0,0,1-.79,2.788A2.533,2.533,0,0,1,71.472,1.69,2.346,2.346,0,0,1,69.627.9V4.447H67.614V-5.979H69.48l.07.738a2.365,2.365,0,0,1,1.908-.877,2.55,2.55,0,0,1,2.165,1.03A4.64,4.64,0,0,1,74.4-2.247Zm-2.012-.146a2.965,2.965,0,0,0-.372-1.622,1.213,1.213,0,0,0-1.083-.571,1.317,1.317,0,0,0-1.3.724V-.677a1.337,1.337,0,0,0,1.316.745Q72.383.068,72.383-2.292Zm7.624,3.842a2.234,2.234,0,0,1-.2-.675,2.435,2.435,0,0,1-1.9.814,2.673,2.673,0,0,1-1.835-.641,2.06,2.06,0,0,1-.723-1.615A2.129,2.129,0,0,1,76.237-2.4,4.38,4.38,0,0,1,78.8-3.051h.926v-.431a1.241,1.241,0,0,0-.267-.835,1.054,1.054,0,0,0-.846-.314,1.2,1.2,0,0,0-.8.243.828.828,0,0,0-.289.668h-2.02a2.021,2.021,0,0,1,.4-1.211A2.673,2.673,0,0,1,77.055-5.8a4.161,4.161,0,0,1,1.657-.316,3.287,3.287,0,0,1,2.21.7,2.448,2.448,0,0,1,.818,1.967V-.189a3.6,3.6,0,0,0,.3,1.622v.118ZM78.343.151a1.733,1.733,0,0,0,.822-.2,1.3,1.3,0,0,0,.557-.535V-1.875H78.97q-1.515,0-1.6,1.044l-.007.119a.8.8,0,0,0,.267.624,1.027,1.027,0,0,0,.717.24Zm9.023-.683A.648.648,0,0,0,87-1.112a4.152,4.152,0,0,0-1.173-.38Q83.14-2.056,83.14-3.775a2.07,2.07,0,0,1,.832-1.674,3.356,3.356,0,0,1,2.175-.672,3.612,3.612,0,0,1,2.294.675,2.128,2.128,0,0,1,.86,1.755H87.287a.973.973,0,0,0-.278-.713,1.178,1.178,0,0,0-.869-.283,1.2,1.2,0,0,0-.787.23.725.725,0,0,0-.278.585.624.624,0,0,0,.316.539,3.259,3.259,0,0,0,1.069.356,8.733,8.733,0,0,1,1.267.338A2.082,2.082,0,0,1,89.323-.614a1.96,1.96,0,0,1-.884,1.667,3.814,3.814,0,0,1-2.283.637,3.983,3.983,0,0,1-1.682-.338A2.821,2.821,0,0,1,83.322.427,2.151,2.151,0,0,1,82.9-.844H84.81a1.051,1.051,0,0,0,.4.822,1.574,1.574,0,0,0,.988.285,1.457,1.457,0,0,0,.873-.219.683.683,0,0,0,.3-.575ZM92.74,1.551H90.721V-5.982H92.74ZM90.6-7.932a.991.991,0,0,1,.3-.745,1.138,1.138,0,0,1,.825-.292,1.141,1.141,0,0,1,.822.292.985.985,0,0,1,.307.745.987.987,0,0,1-.313.749,1.143,1.143,0,0,1-.818.292,1.143,1.143,0,0,1-.818-.292.987.987,0,0,1-.307-.749ZM96.52,1.551H94.505V-9.143h2.019Zm3.777,0H98.278V-9.143H100.3Zm1.344-3.832a4.467,4.467,0,0,1,.431-2,3.16,3.16,0,0,1,1.246-1.362,3.626,3.626,0,0,1,1.883-.48,3.43,3.43,0,0,1,2.492.933,3.743,3.743,0,0,1,1.069,2.533l.014.515A3.937,3.937,0,0,1,107.81.642a3.364,3.364,0,0,1-2.594,1.048,3.38,3.38,0,0,1-2.6-1.044,4.01,4.01,0,0,1-.971-2.84Zm2.012.143a2.816,2.816,0,0,0,.4,1.642,1.337,1.337,0,0,0,1.158.569,1.337,1.337,0,0,0,1.142-.561,3.081,3.081,0,0,0,.411-1.8,2.787,2.787,0,0,0-.411-1.636A1.337,1.337,0,0,0,105.2-4.5a1.314,1.314,0,0,0-1.142.576,3.133,3.133,0,0,0-.4,1.781Z" transform="translate(-0.774 9.143)" fill="#12263f"/>
          </g>
          <path id="Line_165" data-name="Line 165" d="M75.745.816H0V-.61H75.745Z" transform="translate(24.286 6.423)" fill="#5c22c3"/>
          <path id="Line_166" data-name="Line 166" d="M.816,31.189H-.61V0H.816Z" transform="translate(6.575 19.364)" fill="#5c22c3"/>
          <path id="Line_167" data-name="Line 167" d="M.816,31.189H-.61V0H.816Z" transform="translate(6.36 137.882)" fill="#5c22c3"/>
          <path id="Line_168" data-name="Line 168" d="M.816,50.794H-.61V0H.816Z" transform="translate(135.572 115.605)" fill="#5c22c3"/>
          <path id="Line_169" data-name="Line 169" d="M75.745.816H0V-.61H75.745Z" transform="translate(182.013 6.785)" fill="#5c22c3"/>
          <path id="Path_156744" data-name="Path 156744" d="M24.984-663.149l5.3-11.208H19.69Z" transform="translate(110.743 835.409)" fill="#5c22c3"/>
          <path id="Line_170" data-name="Line 170" d="M13.607.816H0V-.61H13.607Z" transform="translate(267.56 59.225)" fill="#5c22c3"/>
          <path id="Path_156745" data-name="Path 156745" d="M155.2-760.6,144-765.9v10.589Z" transform="translate(131.825 819.884)" fill="#5c22c3"/>
        </g>
      </g>
    </g>
  </g>
</svg>
