<svg xmlns="http://www.w3.org/2000/svg" width="505" height="141.508" viewBox="0 0 505 141.508">
  <g id="Grupo_1099734" data-name="Grupo 1099734" transform="translate(-810 -14236.711)">
    <g id="Grupo_1099345" data-name="Grupo 1099345" transform="translate(0 14)">
      <g id="t1-l1" transform="translate(810 14222.711)">
        <path id="Rectangle_37152" data-name="Rectangle 37152" d="M1.429,1.49V140.018h152.9V1.49H1.429M0,0H155.757V141.508H0Z" transform="translate(0)" fill="#12263f"/>
        <path id="Path_156861" data-name="Path 156861" d="M2.69-4.465H6.246v1.4H1.016v-8.472H2.69ZM8.8-3.063H7.183v-6.3H8.8ZM7.088-10.988a.847.847,0,0,1,.243-.623.89.89,0,0,1,.662-.244.892.892,0,0,1,.659.244.841.841,0,0,1,.246.623.843.843,0,0,1-.247.626.9.9,0,0,1-.656.244.9.9,0,0,1-.657-.244.843.843,0,0,1-.248-.626Zm8.486,4.836a3.934,3.934,0,0,1-.62,2.359,2.021,2.021,0,0,1-1.731.846,1.859,1.859,0,0,1-1.568-.786l-.071.67H10.131V-12h1.613v3.2a1.805,1.805,0,0,1,1.468-.681,2.04,2.04,0,0,1,1.733.847,3.939,3.939,0,0,1,.628,2.383ZM13.96-6.274a2.593,2.593,0,0,0-.29-1.393.968.968,0,0,0-.865-.439,1.059,1.059,0,0,0-1.06.658v2.485a1.073,1.073,0,0,0,1.072.664,1,1,0,0,0,1.027-.8A4.311,4.311,0,0,0,13.96-6.274Zm6-1.507a4.208,4.208,0,0,0-.58-.046,1.17,1.17,0,0,0-1.2.646v4.119H16.567v-6.3h1.524l.045.751a1.49,1.49,0,0,1,1.345-.867,1.627,1.627,0,0,1,.5.074ZM23.41-2.946A2.9,2.9,0,0,1,21.247-3.8a3.091,3.091,0,0,1-.835-2.263v-.163a3.939,3.939,0,0,1,.352-1.7,2.655,2.655,0,0,1,1-1.152,2.709,2.709,0,0,1,1.471-.4,2.455,2.455,0,0,1,1.951.815A3.4,3.4,0,0,1,25.9-6.351v.687H22.048a1.589,1.589,0,0,0,.472.989,1.394,1.394,0,0,0,1,.372,1.714,1.714,0,0,0,1.457-.7l.792.925a2.445,2.445,0,0,1-.982.836A3.112,3.112,0,0,1,23.41-2.946Zm-.185-5.172a.988.988,0,0,0-.779.339,1.8,1.8,0,0,0-.382.968h2.244v-.135a1.285,1.285,0,0,0-.29-.868A1.016,1.016,0,0,0,23.225-8.119Zm5.1-1.239.05.7a2.088,2.088,0,0,1,1.736-.819,1.6,1.6,0,0,1,1.6.959,2.047,2.047,0,0,1,1.814-.96,1.763,1.763,0,0,1,1.463.6,2.827,2.827,0,0,1,.48,1.795v4.021H33.849V-7.078a1.237,1.237,0,0,0-.2-.783.868.868,0,0,0-.709-.247,1.009,1.009,0,0,0-1,.722l.007,4.323H30.326V-7.072a1.222,1.222,0,0,0-.206-.791.877.877,0,0,0-.7-.244,1.039,1.039,0,0,0-.994.6v4.449H26.81v-6.3ZM39.486-2.946A2.9,2.9,0,0,1,37.323-3.8a3.091,3.091,0,0,1-.835-2.263v-.163a3.939,3.939,0,0,1,.352-1.7,2.655,2.655,0,0,1,1-1.152,2.709,2.709,0,0,1,1.471-.4,2.455,2.455,0,0,1,1.951.815,3.4,3.4,0,0,1,.714,2.309v.687H38.124a1.589,1.589,0,0,0,.472.989,1.394,1.394,0,0,0,1,.372,1.714,1.714,0,0,0,1.457-.7l.792.925a2.445,2.445,0,0,1-.982.836,3.112,3.112,0,0,1-1.373.3ZM39.3-8.119a.988.988,0,0,0-.779.339,1.8,1.8,0,0,0-.382.968h2.244v-.135a1.285,1.285,0,0,0-.29-.868A1.016,1.016,0,0,0,39.3-8.119Zm5.073-1.239.05.728a2.076,2.076,0,0,1,1.736-.844,1.716,1.716,0,0,1,1.429.588,2.827,2.827,0,0,1,.48,1.757v4.067H46.452V-7.089a1.124,1.124,0,0,0-.221-.777.973.973,0,0,0-.742-.241,1.1,1.1,0,0,0-1.022.606v4.439H42.852v-6.3Zm6.849-1.548v1.548h1.032v1.231H51.219v3.142a.774.774,0,0,0,.129.5.625.625,0,0,0,.492.149,2.47,2.47,0,0,0,.474-.041V-3.1a3.2,3.2,0,0,1-.977.149A1.5,1.5,0,0,1,50.051-3.4a1.647,1.647,0,0,1-.445-1.336V-8.127h-.882V-9.358h.882v-1.548ZM55.93-2.946A2.9,2.9,0,0,1,53.768-3.8a3.091,3.091,0,0,1-.835-2.263v-.163a3.939,3.939,0,0,1,.352-1.7,2.655,2.655,0,0,1,1-1.152,2.709,2.709,0,0,1,1.471-.4A2.455,2.455,0,0,1,57.7-8.66a3.4,3.4,0,0,1,.714,2.309v.687H54.569a1.589,1.589,0,0,0,.472.989,1.394,1.394,0,0,0,1,.372,1.714,1.714,0,0,0,1.457-.7l.792.925a2.445,2.445,0,0,1-.98.836A3.112,3.112,0,0,1,55.93-2.946Zm-.184-5.172a.988.988,0,0,0-.779.339,1.8,1.8,0,0,0-.382.968h2.244v-.135a1.285,1.285,0,0,0-.29-.868,1.016,1.016,0,0,0-.793-.3Z" transform="translate(48.378 137.254)" fill="#12263f"/>
        <rect id="Rectangle_37153" data-name="Rectangle 37153" width="18.997" height="109.851" transform="translate(14.867 9.357)" fill="#fff505"/>
        <rect id="Rectangle_37154" data-name="Rectangle 37154" width="18.171" height="109.851" transform="translate(122.24 9.357)" fill="#fff505"/>
        <rect id="Rectangle_37155" data-name="Rectangle 37155" width="18.997" height="55.338" transform="translate(50.383 63.869)" fill="#fff505"/>
        <rect id="Rectangle_37156" data-name="Rectangle 37156" width="18.171" height="55.338" transform="translate(86.724 63.869)" fill="#87caff"/>
        <rect id="Rectangle_37157" data-name="Rectangle 37157" width="19.823" height="52.861" transform="translate(51.209 46.524) rotate(-90)" fill="#fff505"/>
        <g id="Group_108075" data-name="Group 108075" transform="translate(14.74 8.773)">
          <g id="Group_108070" data-name="Group 108070">
            <path id="Rectangle_37158" data-name="Rectangle 37158" d="M-.75-.75H18.87v19.5H-.75ZM17.8.367H.322V17.635H17.8Z" transform="translate(0.75 0.75)" fill="#12263f"/>
            <path id="Rectangle_37159" data-name="Rectangle 37159" d="M-.75-.75H18.87v19.5H-.75ZM17.8.367H.322V17.635H17.8Z" transform="translate(0.75 19.04)" fill="#12263f"/>
            <path id="Rectangle_37160" data-name="Rectangle 37160" d="M-.75-.75H18.87v19.5H-.75ZM17.8.367H.322V17.635H17.8Z" transform="translate(0.75 37.329)" fill="#12263f"/>
            <path id="Rectangle_37161" data-name="Rectangle 37161" d="M-.75-.75H18.87v19.5H-.75ZM17.8.367H.322V17.635H17.8Z" transform="translate(0.75 55.619)" fill="#12263f"/>
            <path id="Rectangle_37162" data-name="Rectangle 37162" d="M-.75-.75H18.87v19.5H-.75ZM17.8.367H.322V17.635H17.8Z" transform="translate(0.75 73.908)" fill="#12263f"/>
            <path id="Rectangle_37163" data-name="Rectangle 37163" d="M-.75-.75H18.87v19.5H-.75ZM17.8.367H.322V17.635H17.8Z" transform="translate(0.75 92.198)" fill="#12263f"/>
          </g>
          <g id="Group_108071" data-name="Group 108071" transform="translate(106.657)">
            <path id="Rectangle_37164" data-name="Rectangle 37164" d="M-.75-.75H18.87v19.5H-.75ZM17.8.367H.322V17.635H17.8Z" transform="translate(0.75 0.75)" fill="#12263f"/>
            <path id="Rectangle_37165" data-name="Rectangle 37165" d="M-.75-.75H18.87v19.5H-.75ZM17.8.367H.322V17.635H17.8Z" transform="translate(0.75 19.04)" fill="#12263f"/>
            <path id="Rectangle_37166" data-name="Rectangle 37166" d="M-.75-.75H18.87v19.5H-.75ZM17.8.367H.322V17.635H17.8Z" transform="translate(0.75 37.329)" fill="#12263f"/>
            <path id="Rectangle_37167" data-name="Rectangle 37167" d="M-.75-.75H18.87v19.5H-.75ZM17.8.367H.322V17.635H17.8Z" transform="translate(0.75 55.619)" fill="#12263f"/>
            <path id="Rectangle_37168" data-name="Rectangle 37168" d="M-.75-.75H18.87v19.5H-.75ZM17.8.367H.322V17.635H17.8Z" transform="translate(0.75 73.908)" fill="#12263f"/>
            <path id="Rectangle_37169" data-name="Rectangle 37169" d="M-.75-.75H18.87v19.5H-.75ZM17.8.367H.322V17.635H17.8Z" transform="translate(0.75 92.198)" fill="#12263f"/>
          </g>
          <g id="Group_108072" data-name="Group 108072" transform="translate(35.553 54.869)">
            <path id="Rectangle_37170" data-name="Rectangle 37170" d="M-.75-.75H18.87v19.5H-.75ZM17.8.367H.322V17.635H17.8Z" transform="translate(0.75 0.75)" fill="#12263f"/>
            <path id="Rectangle_37171" data-name="Rectangle 37171" d="M-.75-.75H18.87v19.5H-.75ZM17.8.367H.322V17.635H17.8Z" transform="translate(0.75 19.04)" fill="#12263f"/>
            <path id="Rectangle_37172" data-name="Rectangle 37172" d="M-.75-.75H18.87v19.5H-.75ZM17.8.367H.322V17.635H17.8Z" transform="translate(0.75 37.329)" fill="#12263f"/>
          </g>
          <g id="Group_108073" data-name="Group 108073" transform="translate(71.105 54.869)">
            <path id="Rectangle_37173" data-name="Rectangle 37173" d="M-.75-.75H18.87v19.5H-.75ZM17.8.367H.322V17.635H17.8Z" transform="translate(0.75 0.75)" fill="#12263f"/>
            <path id="Rectangle_37174" data-name="Rectangle 37174" d="M-.75-.75H18.87v19.5H-.75ZM17.8.367H.322V17.635H17.8Z" transform="translate(0.75 19.04)" fill="#12263f"/>
            <path id="Rectangle_37175" data-name="Rectangle 37175" d="M-.75-.75H18.87v19.5H-.75ZM17.8.367H.322V17.635H17.8Z" transform="translate(0.75 37.329)" fill="#12263f"/>
          </g>
          <g id="Group_108074" data-name="Group 108074" transform="translate(36.239 17.577)">
            <path id="Rectangle_37176" data-name="Rectangle 37176" d="M0,0H20.452V18.709H0ZM19.335,1.072H1.117V17.637H19.335Z" transform="translate(0 20.452) rotate(-90)" fill="#12263f"/>
            <path id="Rectangle_37177" data-name="Rectangle 37177" d="M0,0H20.452V18.709H0ZM19.335,1.072H1.117V17.637H19.335Z" transform="translate(17.546 20.452) rotate(-90)" fill="#12263f"/>
            <path id="Rectangle_37178" data-name="Rectangle 37178" d="M0,0H20.452V18.709H0ZM19.335,1.072H1.117V17.637H19.335Z" transform="translate(35.091 20.452) rotate(-90)" fill="#12263f"/>
          </g>
          <path id="Path_156857" data-name="Path 156857" d="M351.628-376.9H280.214a.548.548,0,0,1-.536-.559V-411.3a.548.548,0,0,1,.536-.559h71.414a.548.548,0,0,1,.536.559v33.837a.548.548,0,0,1-.536.559Zm-70.877-1.117h70.341v-32.72H280.75Z" transform="translate(-254.637 424.044)" fill="#c4337d"/>
          <path id="Line_182" data-name="Line 182" d="M-.214,67.211a.548.548,0,0,1-.536-.559V-.191A.548.548,0,0,1-.214-.75a.548.548,0,0,1,.536.559V66.654A.548.548,0,0,1-.214,67.211Z" transform="translate(25.791 43.737)" fill="#c4337d"/>
          <path id="Line_183" data-name="Line 183" d="M-.214,67.211a.548.548,0,0,1-.536-.559V-.191A.548.548,0,0,1-.214-.75a.548.548,0,0,1,.536.559V66.654A.548.548,0,0,1-.214,67.211Z" transform="translate(97.205 43.737)" fill="#c4337d"/>
          <path id="Line_184" data-name="Line 184" d="M-.214,64.175a.548.548,0,0,1-.536-.559V-.191A.548.548,0,0,1-.214-.75a.548.548,0,0,1,.536.559V63.616a.548.548,0,0,1-.536.559Z" transform="translate(61.498 46.775)" fill="#c4337d"/>
        </g>
      </g>
      <g id="t1-l2" transform="translate(984.621 14222.711)">
        <path id="Rectangle_37179" data-name="Rectangle 37179" d="M1.429,1.49V140.018h152.9V1.49H1.429M0,0H155.757V141.508H0Z" transform="translate(0)" fill="#12263f"/>
        <rect id="Rectangle_37180" data-name="Rectangle 37180" width="107.373" height="18.997" transform="translate(23.639 21.746)" fill="#ba68c8"/>
        <rect id="Rectangle_37181" data-name="Rectangle 37181" width="107.373" height="18.997" transform="translate(23.639 59.74)" fill="#ba68c8"/>
        <rect id="Rectangle_37182" data-name="Rectangle 37182" width="107.373" height="18.997" transform="translate(23.639 97.733)" fill="#ba68c8"/>
        <path id="Path_156862" data-name="Path 156862" d="M2.69-6.048v2.985H1.016v-8.472h3.17a3.541,3.541,0,0,1,1.61.349,2.505,2.505,0,0,1,1.067.992A2.857,2.857,0,0,1,7.237-8.73a2.481,2.481,0,0,1-.815,1.963,3.311,3.311,0,0,1-2.263.719Zm0-1.415h1.5A1.431,1.431,0,0,0,5.2-7.788a1.212,1.212,0,0,0,.349-.931A1.433,1.433,0,0,0,5.2-9.726a1.285,1.285,0,0,0-.971-.4H2.69Zm9.032,4.4a1.926,1.926,0,0,1-.162-.565,1.916,1.916,0,0,1-1.524.681,2.09,2.09,0,0,1-1.471-.535,1.754,1.754,0,0,1-.583-1.35A1.807,1.807,0,0,1,8.7-6.367a3.4,3.4,0,0,1,2.057-.541h.74v-.36a1.067,1.067,0,0,0-.214-.7.826.826,0,0,0-.678-.262.934.934,0,0,0-.639.2.706.706,0,0,0-.231.559H8.116a1.737,1.737,0,0,1,.324-1.012,2.156,2.156,0,0,1,.915-.73,3.218,3.218,0,0,1,1.328-.264,2.564,2.564,0,0,1,1.772.585,2.089,2.089,0,0,1,.656,1.644v2.729a3.122,3.122,0,0,0,.24,1.355v.1ZM10.388-4.232a1.344,1.344,0,0,0,.659-.166,1.065,1.065,0,0,0,.447-.447V-5.926h-.6q-1.215,0-1.286.873l-.006.1a.684.684,0,0,0,.214.521A.8.8,0,0,0,10.388-4.232Zm7.359-3.55a4.208,4.208,0,0,0-.58-.046,1.17,1.17,0,0,0-1.2.646v4.119H14.351v-6.3h1.524l.045.751a1.49,1.49,0,0,1,1.345-.867,1.627,1.627,0,0,1,.5.074Zm4.17,0a4.208,4.208,0,0,0-.58-.046,1.17,1.17,0,0,0-1.2.646v4.119H18.521v-6.3h1.524l.045.751a1.49,1.49,0,0,1,1.345-.867,1.627,1.627,0,0,1,.5.074Zm2.476,4.719H22.774v-6.3h1.619Zm-1.715-7.925a.847.847,0,0,1,.243-.623.89.89,0,0,1,.662-.241.892.892,0,0,1,.659.244.841.841,0,0,1,.246.623.843.843,0,0,1-.249.629.9.9,0,0,1-.656.244.9.9,0,0,1-.656-.244.843.843,0,0,1-.247-.632Zm4.746,7.925H25.805V-12h1.619Zm3.031,0H28.836V-12h1.619Zm4.828,0a1.927,1.927,0,0,1-.162-.565,1.916,1.916,0,0,1-1.524.681,2.09,2.09,0,0,1-1.471-.535,1.754,1.754,0,0,1-.583-1.35,1.807,1.807,0,0,1,.714-1.536,3.4,3.4,0,0,1,2.057-.541h.742v-.36a1.067,1.067,0,0,0-.214-.7.826.826,0,0,0-.678-.262.934.934,0,0,0-.639.2.706.706,0,0,0-.231.559H31.677A1.737,1.737,0,0,1,32-8.479a2.156,2.156,0,0,1,.915-.73,3.218,3.218,0,0,1,1.328-.264,2.564,2.564,0,0,1,1.77.584,2.089,2.089,0,0,1,.656,1.644v2.729a3.122,3.122,0,0,0,.24,1.355v.1ZM33.949-4.232a1.344,1.344,0,0,0,.659-.166,1.065,1.065,0,0,0,.447-.447V-5.926h-.6q-1.215,0-1.286.873l-.009.1a.684.684,0,0,0,.214.521.8.8,0,0,0,.578.2Z" transform="translate(59.087 137.254)" fill="#12263f"/>
        <g id="Group_108081" data-name="Group 108081" transform="translate(13.004 7.875)">
          <g id="Group_108077" data-name="Group 108077" transform="translate(10.98 12.914)">
            <path id="Rectangle_37183" data-name="Rectangle 37183" d="M0,0H20.762V19H0ZM19.571,1.143H1.192V17.852H19.571Z" transform="translate(0 20.762) rotate(-90)" fill="#12263f"/>
            <path id="Rectangle_37184" data-name="Rectangle 37184" d="M0,0H20.762V19H0ZM19.571,1.143H1.192V17.852H19.571Z" transform="translate(17.758 20.762) rotate(-90)" fill="#12263f"/>
            <path id="Rectangle_37185" data-name="Rectangle 37185" d="M0,0H20.762V19H0ZM19.571,1.143H1.192V17.852H19.571Z" transform="translate(35.518 20.762) rotate(-90)" fill="#12263f"/>
            <path id="Rectangle_37186" data-name="Rectangle 37186" d="M0,0H20.762V19H0ZM19.571,1.143H1.192V17.852H19.571Z" transform="translate(53.277 20.762) rotate(-90)" fill="#12263f"/>
            <path id="Rectangle_37187" data-name="Rectangle 37187" d="M0,0H20.762V19H0ZM19.571,1.143H1.192V17.852H19.571Z" transform="translate(71.036 20.762) rotate(-90)" fill="#12263f"/>
            <path id="Rectangle_37188" data-name="Rectangle 37188" d="M0,0H20.762V19H0ZM19.571,1.143H1.192V17.852H19.571Z" transform="translate(88.795 20.762) rotate(-90)" fill="#12263f"/>
          </g>
          <g id="Group_108078" data-name="Group 108078" transform="translate(10.98 51.077)">
            <path id="Rectangle_37189" data-name="Rectangle 37189" d="M0,0H20.762V19H0ZM19.571,1.143H1.192V17.852H19.571Z" transform="translate(0 20.762) rotate(-90)" fill="#12263f"/>
            <path id="Rectangle_37190" data-name="Rectangle 37190" d="M0,0H20.762V19H0ZM19.571,1.143H1.192V17.852H19.571Z" transform="translate(17.758 20.762) rotate(-90)" fill="#12263f"/>
            <path id="Rectangle_37191" data-name="Rectangle 37191" d="M0,0H20.762V19H0ZM19.571,1.143H1.192V17.852H19.571Z" transform="translate(35.518 20.762) rotate(-90)" fill="#12263f"/>
            <path id="Rectangle_37192" data-name="Rectangle 37192" d="M0,0H20.762V19H0ZM19.571,1.143H1.192V17.852H19.571Z" transform="translate(53.277 20.762) rotate(-90)" fill="#12263f"/>
            <path id="Rectangle_37193" data-name="Rectangle 37193" d="M0,0H20.762V19H0ZM19.571,1.143H1.192V17.852H19.571Z" transform="translate(71.036 20.762) rotate(-90)" fill="#12263f"/>
            <path id="Rectangle_37194" data-name="Rectangle 37194" d="M0,0H20.762V19H0ZM19.571,1.143H1.192V17.852H19.571Z" transform="translate(88.795 20.762) rotate(-90)" fill="#12263f"/>
          </g>
          <g id="Group_108079" data-name="Group 108079" transform="translate(10.98 89.24)">
            <path id="Rectangle_37195" data-name="Rectangle 37195" d="M0,0H20.762V19H0ZM19.571,1.143H1.192V17.852H19.571Z" transform="translate(0 20.762) rotate(-90)" fill="#12263f"/>
            <path id="Rectangle_37196" data-name="Rectangle 37196" d="M0,0H20.762V19H0ZM19.571,1.143H1.192V17.852H19.571Z" transform="translate(17.758 20.762) rotate(-90)" fill="#12263f"/>
            <path id="Rectangle_37197" data-name="Rectangle 37197" d="M0,0H20.762V19H0ZM19.571,1.143H1.192V17.852H19.571Z" transform="translate(35.518 20.762) rotate(-90)" fill="#12263f"/>
            <path id="Rectangle_37198" data-name="Rectangle 37198" d="M0,0H20.762V19H0ZM19.571,1.143H1.192V17.852H19.571Z" transform="translate(53.277 20.762) rotate(-90)" fill="#12263f"/>
            <path id="Rectangle_37199" data-name="Rectangle 37199" d="M0,0H20.762V19H0ZM19.571,1.143H1.192V17.852H19.571Z" transform="translate(71.036 20.762) rotate(-90)" fill="#12263f"/>
            <path id="Rectangle_37200" data-name="Rectangle 37200" d="M0,0H20.762V19H0ZM19.571,1.143H1.192V17.852H19.571Z" transform="translate(88.795 20.762) rotate(-90)" fill="#12263f"/>
          </g>
          <g id="Group_108080" data-name="Group 108080" transform="translate(5.847 5.116)">
            <path id="Path_156858" data-name="Path 156858" d="M368.083-174.584H250.74a.365.365,0,0,1-.357-.372v-35.228a.365.365,0,0,1,.357-.372H368.083a.365.365,0,0,1,.357.372v35.228A.365.365,0,0,1,368.083-174.584ZM251.1-175.329H367.726v-34.483H251.1Z" transform="translate(-250.383 210.557)" fill="#c4337d"/>
            <path id="Path_156859" data-name="Path 156859" d="M250.74-163.257H368.083a.365.365,0,0,1,.357.372v41.1a.365.365,0,0,1-.357.372H250.74a.365.365,0,0,1-.357-.372v-41.1A.365.365,0,0,1,250.74-163.257Zm116.985.745H251.1v40.354H367.726Z" transform="translate(-250.383 198.485)" fill="#c4337d"/>
            <path id="Line_185" data-name="Line 185" d="M-.143,67.9A.365.365,0,0,1-.5,67.532V-.128A.365.365,0,0,1-.143-.5a.365.365,0,0,1,.357.372V67.532A.365.365,0,0,1-.143,67.9Z" transform="translate(0.5 35.588)" fill="#c4337d"/>
            <path id="Line_186" data-name="Line 186" d="M-.143,67.9A.365.365,0,0,1-.5,67.532V-.128A.365.365,0,0,1-.143-.5a.365.365,0,0,1,.357.372V67.532A.365.365,0,0,1-.143,67.9Z" transform="translate(117.843 35.588)" fill="#c4337d"/>
          </g>
          <path id="Path_156860" data-name="Path 156860" d="M371.95-105.277h-1.143V-216.234H243.343v110.958H242.2V-217.426H371.95Z" transform="translate(-242.2 217.426)" fill="#12263f"/>
        </g>
      </g>
      <g id="t1-l3" transform="translate(1159.242 14222.711)">
        <path id="Rectangle_37201" data-name="Rectangle 37201" d="M1.429,1.49V140.018h152.9V1.49H1.429M0,0H155.757V141.508H0Z" transform="translate(0)" fill="#12263f"/>
        <path id="Path_156863" data-name="Path 156863" d="M5.33-4.808H2.394L1.835-3.063H.055L3.08-11.535H4.632L7.674-3.063H5.894ZM2.846-6.224H4.874L3.856-9.393Zm6.7-3.136.05.728a2.076,2.076,0,0,1,1.736-.844,1.716,1.716,0,0,1,1.429.588,2.827,2.827,0,0,1,.48,1.757v4.069H11.626V-7.089a1.123,1.123,0,0,0-.223-.777.973.973,0,0,0-.742-.241A1.1,1.1,0,0,0,9.64-7.5v4.439H8.026v-6.3Zm4.683,3.1a3.8,3.8,0,0,1,.662-2.333,2.112,2.112,0,0,1,1.786-.884,1.847,1.847,0,0,1,1.546.71l.067-.6h1.463v6.09a2.78,2.78,0,0,1-.357,1.437A2.345,2.345,0,0,1,18.378-.9a3.437,3.437,0,0,1-1.53.32,3.2,3.2,0,0,1-1.295-.276,2.3,2.3,0,0,1-.958-.714L15.31-2.6a1.859,1.859,0,0,0,1.463.7,1.349,1.349,0,0,0,1-.357,1.374,1.374,0,0,0,.357-1.015V-3.6a1.832,1.832,0,0,1-1.467.658A2.107,2.107,0,0,1,14.9-3.834a3.8,3.8,0,0,1-.672-2.353Zm1.613.125a2.374,2.374,0,0,0,.329,1.341,1.035,1.035,0,0,0,.9.486,1.109,1.109,0,0,0,1.055-.577V-7.531a1.107,1.107,0,0,0-1.044-.577,1.043,1.043,0,0,0-.912.5,2.678,2.678,0,0,0-.334,1.481ZM24.6-3.7a1.987,1.987,0,0,1-1.653.756,1.865,1.865,0,0,1-1.482-.582,2.555,2.555,0,0,1-.522-1.7V-9.358h1.613v4.072q0,.985.857.985a1.151,1.151,0,0,0,1.127-.6v-4.46h1.62v6.3H24.649Zm4.483.64H27.468V-12h1.619Zm4.828,0a1.926,1.926,0,0,1-.162-.565,1.916,1.916,0,0,1-1.524.681,2.09,2.09,0,0,1-1.471-.535,1.754,1.754,0,0,1-.583-1.35,1.807,1.807,0,0,1,.714-1.536,3.4,3.4,0,0,1,2.057-.541h.742v-.36a1.067,1.067,0,0,0-.214-.7.826.826,0,0,0-.678-.262.934.934,0,0,0-.639.2.706.706,0,0,0-.231.559H30.31a1.737,1.737,0,0,1,.324-1.012,2.156,2.156,0,0,1,.915-.73,3.218,3.218,0,0,1,1.328-.264,2.564,2.564,0,0,1,1.772.585A2.089,2.089,0,0,1,35.3-7.245v2.729a3.122,3.122,0,0,0,.24,1.355v.1ZM32.58-4.232a1.344,1.344,0,0,0,.659-.166,1.065,1.065,0,0,0,.447-.447V-5.926h-.6q-1.215,0-1.286.873l-.006.1a.684.684,0,0,0,.214.521A.8.8,0,0,0,32.58-4.232Zm7.359-3.55a4.208,4.208,0,0,0-.58-.046,1.17,1.17,0,0,0-1.2.646v4.119H36.544v-6.3h1.524l.045.751a1.49,1.49,0,0,1,1.343-.867,1.627,1.627,0,0,1,.5.074Z" transform="translate(57.824 137.254)" fill="#12263f"/>
        <g id="Group_108088" data-name="Group 108088" transform="translate(17.619 3.163)">
          <path id="Rectangle_37202" data-name="Rectangle 37202" d="M0,0,13.766.163l.6,52.716L.6,52.716Z" transform="matrix(0.956, 0.293, -0.293, 0.956, 23.336, 18.975)" fill="#64b5f6"/>
          <path id="Rectangle_37202_-_Outline" data-name="Rectangle 37202 - Outline" d="M0,0,14.915.176l.616,53.9L.616,53.9ZM13.781,1.35,1.161,1.2l.589,51.528,12.621.149Z" transform="matrix(0.956, 0.293, -0.293, 0.956, 22.956, 18.23)" fill="#12263f"/>
          <path id="Rectangle_37203" data-name="Rectangle 37203" d="M0,0,13.766.163l1,87.623L1,87.623Z" transform="matrix(0.956, 0.293, -0.293, 0.956, 53.072, 10.52)" fill="#64b5f6"/>
          <path id="Rectangle_37203_-_Outline" data-name="Rectangle 37203 - Outline" d="M0,0,14.915.176l1.014,88.81L1.014,88.81ZM13.781,1.35,1.161,1.2l.987,86.435,12.621.149Z" transform="matrix(0.956, 0.293, -0.293, 0.956, 52.693, 9.776)" fill="#12263f"/>
          <path id="Rectangle_37204" data-name="Rectangle 37204" d="M0,0,13.766.163l1,87.623L1,87.623Z" transform="matrix(0.956, 0.293, -0.293, 0.956, 78.647, 18.68)" fill="#64b5f6"/>
          <path id="Rectangle_37204_-_Outline" data-name="Rectangle 37204 - Outline" d="M0,0,14.915.176l1.014,88.81L1.014,88.81ZM13.781,1.35,1.161,1.2l.987,86.435,12.621.149Z" transform="matrix(0.956, 0.293, -0.293, 0.956, 78.267, 17.935)" fill="#12263f"/>
          <path id="Rectangle_37205" data-name="Rectangle 37205" d="M0,0,13.766.163l1,87.623L1,87.623Z" transform="matrix(0.956, 0.293, -0.293, 0.956, 103.566, 26.63)" fill="#64b5f6"/>
          <path id="Rectangle_37205_-_Outline" data-name="Rectangle 37205 - Outline" d="M0,0,14.915.176l1.014,88.81L1.014,88.81ZM13.781,1.35,1.161,1.2l.987,86.435,12.621.149Z" transform="matrix(0.956, 0.293, -0.293, 0.956, 103.186, 25.886)" fill="#12263f"/>
          <g id="Group_108087" data-name="Group 108087">
            <g id="Group_108083" data-name="Group 108083" transform="translate(27.726 9.635)">
              <path id="Rectangle_37206" data-name="Rectangle 37206" d="M0,0,14.861.176l.214,18.7L.214,18.7ZM13.8,1.276l-12.71-.15L1.276,17.6l12.71.15Z" transform="matrix(0.956, 0.293, -0.293, 0.956, 25.24, 0)" fill="#12263f"/>
              <path id="Rectangle_37207" data-name="Rectangle 37207" d="M0,0,14.861.176l.214,18.7L.214,18.7ZM13.8,1.276l-12.71-.15L1.276,17.6l12.71.15Z" transform="matrix(0.956, 0.293, -0.293, 0.956, 20.311, 16.787)" fill="#12263f"/>
              <path id="Rectangle_37208" data-name="Rectangle 37208" d="M0,0,14.861.176l.214,18.7L.214,18.7ZM13.8,1.276l-12.71-.15L1.276,17.6l12.71.15Z" transform="matrix(0.956, 0.293, -0.293, 0.956, 15.382, 33.573)" fill="#12263f"/>
              <path id="Rectangle_37209" data-name="Rectangle 37209" d="M0,0,14.861.176l.214,18.7L.214,18.7ZM13.8,1.276l-12.71-.15L1.276,17.6l12.71.15Z" transform="matrix(0.956, 0.293, -0.293, 0.956, 10.453, 50.36)" fill="#12263f"/>
              <path id="Rectangle_37210" data-name="Rectangle 37210" d="M0,0,14.861.176l.214,18.7L.214,18.7ZM13.8,1.276l-12.71-.15L1.276,17.6l12.71.15Z" transform="matrix(0.956, 0.293, -0.293, 0.956, 5.524, 67.145)" fill="#12263f"/>
            </g>
            <g id="Group_108084" data-name="Group 108084" transform="translate(53.022 17.706)">
              <path id="Rectangle_37211" data-name="Rectangle 37211" d="M0,0,14.861.176l.214,18.7L.214,18.7ZM13.8,1.276l-12.71-.15L1.276,17.6l12.71.15Z" transform="matrix(0.956, 0.293, -0.293, 0.956, 25.24, 0)" fill="#12263f"/>
              <path id="Rectangle_37212" data-name="Rectangle 37212" d="M0,0,14.861.176l.214,18.7L.214,18.7ZM13.8,1.276l-12.71-.15L1.276,17.6l12.71.15Z" transform="matrix(0.956, 0.293, -0.293, 0.956, 20.311, 16.787)" fill="#12263f"/>
              <path id="Rectangle_37213" data-name="Rectangle 37213" d="M0,0,14.861.176l.214,18.7L.214,18.7ZM13.8,1.276l-12.71-.15L1.276,17.6l12.71.15Z" transform="matrix(0.956, 0.293, -0.293, 0.956, 15.382, 33.572)" fill="#12263f"/>
              <path id="Rectangle_37214" data-name="Rectangle 37214" d="M0,0,14.861.176l.214,18.7L.214,18.7ZM13.8,1.276l-12.71-.15L1.276,17.6l12.71.15Z" transform="matrix(0.956, 0.293, -0.293, 0.956, 10.453, 50.359)" fill="#12263f"/>
              <path id="Rectangle_37215" data-name="Rectangle 37215" d="M0,0,14.861.176l.214,18.7L.214,18.7ZM13.8,1.276l-12.71-.15L1.276,17.6l12.71.15Z" transform="matrix(0.956, 0.293, -0.293, 0.956, 5.524, 67.145)" fill="#12263f"/>
            </g>
            <g id="Group_108085" data-name="Group 108085" transform="translate(7.481 18.39)">
              <path id="Rectangle_37216" data-name="Rectangle 37216" d="M0,0,14.861.176l.214,18.7L.214,18.7ZM13.8,1.276l-12.71-.15L1.276,17.6l12.71.15Z" transform="matrix(0.956, 0.293, -0.293, 0.956, 15.382, 0)" fill="#12263f"/>
              <path id="Rectangle_37217" data-name="Rectangle 37217" d="M0,0,14.861.176l.214,18.7L.214,18.7ZM13.8,1.276l-12.71-.15L1.276,17.6l12.71.15Z" transform="matrix(0.956, 0.293, -0.293, 0.956, 10.453, 16.786)" fill="#12263f"/>
              <path id="Rectangle_37218" data-name="Rectangle 37218" d="M0,0,14.861.176l.214,18.7L.214,18.7ZM13.8,1.276l-12.71-.15L1.276,17.6l12.71.15Z" transform="matrix(0.956, 0.293, -0.293, 0.956, 5.524, 33.572)" fill="#12263f"/>
            </g>
            <path id="Line_187" data-name="Line 187" d="M-.215,61.718a.516.516,0,0,1-.157-.025.541.541,0,0,1-.318-.272A.58.58,0,0,1-.729,61L17.29-.356a.554.554,0,0,1,.261-.331.516.516,0,0,1,.409-.041.541.541,0,0,1,.318.272.58.58,0,0,1,.04.426L.3,61.327a.539.539,0,0,1-.512.392Z" transform="translate(26.296 19.977)" fill="#c4337d"/>
            <path id="Line_188" data-name="Line 188" d="M-.215,61.718a.516.516,0,0,1-.157-.025.541.541,0,0,1-.318-.272A.58.58,0,0,1-.729,61L17.29-.356a.554.554,0,0,1,.261-.331.516.516,0,0,1,.409-.041.541.541,0,0,1,.318.272.58.58,0,0,1,.04.426L.3,61.327a.539.539,0,0,1-.512.392Z" transform="translate(51.591 28.048)" fill="#c4337d"/>
            <path id="Line_189" data-name="Line 189" d="M63.024,20.544a.516.516,0,0,1-.157-.025L-.372.342A.541.541,0,0,1-.69.07a.58.58,0,0,1-.04-.426A.554.554,0,0,1-.469-.687.516.516,0,0,1-.06-.728L63.179,19.448a.56.56,0,0,1,.373.616.543.543,0,0,1-.529.476Z" transform="translate(49.956 0.753)" fill="#c4337d"/>
            <path id="Line_190" data-name="Line 190" d="M63.024,20.544a.516.516,0,0,1-.157-.025L-.372.342A.541.541,0,0,1-.69.07a.58.58,0,0,1-.04-.426A.554.554,0,0,1-.469-.687.516.516,0,0,1-.06-.728L63.179,19.448a.56.56,0,0,1,.373.616.543.543,0,0,1-.529.476Z" transform="translate(20.671 100.485)" fill="#c4337d"/>
            <path id="Line_191" data-name="Line 191" d="M-.215,61.718a.516.516,0,0,1-.157-.025.541.541,0,0,1-.318-.272A.58.58,0,0,1-.729,61L17.29-.356a.554.554,0,0,1,.261-.331.516.516,0,0,1,.409-.041.541.541,0,0,1,.318.272.58.58,0,0,1,.04.426L.3,61.327a.539.539,0,0,1-.512.392Z" transform="translate(76.887 36.119)" fill="#c4337d"/>
            <path id="Line_192" data-name="Line 192" d="M-.215,58.93a.516.516,0,0,1-.157-.025.541.541,0,0,1-.318-.272.58.58,0,0,1-.04-.426L16.469-.356a.554.554,0,0,1,.261-.331.516.516,0,0,1,.409-.041.541.541,0,0,1,.318.272.58.58,0,0,1,.04.426L.3,58.534A.539.539,0,0,1-.215,58.93Z" transform="translate(0.753 13.091)" fill="#c4337d"/>
            <g id="Group_108086" data-name="Group 108086" transform="translate(78.317 25.777)">
              <path id="Rectangle_37219" data-name="Rectangle 37219" d="M0,0,14.861.176l.214,18.7L.214,18.7ZM13.8,1.276l-12.71-.15L1.276,17.6l12.71.15Z" transform="matrix(0.956, 0.293, -0.293, 0.956, 25.24, 0)" fill="#12263f"/>
              <path id="Rectangle_37220" data-name="Rectangle 37220" d="M0,0,14.861.176l.214,18.7L.214,18.7ZM13.8,1.276l-12.71-.15L1.276,17.6l12.71.15Z" transform="matrix(0.956, 0.293, -0.293, 0.956, 20.311, 16.787)" fill="#12263f"/>
              <path id="Rectangle_37221" data-name="Rectangle 37221" d="M0,0,14.861.176l.214,18.7L.214,18.7ZM13.8,1.276l-12.71-.15L1.276,17.6l12.71.15Z" transform="matrix(0.956, 0.293, -0.293, 0.956, 15.382, 33.573)" fill="#12263f"/>
              <path id="Rectangle_37222" data-name="Rectangle 37222" d="M0,0,14.861.176l.214,18.7L.214,18.7ZM13.8,1.276l-12.71-.15L1.276,17.6l12.71.15Z" transform="matrix(0.956, 0.293, -0.293, 0.956, 10.453, 50.36)" fill="#12263f"/>
              <path id="Rectangle_37223" data-name="Rectangle 37223" d="M0,0,14.861.176l.214,18.7L.214,18.7ZM13.8,1.276l-12.71-.15L1.276,17.6l12.71.15Z" transform="matrix(0.956, 0.293, -0.293, 0.956, 5.524, 67.145)" fill="#12263f"/>
            </g>
            <path id="Line_193" data-name="Line 193" d="M-.215,61.718a.516.516,0,0,1-.157-.025.541.541,0,0,1-.318-.272A.58.58,0,0,1-.729,61L17.29-.356a.554.554,0,0,1,.261-.331.516.516,0,0,1,.409-.041.541.541,0,0,1,.318.272.58.58,0,0,1,.04.426L.3,61.327a.539.539,0,0,1-.512.392Z" transform="translate(102.182 44.19)" fill="#c4337d"/>
          </g>
        </g>
      </g>
    </g>
  </g>
</svg>
