<svg xmlns="http://www.w3.org/2000/svg" width="400" height="279.151" viewBox="0 0 400 279.151">
  <g id="Grupo_1099731" data-name="Grupo 1099731" transform="translate(-915 -4260.422)">
    <g id="t2-s3" transform="translate(992.625 13444.047)">
      <rect id="Rectangle_37266" data-name="Rectangle 37266" width="398.138" height="277.289" transform="translate(-76.694 -9182.693)" fill="#fffee6"/>
      <path id="Rectangle_37266_-_Outline" data-name="Rectangle 37266 - Outline" d="M-1.125-1.125h400V278.027h-400ZM397.013.737H.737V276.164H397.013Z" transform="translate(-76.5 -9182.5)" fill="#12263f"/>
      <path id="Path_156866" data-name="Path 156866" d="M6.936-4.508H3.11L2.382-2.326H.062L4-12.921H6.027L9.992-2.326H7.675ZM3.7-6.276H6.348L5.016-10.24ZM12.466-10.2l.065.88a2.766,2.766,0,0,1,2.262-1.026,2.1,2.1,0,0,1,2.088,1.2,2.7,2.7,0,0,1,2.364-1.2,2.347,2.347,0,0,1,1.9.745,3.428,3.428,0,0,1,.632,2.246v5.027H19.668V-7.345a1.5,1.5,0,0,0-.262-.978,1.159,1.159,0,0,0-.924-.31,1.312,1.312,0,0,0-1.309.9l.007,5.405h-2.1V-7.338a1.481,1.481,0,0,0-.269-.993,1.172,1.172,0,0,0-.915-.3,1.362,1.362,0,0,0-1.295.745v5.562h-2.1V-10.2ZM30.479-6.189a4.718,4.718,0,0,1-.828,2.914,2.649,2.649,0,0,1-2.228,1.1,2.453,2.453,0,0,1-1.928-.828V.7h-2.1V-10.2h1.947l.073.771a2.471,2.471,0,0,1,2-.917,2.665,2.665,0,0,1,2.262,1.076A4.849,4.849,0,0,1,30.479-6.3Zm-2.1-.153a3.1,3.1,0,0,0-.388-1.7,1.268,1.268,0,0,0-1.132-.6,1.377,1.377,0,0,0-1.361.757v3.223a1.4,1.4,0,0,0,1.375.778q1.506,0,1.506-2.466ZM34-2.326H31.89V-13.5H34Zm3.95,0H35.84V-10.2h2.11Zm-2.235-9.909a1.035,1.035,0,0,1,.316-.778,1.189,1.189,0,0,1,.862-.305,1.192,1.192,0,0,1,.858.305,1.03,1.03,0,0,1,.32.778,1.032,1.032,0,0,1-.324.786,1.194,1.194,0,0,1-.855.305,1.194,1.194,0,0,1-.855-.305,1.032,1.032,0,0,1-.322-.786Zm6.482.1V-10.2h1.346v1.542H42.2v3.929a.938.938,0,0,0,.166.626.84.84,0,0,0,.64.19,3.353,3.353,0,0,0,.618-.051V-2.37a4.328,4.328,0,0,1-1.273.19,2.007,2.007,0,0,1-1.676-.564,2.007,2.007,0,0,1-.579-1.671v-4.24H38.946V-10.2H40.1v-1.935Zm7.229,9.007a2.636,2.636,0,0,1-2.152.946,2.483,2.483,0,0,1-1.929-.725,3.106,3.106,0,0,1-.68-2.131V-10.2h2.1v5.091q0,1.231,1.121,1.231a1.518,1.518,0,0,0,1.469-.745V-10.2h2.11v7.872H49.487Zm3.3-3.193a4.744,4.744,0,0,1,.828-2.932,2.679,2.679,0,0,1,2.259-1.091,2.411,2.411,0,0,1,1.9.858V-13.5h2.11V-2.326h-1.9l-.1-.837A2.474,2.474,0,0,1,55.8-2.18a2.672,2.672,0,0,1-2.231-1.1,4.9,4.9,0,0,1-.839-3.044Zm2.1.156a3.107,3.107,0,0,0,.386,1.7,1.256,1.256,0,0,0,1.121.59A1.407,1.407,0,0,0,57.705-4.7V-7.809a1.386,1.386,0,0,0-1.361-.824q-1.516,0-1.516,2.47Z" transform="translate(109.682 -9153.053)" fill="#12263f"/>
      <path id="Path_156867" data-name="Path 156867" d="M2.182,7.6v3.732H0V.738H4.132a4.781,4.781,0,0,1,2.1.436A3.217,3.217,0,0,1,7.624,2.416a3.458,3.458,0,0,1,.488,1.829A3.041,3.041,0,0,1,7.046,6.7a4.439,4.439,0,0,1-2.95.9Zm0-1.768h1.95a1.917,1.917,0,0,0,1.324-.407,1.482,1.482,0,0,0,.454-1.164A1.747,1.747,0,0,0,5.452,3a1.712,1.712,0,0,0-1.266-.5h-2Zm11.712-.4a5.711,5.711,0,0,0-.757-.058,1.54,1.54,0,0,0-1.564.808v5.15h-2.1V3.461h1.987l.058.939a1.948,1.948,0,0,1,1.753-1.084,2.2,2.2,0,0,1,.655.094Zm.422,1.891a4.668,4.668,0,0,1,.451-2.088,3.3,3.3,0,0,1,1.3-1.419,3.789,3.789,0,0,1,1.968-.5,3.584,3.584,0,0,1,2.6.975A3.913,3.913,0,0,1,21.759,6.94l.015.538a4.114,4.114,0,0,1-1.011,2.906,3.515,3.515,0,0,1-2.713,1.094,3.533,3.533,0,0,1-2.717-1.091,4.187,4.187,0,0,1-1.015-2.968Zm2.1.149a2.943,2.943,0,0,0,.422,1.716,1.515,1.515,0,0,0,2.4.007,3.22,3.22,0,0,0,.43-1.876,2.913,2.913,0,0,0-.43-1.705,1.4,1.4,0,0,0-1.208-.605,1.372,1.372,0,0,0-1.193.6,3.274,3.274,0,0,0-.422,1.864Zm7.224,3.86V5H22.472V3.461h1.171v-.67A2.717,2.717,0,0,1,24.4.736,2.944,2.944,0,0,1,26.531.006,4.915,4.915,0,0,1,27.6.151l-.022,1.63a2.68,2.68,0,0,0-.64-.065q-1.186,0-1.186,1.113v.633h1.564V5H25.753v6.329Zm9.479-.8a2.636,2.636,0,0,1-2.152.946,2.483,2.483,0,0,1-1.933-.725,3.106,3.106,0,0,1-.682-2.134V3.461h2.1V8.553q0,1.231,1.121,1.231a1.518,1.518,0,0,0,1.469-.745V3.461h2.112v7.872H33.18Zm5.558-7.071.065.911a2.748,2.748,0,0,1,2.262-1.055,2.284,2.284,0,0,1,1.862.735,3.428,3.428,0,0,1,.626,2.2v5.084h-2.1V6.3a1.364,1.364,0,0,0-.291-.971,1.3,1.3,0,0,0-.968-.3,1.446,1.446,0,0,0-1.331.757v5.551H36.7V3.461Zm6.082,3.878a4.744,4.744,0,0,1,.828-2.932,2.679,2.679,0,0,1,2.259-1.091,2.411,2.411,0,0,1,1.9.858V.159h2.11V11.333h-1.9l-.1-.837a2.474,2.474,0,0,1-2.025.983,2.672,2.672,0,0,1-2.23-1.1,4.9,4.9,0,0,1-.84-3.044Zm2.1.156a3.107,3.107,0,0,0,.386,1.7,1.256,1.256,0,0,0,1.121.59,1.407,1.407,0,0,0,1.375-.824V5.849a1.386,1.386,0,0,0-1.36-.824Q46.865,5.026,46.865,7.5ZM55.7,11.333H53.595V3.461H55.7ZM53.469,1.424a1.035,1.035,0,0,1,.316-.778,1.365,1.365,0,0,1,1.721,0,1.03,1.03,0,0,1,.32.778,1.032,1.032,0,0,1-.324.786,1.35,1.35,0,0,1-1.71,0,1.032,1.032,0,0,1-.322-.786Zm3.638,5.915a4.744,4.744,0,0,1,.828-2.932,2.679,2.679,0,0,1,2.259-1.091,2.411,2.411,0,0,1,1.9.858V.159H64.2V11.333H62.3l-.1-.837a2.474,2.474,0,0,1-2.022.983,2.672,2.672,0,0,1-2.23-1.1,4.9,4.9,0,0,1-.84-3.044Zm2.1.156a3.107,3.107,0,0,0,.386,1.7,1.256,1.256,0,0,0,1.121.59A1.407,1.407,0,0,0,62.09,8.96V5.849a1.386,1.386,0,0,0-1.361-.824q-1.519,0-1.519,2.47Zm11.183,3.837a2.335,2.335,0,0,1-.211-.706,2.544,2.544,0,0,1-1.987.851,2.794,2.794,0,0,1-1.917-.67,2.152,2.152,0,0,1-.757-1.687,2.224,2.224,0,0,1,.928-1.92,4.577,4.577,0,0,1,2.681-.676H70.1V6.074a1.3,1.3,0,0,0-.28-.873,1.1,1.1,0,0,0-.884-.331,1.252,1.252,0,0,0-.833.255.865.865,0,0,0-.3.7H65.7a2.112,2.112,0,0,1,.422-1.266,2.789,2.789,0,0,1,1.193-.911,4.348,4.348,0,0,1,1.732-.331,3.435,3.435,0,0,1,2.31.731A2.558,2.558,0,0,1,72.208,6.1v3.41a3.763,3.763,0,0,0,.313,1.7v.126ZM68.654,9.87a1.811,1.811,0,0,0,.858-.207,1.362,1.362,0,0,0,.579-.556V7.754h-.786q-1.578,0-1.68,1.091l-.007.123a.842.842,0,0,0,.276.647,1.076,1.076,0,0,0,.758.255Zm4.837-2.531a4.744,4.744,0,0,1,.828-2.932,2.679,2.679,0,0,1,2.259-1.091,2.411,2.411,0,0,1,1.9.858V.159h2.111V11.333h-1.9l-.1-.837a2.474,2.474,0,0,1-2.022.983,2.672,2.672,0,0,1-2.23-1.1,4.9,4.9,0,0,1-.84-3.044Zm2.1.156a3.107,3.107,0,0,0,.386,1.7,1.256,1.256,0,0,0,1.121.59,1.407,1.407,0,0,0,1.375-.824V5.849a1.386,1.386,0,0,0-1.361-.824q-1.521,0-1.521,2.47Z" transform="translate(47.046 -8991.8) rotate(-90)" fill="#12263f"/>
      <g id="Group_108136" data-name="Group 108136" transform="translate(79.749 -9139.307)">
        <rect id="Rectangle_37267" data-name="Rectangle 37267" width="37.17" height="216.865" transform="translate(0.662 0.337)" fill="#64b5f6"/>
        <rect id="Rectangle_37268" data-name="Rectangle 37268" width="37.17" height="216.865" transform="translate(79.374 0.337)" fill="#ba68c8"/>
        <g id="Group_108134" data-name="Group 108134" transform="translate(0 0)">
          <path id="Rectangle_37269" data-name="Rectangle 37269" d="M-.8-.8H37.694V36.771H-.8ZM36.37.524H.524V35.447H36.37Z" transform="translate(0.8 0.8)" fill="#12263f"/>
          <path id="Rectangle_37270" data-name="Rectangle 37270" d="M-.8-.8H37.694V36.771H-.8ZM36.37.524H.524V35.447H36.37Z" transform="translate(0.8 36.858)" fill="#12263f"/>
          <path id="Rectangle_37271" data-name="Rectangle 37271" d="M-.8-.8H37.694V36.771H-.8ZM36.37.524H.524V35.447H36.37Z" transform="translate(0.8 72.917)" fill="#12263f"/>
          <path id="Rectangle_37272" data-name="Rectangle 37272" d="M-.8-.8H37.694V36.771H-.8ZM36.37.524H.524V35.447H36.37Z" transform="translate(0.8 108.976)" fill="#12263f"/>
          <path id="Rectangle_37273" data-name="Rectangle 37273" d="M-.8-.8H37.694V36.771H-.8ZM36.37.524H.524V35.447H36.37Z" transform="translate(0.8 145.034)" fill="#12263f"/>
          <path id="Rectangle_37274" data-name="Rectangle 37274" d="M-.8-.8H37.694V36.771H-.8ZM36.37.524H.524V35.447H36.37Z" transform="translate(0.8 181.093)" fill="#12263f"/>
        </g>
        <g id="Group_108135" data-name="Group 108135" transform="translate(78.712 0)">
          <path id="Rectangle_37275" data-name="Rectangle 37275" d="M-.8-.8H37.694V36.771H-.8ZM36.37.524H.524V35.447H36.37Z" transform="translate(0.8 0.8)" fill="#12263f"/>
          <path id="Rectangle_37276" data-name="Rectangle 37276" d="M-.8-.8H37.694V36.771H-.8ZM36.37.524H.524V35.447H36.37Z" transform="translate(0.8 36.858)" fill="#12263f"/>
          <path id="Rectangle_37277" data-name="Rectangle 37277" d="M-.8-.8H37.694V36.771H-.8ZM36.37.524H.524V35.447H36.37Z" transform="translate(0.8 72.917)" fill="#12263f"/>
          <path id="Rectangle_37278" data-name="Rectangle 37278" d="M-.8-.8H37.694V36.771H-.8ZM36.37.524H.524V35.447H36.37Z" transform="translate(0.8 108.976)" fill="#12263f"/>
          <path id="Rectangle_37279" data-name="Rectangle 37279" d="M-.8-.8H37.694V36.771H-.8ZM36.37.524H.524V35.447H36.37Z" transform="translate(0.8 145.034)" fill="#12263f"/>
          <path id="Rectangle_37280" data-name="Rectangle 37280" d="M-.8-.8H37.694V36.771H-.8ZM36.37.524H.524V35.447H36.37Z" transform="translate(0.8 181.093)" fill="#12263f"/>
        </g>
      </g>
    </g>
  </g>
</svg>
