<svg xmlns="http://www.w3.org/2000/svg" xmlns:xlink="http://www.w3.org/1999/xlink" width="401.5" height="374.889" viewBox="0 0 401.5 374.889">
  <defs>
    <clipPath id="clip-path">
      <path id="Trazado_873511" data-name="Trazado 873511" d="M47.951,0h304.1C378.532,0,400,20.184,400,45.082V299.806c0,24.9-21.468,45.082-47.951,45.082H47.951C21.468,344.888,0,324.7,0,299.806V45.082C0,20.184,21.468,0,47.951,0Z" transform="translate(924.669 16242.678)" fill="#ffdc39"/>
    </clipPath>
    <clipPath id="clip-path-2">
      <rect id="Rectángulo_401363" data-name="Rectángulo 401363" width="400" height="266.667" fill="none"/>
    </clipPath>
  </defs>
  <g id="Grupo_1099733" data-name="Grupo 1099733" transform="translate(-1020 -17105.912)">
    <g id="Grupo_1099431" data-name="Grupo 1099431" transform="translate(95.331 896.924)">
      <path id="Trazado_873412" data-name="Trazado 873412" d="M43.267,0H317.66c23.9,0,43.267,18.212,43.267,40.678V270.52c0,22.466-19.371,40.678-43.267,40.678H43.267C19.371,311.2,0,292.986,0,270.52V40.678C0,18.212,19.371,0,43.267,0Z" transform="translate(925.127 16272.678)" fill="#ffdc39"/>
      <g id="Enmascarar_grupo_1098694" data-name="Enmascarar grupo 1098694" transform="translate(0 -33.689)" clip-path="url(#clip-path)">
        <g id="_3838782" data-name="3838782" transform="translate(924.669 16281.787)" style="isolation: isolate">
          <g id="BACKGROUND">
            <rect id="Rectángulo_401138" data-name="Rectángulo 401138" width="400" height="266.667" fill="#aad6fb"/>
          </g>
          <g id="OBJECTS">
            <g id="Grupo_1099565" data-name="Grupo 1099565" clip-path="url(#clip-path-2)">
              <g id="Grupo_1099519" data-name="Grupo 1099519" transform="translate(57.925 101.808)">
                <path id="Trazado_873512" data-name="Trazado 873512" d="M308.63,116.338v7.392h-5.771V103.751h-1.141V123.73h-5.867v3.941h-37V116.338l-13.067-10.7v48.283h-6.448V118.69H233.28V98.711h-1.141V118.69h-5.872v35.227h-9.189V135.372H214.24v-29l-6.469-7.056v36.059H205.52V99.879l-6.437-8.016v43.509H187.2V105.634l-13.067,10.7v7.392h-5.771V103.751h-1.141V123.73H161.35v3.941h-37V116.338l-13.067-10.7v48.283h-6.448V118.69H98.784V98.711H97.643V118.69H91.771v35.227H82.582V135.372H79.744v-29L73.27,99.314v36.059H71.024V99.879l-6.443-8.016v43.509H52.267V180.45H321.7V105.634Z" transform="translate(-52.267 -91.863)" fill="#81c0ea"/>
                <g id="Grupo_1099446" data-name="Grupo 1099446" transform="translate(216.683 16.277)">
                  <rect id="Rectángulo_401139" data-name="Rectángulo 401139" width="16.965" height="72.875" fill="#81c0ea"/>
                  <g id="Grupo_1099445" data-name="Grupo 1099445" transform="translate(3.931 3.163)">
                    <g id="Grupo_1099434" data-name="Grupo 1099434">
                      <rect id="Rectángulo_401140" data-name="Rectángulo 401140" width="2.624" height="2.624" fill="#81c0ea"/>
                      <rect id="Rectángulo_401141" data-name="Rectángulo 401141" width="2.624" height="2.624" transform="translate(6.251)" fill="#81c0ea"/>
                    </g>
                    <g id="Grupo_1099435" data-name="Grupo 1099435" transform="translate(0 5.861)">
                      <rect id="Rectángulo_401142" data-name="Rectángulo 401142" width="2.624" height="2.624" fill="#81c0ea"/>
                      <rect id="Rectángulo_401143" data-name="Rectángulo 401143" width="2.624" height="2.624" transform="translate(6.251)" fill="#81c0ea"/>
                    </g>
                    <g id="Grupo_1099436" data-name="Grupo 1099436" transform="translate(0 11.723)">
                      <rect id="Rectángulo_401144" data-name="Rectángulo 401144" width="2.624" height="2.624" fill="#81c0ea"/>
                      <rect id="Rectángulo_401145" data-name="Rectángulo 401145" width="2.624" height="2.624" transform="translate(6.251)" fill="#81c0ea"/>
                    </g>
                    <g id="Grupo_1099437" data-name="Grupo 1099437" transform="translate(0 17.584)">
                      <rect id="Rectángulo_401146" data-name="Rectángulo 401146" width="2.624" height="2.624" fill="#81c0ea"/>
                      <rect id="Rectángulo_401147" data-name="Rectángulo 401147" width="2.624" height="2.624" transform="translate(6.251)" fill="#81c0ea"/>
                    </g>
                    <g id="Grupo_1099438" data-name="Grupo 1099438" transform="translate(0 23.445)">
                      <rect id="Rectángulo_401148" data-name="Rectángulo 401148" width="2.624" height="2.624" fill="#81c0ea"/>
                      <rect id="Rectángulo_401149" data-name="Rectángulo 401149" width="2.624" height="2.624" transform="translate(6.251)" fill="#81c0ea"/>
                    </g>
                    <g id="Grupo_1099439" data-name="Grupo 1099439" transform="translate(0 29.301)">
                      <rect id="Rectángulo_401150" data-name="Rectángulo 401150" width="2.624" height="2.624" fill="#81c0ea"/>
                      <rect id="Rectángulo_401151" data-name="Rectángulo 401151" width="2.624" height="2.624" transform="translate(6.251)" fill="#81c0ea"/>
                    </g>
                    <g id="Grupo_1099440" data-name="Grupo 1099440" transform="translate(0 35.163)">
                      <rect id="Rectángulo_401152" data-name="Rectángulo 401152" width="2.624" height="2.624" fill="#81c0ea"/>
                      <rect id="Rectángulo_401153" data-name="Rectángulo 401153" width="2.624" height="2.624" transform="translate(6.251)" fill="#81c0ea"/>
                    </g>
                    <g id="Grupo_1099441" data-name="Grupo 1099441" transform="translate(0 41.024)">
                      <rect id="Rectángulo_401154" data-name="Rectángulo 401154" width="2.624" height="2.624" fill="#81c0ea"/>
                      <rect id="Rectángulo_401155" data-name="Rectángulo 401155" width="2.624" height="2.624" transform="translate(6.251)" fill="#81c0ea"/>
                    </g>
                    <g id="Grupo_1099442" data-name="Grupo 1099442" transform="translate(0 46.885)">
                      <rect id="Rectángulo_401156" data-name="Rectángulo 401156" width="2.624" height="2.624" fill="#81c0ea"/>
                      <rect id="Rectángulo_401157" data-name="Rectángulo 401157" width="2.624" height="2.624" transform="translate(6.251)" fill="#81c0ea"/>
                    </g>
                    <g id="Grupo_1099443" data-name="Grupo 1099443" transform="translate(0 52.747)">
                      <rect id="Rectángulo_401158" data-name="Rectángulo 401158" width="2.624" height="2.624" fill="#81c0ea"/>
                      <rect id="Rectángulo_401159" data-name="Rectángulo 401159" width="2.624" height="2.624" transform="translate(6.251)" fill="#81c0ea"/>
                    </g>
                    <g id="Grupo_1099444" data-name="Grupo 1099444" transform="translate(0 58.608)">
                      <rect id="Rectángulo_401160" data-name="Rectángulo 401160" width="2.624" height="2.624" fill="#81c0ea"/>
                      <rect id="Rectángulo_401161" data-name="Rectángulo 401161" width="2.624" height="2.624" transform="translate(6.251)" fill="#81c0ea"/>
                    </g>
                  </g>
                </g>
                <g id="Grupo_1099459" data-name="Grupo 1099459" transform="translate(64.821 15.963)">
                  <rect id="Rectángulo_401162" data-name="Rectángulo 401162" width="16.965" height="72.875" transform="translate(0)" fill="#81c0ea"/>
                  <g id="Grupo_1099458" data-name="Grupo 1099458" transform="translate(3.931 3.163)">
                    <g id="Grupo_1099447" data-name="Grupo 1099447">
                      <rect id="Rectángulo_401163" data-name="Rectángulo 401163" width="2.624" height="2.624" fill="#81c0ea"/>
                      <rect id="Rectángulo_401164" data-name="Rectángulo 401164" width="2.624" height="2.624" transform="translate(6.245)" fill="#81c0ea"/>
                    </g>
                    <g id="Grupo_1099448" data-name="Grupo 1099448" transform="translate(0 5.856)">
                      <rect id="Rectángulo_401165" data-name="Rectángulo 401165" width="2.624" height="2.624" fill="#81c0ea"/>
                      <rect id="Rectángulo_401166" data-name="Rectángulo 401166" width="2.624" height="2.624" transform="translate(6.245)" fill="#81c0ea"/>
                    </g>
                    <g id="Grupo_1099449" data-name="Grupo 1099449" transform="translate(0 11.717)">
                      <rect id="Rectángulo_401167" data-name="Rectángulo 401167" width="2.624" height="2.624" fill="#81c0ea"/>
                      <rect id="Rectángulo_401168" data-name="Rectángulo 401168" width="2.624" height="2.624" transform="translate(6.245)" fill="#81c0ea"/>
                    </g>
                    <g id="Grupo_1099450" data-name="Grupo 1099450" transform="translate(0 17.579)">
                      <rect id="Rectángulo_401169" data-name="Rectángulo 401169" width="2.624" height="2.624" fill="#81c0ea"/>
                      <rect id="Rectángulo_401170" data-name="Rectángulo 401170" width="2.624" height="2.624" transform="translate(6.245)" fill="#81c0ea"/>
                    </g>
                    <g id="Grupo_1099451" data-name="Grupo 1099451" transform="translate(0 23.44)">
                      <rect id="Rectángulo_401171" data-name="Rectángulo 401171" width="2.624" height="2.624" fill="#81c0ea"/>
                      <rect id="Rectángulo_401172" data-name="Rectángulo 401172" width="2.624" height="2.624" transform="translate(6.245)" fill="#81c0ea"/>
                    </g>
                    <g id="Grupo_1099452" data-name="Grupo 1099452" transform="translate(0 29.301)">
                      <rect id="Rectángulo_401173" data-name="Rectángulo 401173" width="2.624" height="2.624" fill="#81c0ea"/>
                      <rect id="Rectángulo_401174" data-name="Rectángulo 401174" width="2.624" height="2.624" transform="translate(6.245)" fill="#81c0ea"/>
                    </g>
                    <g id="Grupo_1099453" data-name="Grupo 1099453" transform="translate(0 35.163)">
                      <rect id="Rectángulo_401175" data-name="Rectángulo 401175" width="2.624" height="2.624" fill="#81c0ea"/>
                      <rect id="Rectángulo_401176" data-name="Rectángulo 401176" width="2.624" height="2.624" transform="translate(6.245)" fill="#81c0ea"/>
                    </g>
                    <g id="Grupo_1099454" data-name="Grupo 1099454" transform="translate(0 41.024)">
                      <rect id="Rectángulo_401177" data-name="Rectángulo 401177" width="2.624" height="2.624" fill="#81c0ea"/>
                      <rect id="Rectángulo_401178" data-name="Rectángulo 401178" width="2.624" height="2.624" transform="translate(6.245)" fill="#81c0ea"/>
                    </g>
                    <g id="Grupo_1099455" data-name="Grupo 1099455" transform="translate(0 46.885)">
                      <rect id="Rectángulo_401179" data-name="Rectángulo 401179" width="2.624" height="2.624" fill="#81c0ea"/>
                      <rect id="Rectángulo_401180" data-name="Rectángulo 401180" width="2.624" height="2.624" transform="translate(6.245)" fill="#81c0ea"/>
                    </g>
                    <g id="Grupo_1099456" data-name="Grupo 1099456" transform="translate(0 52.747)">
                      <rect id="Rectángulo_401181" data-name="Rectángulo 401181" width="2.624" height="2.624" fill="#81c0ea"/>
                      <rect id="Rectángulo_401182" data-name="Rectángulo 401182" width="2.624" height="2.624" transform="translate(6.245)" fill="#81c0ea"/>
                    </g>
                    <g id="Grupo_1099457" data-name="Grupo 1099457" transform="translate(0 58.608)">
                      <rect id="Rectángulo_401183" data-name="Rectángulo 401183" width="2.624" height="2.624" fill="#81c0ea"/>
                      <rect id="Rectángulo_401184" data-name="Rectángulo 401184" width="2.624" height="2.624" transform="translate(6.245)" fill="#81c0ea"/>
                    </g>
                  </g>
                </g>
                <g id="Grupo_1099472" data-name="Grupo 1099472" transform="translate(133.28 28.251)">
                  <rect id="Rectángulo_401185" data-name="Rectángulo 401185" width="11.739" height="60.581" fill="#81c0ea"/>
                  <g id="Grupo_1099471" data-name="Grupo 1099471" transform="translate(3.749 3.808)">
                    <g id="Grupo_1099460" data-name="Grupo 1099460">
                      <rect id="Rectángulo_401186" data-name="Rectángulo 401186" width="1.253" height="1.221" fill="#81c0ea"/>
                      <rect id="Rectángulo_401187" data-name="Rectángulo 401187" width="1.253" height="1.221" transform="translate(2.987)" fill="#81c0ea"/>
                    </g>
                    <g id="Grupo_1099461" data-name="Grupo 1099461" transform="translate(0 2.731)">
                      <rect id="Rectángulo_401188" data-name="Rectángulo 401188" width="1.253" height="1.221" fill="#81c0ea"/>
                      <rect id="Rectángulo_401189" data-name="Rectángulo 401189" width="1.253" height="1.221" transform="translate(2.987)" fill="#81c0ea"/>
                    </g>
                    <g id="Grupo_1099462" data-name="Grupo 1099462" transform="translate(0 5.467)">
                      <rect id="Rectángulo_401190" data-name="Rectángulo 401190" width="1.253" height="1.221" fill="#81c0ea"/>
                      <rect id="Rectángulo_401191" data-name="Rectángulo 401191" width="1.253" height="1.221" transform="translate(2.987)" fill="#81c0ea"/>
                    </g>
                    <g id="Grupo_1099463" data-name="Grupo 1099463" transform="translate(0 8.203)">
                      <rect id="Rectángulo_401192" data-name="Rectángulo 401192" width="1.253" height="1.221" fill="#81c0ea"/>
                      <rect id="Rectángulo_401193" data-name="Rectángulo 401193" width="1.253" height="1.221" transform="translate(2.987)" fill="#81c0ea"/>
                    </g>
                    <g id="Grupo_1099464" data-name="Grupo 1099464" transform="translate(0 10.933)">
                      <rect id="Rectángulo_401194" data-name="Rectángulo 401194" width="1.253" height="1.221" fill="#81c0ea"/>
                      <rect id="Rectángulo_401195" data-name="Rectángulo 401195" width="1.253" height="1.221" transform="translate(2.987)" fill="#81c0ea"/>
                    </g>
                    <g id="Grupo_1099465" data-name="Grupo 1099465" transform="translate(0 13.669)">
                      <rect id="Rectángulo_401196" data-name="Rectángulo 401196" width="1.253" height="1.221" fill="#81c0ea"/>
                      <rect id="Rectángulo_401197" data-name="Rectángulo 401197" width="1.253" height="1.221" transform="translate(2.987)" fill="#81c0ea"/>
                    </g>
                    <g id="Grupo_1099466" data-name="Grupo 1099466" transform="translate(0 16.4)">
                      <rect id="Rectángulo_401198" data-name="Rectángulo 401198" width="1.253" height="1.221" fill="#81c0ea"/>
                      <rect id="Rectángulo_401199" data-name="Rectángulo 401199" width="1.253" height="1.221" transform="translate(2.987)" fill="#81c0ea"/>
                    </g>
                    <g id="Grupo_1099467" data-name="Grupo 1099467" transform="translate(0 19.136)">
                      <rect id="Rectángulo_401200" data-name="Rectángulo 401200" width="1.253" height="1.221" fill="#81c0ea"/>
                      <rect id="Rectángulo_401201" data-name="Rectángulo 401201" width="1.253" height="1.221" transform="translate(2.987)" fill="#81c0ea"/>
                    </g>
                    <g id="Grupo_1099468" data-name="Grupo 1099468" transform="translate(0 21.867)">
                      <rect id="Rectángulo_401202" data-name="Rectángulo 401202" width="1.253" height="1.221" fill="#81c0ea"/>
                      <rect id="Rectángulo_401203" data-name="Rectángulo 401203" width="1.253" height="1.221" transform="translate(2.987)" fill="#81c0ea"/>
                    </g>
                    <g id="Grupo_1099469" data-name="Grupo 1099469" transform="translate(0 24.603)">
                      <rect id="Rectángulo_401204" data-name="Rectángulo 401204" width="1.253" height="1.221" fill="#81c0ea"/>
                      <rect id="Rectángulo_401205" data-name="Rectángulo 401205" width="1.253" height="1.221" transform="translate(2.987)" fill="#81c0ea"/>
                    </g>
                    <g id="Grupo_1099470" data-name="Grupo 1099470" transform="translate(0 27.333)">
                      <rect id="Rectángulo_401206" data-name="Rectángulo 401206" width="1.253" height="1.221" fill="#81c0ea"/>
                      <rect id="Rectángulo_401207" data-name="Rectángulo 401207" width="1.253" height="1.221" transform="translate(2.987)" fill="#81c0ea"/>
                    </g>
                  </g>
                </g>
                <g id="Grupo_1099474" data-name="Grupo 1099474" transform="translate(102.453 64.315)">
                  <rect id="Rectángulo_401208" data-name="Rectángulo 401208" width="29.189" height="24.523" fill="#81c0ea"/>
                  <g id="Grupo_1099473" data-name="Grupo 1099473" transform="translate(2.315 3.008)">
                    <rect id="Rectángulo_401209" data-name="Rectángulo 401209" width="9.253" height="1.312" fill="#81c0ea"/>
                    <rect id="Rectángulo_401210" data-name="Rectángulo 401210" width="9.253" height="1.312" transform="translate(15.573)" fill="#81c0ea"/>
                    <rect id="Rectángulo_401211" data-name="Rectángulo 401211" width="9.253" height="1.312" transform="translate(0 3.893)" fill="#81c0ea"/>
                    <rect id="Rectángulo_401212" data-name="Rectángulo 401212" width="9.253" height="1.312" transform="translate(15.573 3.893)" fill="#81c0ea"/>
                    <rect id="Rectángulo_401213" data-name="Rectángulo 401213" width="9.253" height="1.312" transform="translate(0 7.787)" fill="#81c0ea"/>
                    <rect id="Rectángulo_401214" data-name="Rectángulo 401214" width="9.253" height="1.312" transform="translate(15.573 7.787)" fill="#81c0ea"/>
                    <rect id="Rectángulo_401215" data-name="Rectángulo 401215" width="9.253" height="1.312" transform="translate(0 11.68)" fill="#81c0ea"/>
                    <rect id="Rectángulo_401216" data-name="Rectángulo 401216" width="9.253" height="1.312" transform="translate(15.573 11.68)" fill="#81c0ea"/>
                  </g>
                </g>
                <g id="Grupo_1099476" data-name="Grupo 1099476" transform="translate(34.8 64.16)">
                  <rect id="Rectángulo_401217" data-name="Rectángulo 401217" width="29.189" height="24.523" fill="#81c0ea"/>
                  <g id="Grupo_1099475" data-name="Grupo 1099475" transform="translate(2.315 3.008)">
                    <rect id="Rectángulo_401218" data-name="Rectángulo 401218" width="9.253" height="1.312" fill="#81c0ea"/>
                    <rect id="Rectángulo_401219" data-name="Rectángulo 401219" width="9.253" height="1.312" transform="translate(15.579)" fill="#81c0ea"/>
                    <rect id="Rectángulo_401220" data-name="Rectángulo 401220" width="9.253" height="1.312" transform="translate(0 3.893)" fill="#81c0ea"/>
                    <rect id="Rectángulo_401221" data-name="Rectángulo 401221" width="9.253" height="1.312" transform="translate(15.579 3.893)" fill="#81c0ea"/>
                    <rect id="Rectángulo_401222" data-name="Rectángulo 401222" width="9.253" height="1.312" transform="translate(0 7.787)" fill="#81c0ea"/>
                    <rect id="Rectángulo_401223" data-name="Rectángulo 401223" width="9.253" height="1.312" transform="translate(15.579 7.787)" fill="#81c0ea"/>
                    <rect id="Rectángulo_401224" data-name="Rectángulo 401224" width="9.253" height="1.312" transform="translate(0 11.68)" fill="#81c0ea"/>
                    <rect id="Rectángulo_401225" data-name="Rectángulo 401225" width="9.253" height="1.312" transform="translate(15.579 11.68)" fill="#81c0ea"/>
                  </g>
                </g>
                <g id="Grupo_1099481" data-name="Grupo 1099481" transform="translate(83.019 39.792)">
                  <rect id="Rectángulo_401226" data-name="Rectángulo 401226" width="16.965" height="49.045" fill="#81c0ea"/>
                  <g id="Grupo_1099477" data-name="Grupo 1099477" transform="translate(3.237 2.773)">
                    <rect id="Rectángulo_401227" data-name="Rectángulo 401227" width="2.624" height="7.035" fill="#81c0ea"/>
                    <rect id="Rectángulo_401228" data-name="Rectángulo 401228" width="2.624" height="7.035" transform="translate(3.936)" fill="#81c0ea"/>
                    <rect id="Rectángulo_401229" data-name="Rectángulo 401229" width="2.624" height="7.035" transform="translate(7.867)" fill="#81c0ea"/>
                  </g>
                  <g id="Grupo_1099478" data-name="Grupo 1099478" transform="translate(3.237 12.288)">
                    <rect id="Rectángulo_401230" data-name="Rectángulo 401230" width="2.624" height="7.035" fill="#81c0ea"/>
                    <rect id="Rectángulo_401231" data-name="Rectángulo 401231" width="2.624" height="7.035" transform="translate(3.936)" fill="#81c0ea"/>
                    <rect id="Rectángulo_401232" data-name="Rectángulo 401232" width="2.624" height="7.035" transform="translate(7.867)" fill="#81c0ea"/>
                  </g>
                  <g id="Grupo_1099479" data-name="Grupo 1099479" transform="translate(3.237 21.803)">
                    <rect id="Rectángulo_401233" data-name="Rectángulo 401233" width="2.624" height="7.035" fill="#81c0ea"/>
                    <rect id="Rectángulo_401234" data-name="Rectángulo 401234" width="2.624" height="7.035" transform="translate(3.936)" fill="#81c0ea"/>
                    <rect id="Rectángulo_401235" data-name="Rectángulo 401235" width="2.624" height="7.035" transform="translate(7.867)" fill="#81c0ea"/>
                  </g>
                  <g id="Grupo_1099480" data-name="Grupo 1099480" transform="translate(3.237 31.323)">
                    <rect id="Rectángulo_401236" data-name="Rectángulo 401236" width="2.624" height="7.035" fill="#81c0ea"/>
                    <rect id="Rectángulo_401237" data-name="Rectángulo 401237" width="2.624" height="7.035" transform="translate(3.936)" fill="#81c0ea"/>
                    <rect id="Rectángulo_401238" data-name="Rectángulo 401238" width="2.624" height="7.035" transform="translate(7.867)" fill="#81c0ea"/>
                  </g>
                </g>
                <g id="Grupo_1099518" data-name="Grupo 1099518" transform="translate(146.507 27.605)">
                  <g id="Grupo_1099494" data-name="Grupo 1099494">
                    <rect id="Rectángulo_401239" data-name="Rectángulo 401239" width="14.229" height="61.125" fill="#81c0ea"/>
                    <g id="Grupo_1099493" data-name="Grupo 1099493" transform="translate(3.296 2.656)">
                      <g id="Grupo_1099482" data-name="Grupo 1099482">
                        <rect id="Rectángulo_401240" data-name="Rectángulo 401240" width="2.197" height="2.197" fill="#81c0ea"/>
                        <rect id="Rectángulo_401241" data-name="Rectángulo 401241" width="2.197" height="2.197" transform="translate(5.243)" fill="#81c0ea"/>
                      </g>
                      <g id="Grupo_1099483" data-name="Grupo 1099483" transform="translate(0 4.912)">
                        <rect id="Rectángulo_401242" data-name="Rectángulo 401242" width="2.197" height="2.197" fill="#81c0ea"/>
                        <rect id="Rectángulo_401243" data-name="Rectángulo 401243" width="2.197" height="2.197" transform="translate(5.243)" fill="#81c0ea"/>
                      </g>
                      <g id="Grupo_1099484" data-name="Grupo 1099484" transform="translate(0 9.829)">
                        <rect id="Rectángulo_401244" data-name="Rectángulo 401244" width="2.197" height="2.197" fill="#81c0ea"/>
                        <rect id="Rectángulo_401245" data-name="Rectángulo 401245" width="2.197" height="2.197" transform="translate(5.243)" fill="#81c0ea"/>
                      </g>
                      <g id="Grupo_1099485" data-name="Grupo 1099485" transform="translate(0 14.747)">
                        <rect id="Rectángulo_401246" data-name="Rectángulo 401246" width="2.197" height="2.197" fill="#81c0ea"/>
                        <rect id="Rectángulo_401247" data-name="Rectángulo 401247" width="2.197" height="2.197" transform="translate(5.243)" fill="#81c0ea"/>
                      </g>
                      <g id="Grupo_1099486" data-name="Grupo 1099486" transform="translate(0 19.659)">
                        <rect id="Rectángulo_401248" data-name="Rectángulo 401248" width="2.197" height="2.197" fill="#81c0ea"/>
                        <rect id="Rectángulo_401249" data-name="Rectángulo 401249" width="2.197" height="2.197" transform="translate(5.243)" fill="#81c0ea"/>
                      </g>
                      <g id="Grupo_1099487" data-name="Grupo 1099487" transform="translate(0 24.576)">
                        <rect id="Rectángulo_401250" data-name="Rectángulo 401250" width="2.197" height="2.197" fill="#81c0ea"/>
                        <rect id="Rectángulo_401251" data-name="Rectángulo 401251" width="2.197" height="2.197" transform="translate(5.243)" fill="#81c0ea"/>
                      </g>
                      <g id="Grupo_1099488" data-name="Grupo 1099488" transform="translate(0 29.493)">
                        <rect id="Rectángulo_401252" data-name="Rectángulo 401252" width="2.197" height="2.197" fill="#81c0ea"/>
                        <rect id="Rectángulo_401253" data-name="Rectángulo 401253" width="2.197" height="2.197" transform="translate(5.243)" fill="#81c0ea"/>
                      </g>
                      <g id="Grupo_1099489" data-name="Grupo 1099489" transform="translate(0 34.411)">
                        <rect id="Rectángulo_401254" data-name="Rectángulo 401254" width="2.197" height="2.197" fill="#81c0ea"/>
                        <rect id="Rectángulo_401255" data-name="Rectángulo 401255" width="2.197" height="2.197" transform="translate(5.243)" fill="#81c0ea"/>
                      </g>
                      <g id="Grupo_1099490" data-name="Grupo 1099490" transform="translate(0 39.323)">
                        <rect id="Rectángulo_401256" data-name="Rectángulo 401256" width="2.197" height="2.197" fill="#81c0ea"/>
                        <rect id="Rectángulo_401257" data-name="Rectángulo 401257" width="2.197" height="2.197" transform="translate(5.243)" fill="#81c0ea"/>
                      </g>
                      <g id="Grupo_1099491" data-name="Grupo 1099491" transform="translate(0 44.24)">
                        <rect id="Rectángulo_401258" data-name="Rectángulo 401258" width="2.197" height="2.197" fill="#81c0ea"/>
                        <rect id="Rectángulo_401259" data-name="Rectángulo 401259" width="2.197" height="2.197" transform="translate(5.243)" fill="#81c0ea"/>
                      </g>
                      <g id="Grupo_1099492" data-name="Grupo 1099492" transform="translate(0 49.157)">
                        <rect id="Rectángulo_401260" data-name="Rectángulo 401260" width="2.197" height="2.197" fill="#81c0ea"/>
                        <rect id="Rectángulo_401261" data-name="Rectángulo 401261" width="2.197" height="2.197" transform="translate(5.243)" fill="#81c0ea"/>
                      </g>
                    </g>
                  </g>
                  <g id="Grupo_1099507" data-name="Grupo 1099507" transform="translate(57.424 10.309)">
                    <rect id="Rectángulo_401262" data-name="Rectángulo 401262" width="9.845" height="50.816" fill="#81c0ea"/>
                    <g id="Grupo_1099506" data-name="Grupo 1099506" transform="translate(3.141 3.195)">
                      <g id="Grupo_1099495" data-name="Grupo 1099495">
                        <rect id="Rectángulo_401263" data-name="Rectángulo 401263" width="1.051" height="1.024" fill="#81c0ea"/>
                        <rect id="Rectángulo_401264" data-name="Rectángulo 401264" width="1.051" height="1.024" transform="translate(2.507)" fill="#81c0ea"/>
                      </g>
                      <g id="Grupo_1099496" data-name="Grupo 1099496" transform="translate(0 2.293)">
                        <rect id="Rectángulo_401265" data-name="Rectángulo 401265" width="1.051" height="1.024" fill="#81c0ea"/>
                        <rect id="Rectángulo_401266" data-name="Rectángulo 401266" width="1.051" height="1.024" transform="translate(2.507)" fill="#81c0ea"/>
                      </g>
                      <g id="Grupo_1099497" data-name="Grupo 1099497" transform="translate(0 4.587)">
                        <rect id="Rectángulo_401267" data-name="Rectángulo 401267" width="1.051" height="1.024" fill="#81c0ea"/>
                        <rect id="Rectángulo_401268" data-name="Rectángulo 401268" width="1.051" height="1.024" transform="translate(2.507)" fill="#81c0ea"/>
                      </g>
                      <g id="Grupo_1099498" data-name="Grupo 1099498" transform="translate(0 6.88)">
                        <rect id="Rectángulo_401269" data-name="Rectángulo 401269" width="1.051" height="1.024" fill="#81c0ea"/>
                        <rect id="Rectángulo_401270" data-name="Rectángulo 401270" width="1.051" height="1.024" transform="translate(2.507)" fill="#81c0ea"/>
                      </g>
                      <g id="Grupo_1099499" data-name="Grupo 1099499" transform="translate(0 9.168)">
                        <rect id="Rectángulo_401271" data-name="Rectángulo 401271" width="1.051" height="1.024" fill="#81c0ea"/>
                        <rect id="Rectángulo_401272" data-name="Rectángulo 401272" width="1.051" height="1.024" transform="translate(2.507)" fill="#81c0ea"/>
                      </g>
                      <g id="Grupo_1099500" data-name="Grupo 1099500" transform="translate(0 11.461)">
                        <rect id="Rectángulo_401273" data-name="Rectángulo 401273" width="1.051" height="1.024" fill="#81c0ea"/>
                        <rect id="Rectángulo_401274" data-name="Rectángulo 401274" width="1.051" height="1.024" transform="translate(2.507)" fill="#81c0ea"/>
                      </g>
                      <g id="Grupo_1099501" data-name="Grupo 1099501" transform="translate(0 13.755)">
                        <rect id="Rectángulo_401275" data-name="Rectángulo 401275" width="1.051" height="1.024" fill="#81c0ea"/>
                        <rect id="Rectángulo_401276" data-name="Rectángulo 401276" width="1.051" height="1.024" transform="translate(2.507)" fill="#81c0ea"/>
                      </g>
                      <g id="Grupo_1099502" data-name="Grupo 1099502" transform="translate(0 16.048)">
                        <rect id="Rectángulo_401277" data-name="Rectángulo 401277" width="1.051" height="1.024" fill="#81c0ea"/>
                        <rect id="Rectángulo_401278" data-name="Rectángulo 401278" width="1.051" height="1.024" transform="translate(2.507)" fill="#81c0ea"/>
                      </g>
                      <g id="Grupo_1099503" data-name="Grupo 1099503" transform="translate(0 18.341)">
                        <rect id="Rectángulo_401279" data-name="Rectángulo 401279" width="1.051" height="1.024" fill="#81c0ea"/>
                        <rect id="Rectángulo_401280" data-name="Rectángulo 401280" width="1.051" height="1.024" transform="translate(2.507)" fill="#81c0ea"/>
                      </g>
                      <g id="Grupo_1099504" data-name="Grupo 1099504" transform="translate(0 20.635)">
                        <rect id="Rectángulo_401281" data-name="Rectángulo 401281" width="1.051" height="1.024" fill="#81c0ea"/>
                        <rect id="Rectángulo_401282" data-name="Rectángulo 401282" width="1.051" height="1.024" transform="translate(2.507)" fill="#81c0ea"/>
                      </g>
                      <g id="Grupo_1099505" data-name="Grupo 1099505" transform="translate(0 22.928)">
                        <rect id="Rectángulo_401283" data-name="Rectángulo 401283" width="1.051" height="1.024" fill="#81c0ea"/>
                        <rect id="Rectángulo_401284" data-name="Rectángulo 401284" width="1.051" height="1.024" transform="translate(2.507)" fill="#81c0ea"/>
                      </g>
                    </g>
                  </g>
                  <g id="Grupo_1099512" data-name="Grupo 1099512" transform="translate(31.563 2.656)">
                    <rect id="Rectángulo_401285" data-name="Rectángulo 401285" width="24.48" height="58.475" fill="#81c0ea"/>
                    <g id="Grupo_1099508" data-name="Grupo 1099508" transform="translate(1.941 40.421)">
                      <rect id="Rectángulo_401286" data-name="Rectángulo 401286" width="7.76" height="1.099" fill="#81c0ea"/>
                      <rect id="Rectángulo_401287" data-name="Rectángulo 401287" width="7.76" height="1.099" transform="translate(13.067)" fill="#81c0ea"/>
                      <rect id="Rectángulo_401288" data-name="Rectángulo 401288" width="7.76" height="1.099" transform="translate(0 3.269)" fill="#81c0ea"/>
                      <rect id="Rectángulo_401289" data-name="Rectángulo 401289" width="7.76" height="1.099" transform="translate(13.067 3.269)" fill="#81c0ea"/>
                      <rect id="Rectángulo_401290" data-name="Rectángulo 401290" width="7.76" height="1.099" transform="translate(0 6.533)" fill="#81c0ea"/>
                      <rect id="Rectángulo_401291" data-name="Rectángulo 401291" width="7.76" height="1.099" transform="translate(13.067 6.533)" fill="#81c0ea"/>
                      <rect id="Rectángulo_401292" data-name="Rectángulo 401292" width="7.76" height="1.099" transform="translate(0 9.803)" fill="#81c0ea"/>
                      <rect id="Rectángulo_401293" data-name="Rectángulo 401293" width="7.76" height="1.099" transform="translate(13.067 9.803)" fill="#81c0ea"/>
                    </g>
                    <g id="Grupo_1099509" data-name="Grupo 1099509" transform="translate(1.941 28.325)">
                      <rect id="Rectángulo_401294" data-name="Rectángulo 401294" width="7.76" height="1.099" fill="#81c0ea"/>
                      <rect id="Rectángulo_401295" data-name="Rectángulo 401295" width="7.76" height="1.099" transform="translate(13.067)" fill="#81c0ea"/>
                      <rect id="Rectángulo_401296" data-name="Rectángulo 401296" width="7.76" height="1.099" transform="translate(0 3.264)" fill="#81c0ea"/>
                      <rect id="Rectángulo_401297" data-name="Rectángulo 401297" width="7.76" height="1.099" transform="translate(13.067 3.264)" fill="#81c0ea"/>
                      <rect id="Rectángulo_401298" data-name="Rectángulo 401298" width="7.76" height="1.099" transform="translate(0 6.533)" fill="#81c0ea"/>
                      <rect id="Rectángulo_401299" data-name="Rectángulo 401299" width="7.76" height="1.099" transform="translate(13.067 6.533)" fill="#81c0ea"/>
                      <rect id="Rectángulo_401300" data-name="Rectángulo 401300" width="7.76" height="1.099" transform="translate(0 9.797)" fill="#81c0ea"/>
                      <rect id="Rectángulo_401301" data-name="Rectángulo 401301" width="7.76" height="1.099" transform="translate(13.067 9.797)" fill="#81c0ea"/>
                    </g>
                    <g id="Grupo_1099510" data-name="Grupo 1099510" transform="translate(1.941 16.224)">
                      <rect id="Rectángulo_401302" data-name="Rectángulo 401302" width="7.76" height="1.099" fill="#81c0ea"/>
                      <rect id="Rectángulo_401303" data-name="Rectángulo 401303" width="7.76" height="1.099" transform="translate(13.067)" fill="#81c0ea"/>
                      <rect id="Rectángulo_401304" data-name="Rectángulo 401304" width="7.76" height="1.099" transform="translate(0 3.269)" fill="#81c0ea"/>
                      <rect id="Rectángulo_401305" data-name="Rectángulo 401305" width="7.76" height="1.099" transform="translate(13.067 3.269)" fill="#81c0ea"/>
                      <rect id="Rectángulo_401306" data-name="Rectángulo 401306" width="7.76" height="1.099" transform="translate(0 6.533)" fill="#81c0ea"/>
                      <rect id="Rectángulo_401307" data-name="Rectángulo 401307" width="7.76" height="1.099" transform="translate(13.067 6.533)" fill="#81c0ea"/>
                      <rect id="Rectángulo_401308" data-name="Rectángulo 401308" width="7.76" height="1.099" transform="translate(0 9.803)" fill="#81c0ea"/>
                      <rect id="Rectángulo_401309" data-name="Rectángulo 401309" width="7.76" height="1.099" transform="translate(13.067 9.803)" fill="#81c0ea"/>
                    </g>
                    <g id="Grupo_1099511" data-name="Grupo 1099511" transform="translate(1.941 4.128)">
                      <rect id="Rectángulo_401310" data-name="Rectángulo 401310" width="7.76" height="1.099" fill="#81c0ea"/>
                      <rect id="Rectángulo_401311" data-name="Rectángulo 401311" width="7.76" height="1.099" transform="translate(13.067)" fill="#81c0ea"/>
                      <rect id="Rectángulo_401312" data-name="Rectángulo 401312" width="7.76" height="1.099" transform="translate(0 3.264)" fill="#81c0ea"/>
                      <rect id="Rectángulo_401313" data-name="Rectángulo 401313" width="7.76" height="1.099" transform="translate(13.067 3.264)" fill="#81c0ea"/>
                      <rect id="Rectángulo_401314" data-name="Rectángulo 401314" width="7.76" height="1.099" transform="translate(0 6.533)" fill="#81c0ea"/>
                      <rect id="Rectángulo_401315" data-name="Rectángulo 401315" width="7.76" height="1.099" transform="translate(13.067 6.533)" fill="#81c0ea"/>
                      <rect id="Rectángulo_401316" data-name="Rectángulo 401316" width="7.76" height="1.099" transform="translate(0 9.797)" fill="#81c0ea"/>
                      <rect id="Rectángulo_401317" data-name="Rectángulo 401317" width="7.76" height="1.099" transform="translate(13.067 9.797)" fill="#81c0ea"/>
                    </g>
                  </g>
                  <g id="Grupo_1099517" data-name="Grupo 1099517" transform="translate(15.264 19.989)">
                    <rect id="Rectángulo_401318" data-name="Rectángulo 401318" width="14.229" height="41.136" fill="#81c0ea"/>
                    <g id="Grupo_1099513" data-name="Grupo 1099513" transform="translate(2.715 2.325)">
                      <rect id="Rectángulo_401319" data-name="Rectángulo 401319" width="2.197" height="5.899" fill="#81c0ea"/>
                      <rect id="Rectángulo_401320" data-name="Rectángulo 401320" width="2.197" height="5.899" transform="translate(3.301)" fill="#81c0ea"/>
                      <rect id="Rectángulo_401321" data-name="Rectángulo 401321" width="2.197" height="5.899" transform="translate(6.603)" fill="#81c0ea"/>
                    </g>
                    <g id="Grupo_1099514" data-name="Grupo 1099514" transform="translate(2.715 10.309)">
                      <rect id="Rectángulo_401322" data-name="Rectángulo 401322" width="2.197" height="5.899" fill="#81c0ea"/>
                      <rect id="Rectángulo_401323" data-name="Rectángulo 401323" width="2.197" height="5.899" transform="translate(3.301)" fill="#81c0ea"/>
                      <rect id="Rectángulo_401324" data-name="Rectángulo 401324" width="2.197" height="5.899" transform="translate(6.603)" fill="#81c0ea"/>
                    </g>
                    <g id="Grupo_1099515" data-name="Grupo 1099515" transform="translate(2.715 18.288)">
                      <rect id="Rectángulo_401325" data-name="Rectángulo 401325" width="2.197" height="5.899" fill="#81c0ea"/>
                      <rect id="Rectángulo_401326" data-name="Rectángulo 401326" width="2.197" height="5.899" transform="translate(3.301)" fill="#81c0ea"/>
                      <rect id="Rectángulo_401327" data-name="Rectángulo 401327" width="2.197" height="5.899" transform="translate(6.603)" fill="#81c0ea"/>
                    </g>
                    <g id="Grupo_1099516" data-name="Grupo 1099516" transform="translate(2.715 26.272)">
                      <rect id="Rectángulo_401328" data-name="Rectángulo 401328" width="2.197" height="5.899" fill="#81c0ea"/>
                      <rect id="Rectángulo_401329" data-name="Rectángulo 401329" width="2.197" height="5.899" transform="translate(3.301)" fill="#81c0ea"/>
                      <rect id="Rectángulo_401330" data-name="Rectángulo 401330" width="2.197" height="5.899" transform="translate(6.603)" fill="#81c0ea"/>
                    </g>
                  </g>
                </g>
              </g>
              <rect id="Rectángulo_401331" data-name="Rectángulo 401331" width="5.712" height="224.46" transform="matrix(0.866, 0.5, -0.5, 0.866, 164.107, -12.182)" fill="#fff" opacity="0.19"/>
              <rect id="Rectángulo_401332" data-name="Rectángulo 401332" width="22.021" height="231.457" transform="matrix(0.866, 0.5, -0.5, 0.866, 204.73, -16.04)" fill="#fff" opacity="0.19"/>
              <rect id="Rectángulo_401333" data-name="Rectángulo 401333" width="5.712" height="224.46" transform="matrix(0.866, 0.5, -0.5, 0.866, 310.921, -12.319)" fill="#fff" opacity="0.19"/>
              <rect id="Rectángulo_401334" data-name="Rectángulo 401334" width="22.021" height="256.017" transform="matrix(0.866, 0.5, -0.5, 0.866, 363.828, -37.445)" fill="#fff" opacity="0.19"/>
              <rect id="Rectángulo_401335" data-name="Rectángulo 401335" width="404.672" height="70.496" transform="translate(-0.448 196.971)" fill="#cfd1d1"/>
              <ellipse id="Elipse_11493" data-name="Elipse 11493" cx="30.165" cy="4.72" rx="30.165" ry="4.72" transform="translate(267.477 211.019)" fill="#bbbcbc"/>
              <ellipse id="Elipse_11494" data-name="Elipse 11494" cx="30.165" cy="4.72" rx="30.165" ry="4.72" transform="translate(64.811 248.352)" fill="#bbbcbc"/>
              <ellipse id="Elipse_11495" data-name="Elipse 11495" cx="49.776" cy="6.757" rx="49.776" ry="6.757" transform="translate(141.515 233.067)" fill="#bbbcbc"/>
              <path id="Trazado_873513" data-name="Trazado 873513" d="M325.316,98.787a1.364,1.364,0,0,0-.491-.885,3.4,3.4,0,0,0-1.509-.571l-6.213-1.28c-.251-.96,1.088-1.712,1.024-2.7a1.96,1.96,0,0,0-.9-1.291,18.234,18.234,0,0,0-18-2.389,4.339,4.339,0,0,0-1.557-2.512,13.843,13.843,0,0,0-11.605-3.536,12.078,12.078,0,0,0-9.184,7.707,6.317,6.317,0,0,0-5-.176,12.554,12.554,0,0,0-4.267,2.816,3.117,3.117,0,0,1-.976.715,3.562,3.562,0,0,1-1.168.133,7.3,7.3,0,0,0-5.419,2.741,1.8,1.8,0,0,0-.448,1.221h65.712Z" transform="translate(28.103 9.032)" fill="#e0f8f7" opacity="0.48"/>
              <path id="Trazado_873514" data-name="Trazado 873514" d="M108.961,51.207a1.08,1.08,0,0,0-.389-.7,2.693,2.693,0,0,0-1.2-.453c-1.648-.341-3.291-.677-4.939-1.019-.2-.763.864-1.36.816-2.144a1.569,1.569,0,0,0-.715-1.024,14.5,14.5,0,0,0-14.3-1.9,3.447,3.447,0,0,0-1.237-1.995,11,11,0,0,0-9.221-2.811,9.586,9.586,0,0,0-7.3,6.128,5.038,5.038,0,0,0-3.973-.144,9.826,9.826,0,0,0-3.392,2.24,2.492,2.492,0,0,1-.773.565,2.84,2.84,0,0,1-.928.107,5.8,5.8,0,0,0-4.3,2.176,1.413,1.413,0,0,0-.352.971h52.224Z" transform="translate(6.143 4.223)" fill="#e0f8f7" opacity="0.74"/>
              <path id="Trazado_873515" data-name="Trazado 873515" d="M234.466,50.9a.818.818,0,0,0-.288-.523,2.085,2.085,0,0,0-.891-.341c-1.227-.251-2.448-.507-3.675-.757-.149-.565.64-1.013.608-1.595a1.166,1.166,0,0,0-.533-.763,10.785,10.785,0,0,0-10.64-1.413,2.533,2.533,0,0,0-.923-1.483,8.189,8.189,0,0,0-6.864-2.091,7.134,7.134,0,0,0-5.429,4.56,3.752,3.752,0,0,0-2.96-.107,7.427,7.427,0,0,0-2.523,1.664,1.844,1.844,0,0,1-.576.421,2.294,2.294,0,0,1-.688.08,4.34,4.34,0,0,0-3.205,1.621,1.035,1.035,0,0,0-.261.725h38.853Z" transform="translate(21.176 4.528)" fill="#e0f8f7" opacity="0.74"/>
              <rect id="Rectángulo_401336" data-name="Rectángulo 401336" width="407.979" height="6.555" transform="translate(-3.989 190.416)" fill="#0594cc"/>
              <rect id="Rectángulo_401337" data-name="Rectángulo 401337" width="192.368" height="73.115" transform="translate(-2.389 190.416) rotate(-90)" fill="#fff"/>
              <rect id="Rectángulo_401338" data-name="Rectángulo 401338" width="192.368" height="75.499" transform="translate(326.875 190.416) rotate(-90)" fill="#fff"/>
              <rect id="Rectángulo_401339" data-name="Rectángulo 401339" width="190.619" height="3.771" transform="translate(198.112 190.416) rotate(-90)" fill="#e5e5e5"/>
              <g id="Grupo_1099523" data-name="Grupo 1099523" transform="translate(7.813 151.962)">
                <ellipse id="Elipse_11496" data-name="Elipse 11496" cx="27.952" cy="4.373" rx="27.952" ry="4.373" transform="translate(0 54.353)" fill="#bbbcbc"/>
                <g id="Grupo_1099522" data-name="Grupo 1099522" transform="translate(6.64)">
                  <path id="Trazado_873516" data-name="Trazado 873516" d="M38.047,139.714l-.352,1.5-1.92,2.869a4.835,4.835,0,0,0-.544,2.341l.459,3.339-.341,1.461a1.37,1.37,0,0,0,2.667.629l.341-1.461h0a8.785,8.785,0,0,0,2.2-4.016,8.139,8.139,0,0,0-.2-4.528l.352-1.509a1.37,1.37,0,0,0-2.667-.629Zm.075,10.629-.347,1.472a1.131,1.131,0,0,1-2.2-.517l.347-1.472,2.2.517Zm2.363-10.069-.347,1.472-2.2-.517.347-1.472a1.129,1.129,0,1,1,2.2.517Z" transform="translate(-10.639 -136.951)" fill="#054779"/>
                  <path id="Trazado_873517" data-name="Trazado 873517" d="M37.235,139.6l-1.008,1.173L33.2,142.431a4.865,4.865,0,0,0-.885.8,4.774,4.774,0,0,0-.677,1.029L30.5,147.428l-.976,1.136a1.369,1.369,0,1,0,2.075,1.787l.976-1.136h0a8.827,8.827,0,0,0,3.813-2.539A8.2,8.2,0,0,0,38.3,142.57l1.013-1.173a1.369,1.369,0,1,0-2.075-1.787Zm-4.853,9.456-.987,1.147a1.131,1.131,0,0,1-1.712-1.477l.987-1.147,1.712,1.472Zm6.752-7.829-.987,1.147-1.712-1.472.987-1.147a1.131,1.131,0,1,1,1.712,1.477Z" transform="translate(-11.293 -136.899)" fill="#99c9df"/>
                  <path id="Trazado_873518" data-name="Trazado 873518" d="M41.8,139.83l-.363,1.5L39.5,144.192a4.843,4.843,0,0,0-.555,2.341l.443,3.339-.352,1.456a1.371,1.371,0,0,0,2.667.64l.352-1.456h0a8.838,8.838,0,0,0,2.224-4.005,8.2,8.2,0,0,0-.176-4.528l.363-1.509a1.371,1.371,0,1,0-2.667-.64Zm.021,10.629-.352,1.472a1.127,1.127,0,1,1-2.192-.523l.352-1.472,2.2.528ZM44.232,140.4l-.352,1.472-2.2-.528.352-1.472a1.129,1.129,0,1,1,2.2.523Z" transform="translate(-10.237 -136.938)" fill="#99c9df"/>
                  <path id="Trazado_873519" data-name="Trazado 873519" d="M17.8,141.4l1.008,1.173L20,145.812a4.811,4.811,0,0,0,1.579,1.813l2.965,1.589.981,1.136a1.369,1.369,0,0,0,2.075-1.787l-.981-1.136h0a8.848,8.848,0,0,0-1.952-4.144,8.234,8.234,0,0,0-3.781-2.5l-1.013-1.173a1.369,1.369,0,0,0-2.075,1.787Zm8.64,6.187.987,1.147a1.131,1.131,0,0,1-1.712,1.477l-.987-1.147,1.712-1.477Zm-6.757-7.829.987,1.147-1.712,1.477-.987-1.147a1.131,1.131,0,0,1,1.712-1.477Z" transform="translate(-12.563 -136.899)" fill="#054779"/>
                  <path id="Trazado_873520" data-name="Trazado 873520" d="M26.094,139.028l.6,1.424.133,3.451a4.7,4.7,0,0,0,.325,1.147,4.8,4.8,0,0,0,.619,1.061l2.331,2.432.581,1.381a1.372,1.372,0,0,0,2.528-1.067l-.581-1.381h0a8.79,8.79,0,0,0-.581-4.544,8.161,8.161,0,0,0-2.827-3.547l-.6-1.429a1.372,1.372,0,0,0-2.528,1.067Zm6.309,8.549.587,1.392a1.128,1.128,0,1,1-2.08.875l-.587-1.392,2.08-.875Zm-4.011-9.531.587,1.392-2.08.875-.587-1.392a1.128,1.128,0,0,1,2.08-.875Z" transform="translate(-11.641 -137.118)" fill="#054779"/>
                  <path id="Trazado_873521" data-name="Trazado 873521" d="M45.357,140.367l-.107,1.541-1.435,3.141a4.865,4.865,0,0,0-.229,1.173,4.981,4.981,0,0,0,.075,1.227l.992,3.216-.1,1.493a1.371,1.371,0,1,0,2.736.187l.1-1.493h0a8.812,8.812,0,0,0,1.525-4.32,8.154,8.154,0,0,0-.933-4.437l.107-1.547a1.371,1.371,0,1,0-2.736-.187Zm1.792,10.475-.1,1.509a1.131,1.131,0,0,1-2.256-.155l.1-1.509Zm.7-10.315-.1,1.509-2.256-.155.1-1.509a1.131,1.131,0,1,1,2.256.155Z" transform="translate(-9.736 -136.905)" fill="#054779"/>
                  <path id="Trazado_873522" data-name="Trazado 873522" d="M18.97,139.714l-.3,1.515-1.829,2.933a5.036,5.036,0,0,0-.379,1.131,4.724,4.724,0,0,0-.085,1.227l.565,3.317-.293,1.472a1.371,1.371,0,1,0,2.688.544l.293-1.472h0A8.842,8.842,0,0,0,21.7,146.3a8.2,8.2,0,0,0-.347-4.523l.3-1.52a1.371,1.371,0,1,0-2.688-.544Zm.421,10.613-.3,1.483a1.129,1.129,0,0,1-2.213-.443l.3-1.483Zm2.032-10.139-.3,1.483-2.213-.443.3-1.483a1.129,1.129,0,1,1,2.213.443Z" transform="translate(-12.682 -136.956)" fill="#99c9df"/>
                  <path id="Trazado_873523" data-name="Trazado 873523" d="M22.948,139.843l.517,1.456-.069,3.456a4.865,4.865,0,0,0,.256,1.168,5.059,5.059,0,0,0,.555,1.1l2.187,2.56.5,1.413a1.371,1.371,0,1,0,2.587-.912l-.5-1.413h0a8.8,8.8,0,0,0-.315-4.571,8.279,8.279,0,0,0-2.613-3.707l-.517-1.461a1.371,1.371,0,1,0-2.587.912Zm5.8,8.907.5,1.424a1.128,1.128,0,1,1-2.128.752l-.5-1.424ZM25.3,139l.5,1.424-2.128.752-.5-1.424A1.128,1.128,0,1,1,25.3,139Z" transform="translate(-11.977 -137.02)" fill="#99c9df"/>
                  <g id="Grupo_1099521" data-name="Grupo 1099521" transform="translate(0 10.582)">
                    <g id="Grupo_1099520" data-name="Grupo 1099520">
                      <rect id="Rectángulo_401340" data-name="Rectángulo 401340" width="43.237" height="4.235" fill="#f8b445"/>
                      <path id="Trazado_873524" data-name="Trazado 873524" d="M16.025,150.444l2.805,43.451a2.218,2.218,0,0,0,2.315,1.915l26.379.181a2.224,2.224,0,0,0,2.352-1.92l2.773-43.627Z" transform="translate(-12.718 -146.257)" fill="#ef9c22"/>
                      <path id="Trazado_873525" data-name="Trazado 873525" d="M16.136,153.206l2.453,40.571a1.981,1.981,0,0,0,2.027,1.787l23.083.171a1.982,1.982,0,0,0,2.059-1.792l2.427-40.736H16.136Z" transform="translate(-12.707 -145.958)" fill="#f8b445"/>
                      <path id="Trazado_873526" data-name="Trazado 873526" d="M16.136,153.207l2.4-.011,2.928,42.373H19.533a.953.953,0,0,1-1-.827l-2.389-41.536Z" transform="translate(-12.707 -145.959)" fill="#ffb850"/>
                    </g>
                    <rect id="Rectángulo_401341" data-name="Rectángulo 401341" width="28.661" height="6.955" transform="translate(6.981 20.837)" fill="#fff"/>
                    <text id="MASK" transform="translate(11.637 26.22)" fill="#033351" font-size="6" font-family="Montserrat-Black, Montserrat" font-weight="800"><tspan x="0" y="0">MASK</tspan></text>
                  </g>
                </g>
              </g>
              <rect id="Rectángulo_401342" data-name="Rectángulo 401342" width="298.011" height="39.765" transform="translate(46.277 -7.371)" fill="#fff"/>
              <g id="Grupo_1099524" data-name="Grupo 1099524" transform="translate(209.007 181.774)">
                <path id="Trazado_873527" data-name="Trazado 873527" d="M189.056,175.86l16.571-6.965L222.2,175.86a.761.761,0,0,1-.293,1.461H189.349a.761.761,0,0,1-.293-1.461Z" transform="translate(-188.591 -163.49)" fill="none" stroke="#2c2b3a" stroke-miterlimit="10" stroke-width="0.481"/>
                <path id="Trazado_873528" data-name="Trazado 873528" d="M204.143,169.417v-1.424s1.509-2.155,1.515-2.16c.053-.075.027-.3.021-.389a1.574,1.574,0,0,0-.224-.789,1.784,1.784,0,0,0-2.715-.021l-.443.491" transform="translate(-187.107 -164.018)" fill="none" stroke="#2c2b3a" stroke-miterlimit="10" stroke-width="0.481"/>
              </g>
              <g id="Grupo_1099525" data-name="Grupo 1099525" transform="translate(171.673 182.19)">
                <path id="Trazado_873529" data-name="Trazado 873529" d="M155.369,176.23l16.571-6.965,16.571,6.965a.761.761,0,0,1-.293,1.461H155.663a.761.761,0,0,1-.293-1.461Z" transform="translate(-154.904 -163.866)" fill="none" stroke="#2c2b3a" stroke-miterlimit="10" stroke-width="0.481"/>
                <path id="Trazado_873530" data-name="Trazado 873530" d="M170.456,169.793v-1.424s1.509-2.155,1.515-2.16c.053-.075.027-.3.021-.389a1.574,1.574,0,0,0-.224-.789,1.784,1.784,0,0,0-2.715-.021l-.443.491" transform="translate(-153.42 -164.393)" fill="none" stroke="#2c2b3a" stroke-miterlimit="10" stroke-width="0.481"/>
              </g>
              <g id="Grupo_1099527" data-name="Grupo 1099527" transform="translate(135.049 182.19)">
                <g id="Grupo_1099526" data-name="Grupo 1099526">
                  <path id="Trazado_873531" data-name="Trazado 873531" d="M122.323,176.23l16.571-6.965,16.571,6.965a.761.761,0,0,1-.293,1.461H122.616A.761.761,0,0,1,122.323,176.23Z" transform="translate(-121.857 -163.866)" fill="none" stroke="#2c2b3a" stroke-miterlimit="10" stroke-width="0.481"/>
                  <path id="Trazado_873532" data-name="Trazado 873532" d="M137.41,169.793v-1.424s1.509-2.155,1.515-2.16c.053-.075.027-.3.021-.389a1.574,1.574,0,0,0-.224-.789,1.784,1.784,0,0,0-2.715-.021l-.443.491" transform="translate(-120.374 -164.393)" fill="none" stroke="#2c2b3a" stroke-miterlimit="10" stroke-width="0.481"/>
                </g>
                <path id="Trazado_873533" data-name="Trazado 873533" d="M129.065,192.205l-.747,1.771-1.84-20.827,1.84-.843Z" transform="translate(-121.357 -163.537)" fill="#7566ff"/>
                <path id="Trazado_873534" data-name="Trazado 873534" d="M147.138,181.318l-1.429,12.7V171.878l1.957,1.035Z" transform="translate(-119.275 -163.583)" fill="#7566ff"/>
                <path id="Trazado_873535" data-name="Trazado 873535" d="M147.706,193.1H128.234l-.976-12.7h21.877Z" transform="translate(-121.273 -162.661)" fill="#7566ff"/>
                <rect id="Rectángulo_401343" data-name="Rectángulo 401343" width="23.381" height="13.568" transform="translate(5.009 33.655)" fill="#7566ff"/>
                <path id="Trazado_873536" data-name="Trazado 873536" d="M149.759,195.2H126.377l1.952-4.464H147.8Z" transform="translate(-121.368 -161.542)" fill="#ef0080"/>
              </g>
              <path id="Trazado_873537" data-name="Trazado 873537" d="M105.625,178.026h-2.4V115.652a1.2,1.2,0,0,1,1.2-1.2h0a1.2,1.2,0,0,1,1.2,1.2Z" transform="translate(11.175 12.39)" fill="#054779"/>
              <path id="Trazado_873538" data-name="Trazado 873538" d="M156.217,178.026h-2.4V115.652a1.2,1.2,0,0,1,1.2-1.2h0a1.2,1.2,0,0,1,1.2,1.2Z" transform="translate(16.652 12.39)" fill="#054779"/>
              <path id="Trazado_873539" data-name="Trazado 873539" d="M206.81,178.026h-2.4V115.652a1.2,1.2,0,0,1,1.2-1.2h0a1.2,1.2,0,0,1,1.2,1.2Z" transform="translate(22.129 12.39)" fill="#054779"/>
              <path id="Trazado_873540" data-name="Trazado 873540" d="M110.767,133.813c-.608-2.565,1.989-4.992,1.989-4.992V121.9c-2.837-.709-4.859-3.915-4.859-3.915a2.755,2.755,0,0,1-2.763,1.483c-2.235-.032-2.763-1.483-2.763-1.483s-2.027,3.205-4.859,3.915v6.917s2.6,2.432,1.989,4.992c0,0-3.947,10.565-4.016,15.963v13.365h19.3V149.776c-.069-5.4-4.016-15.963-4.016-15.963Z" transform="translate(10.337 12.773)" fill="#85e8b0"/>
              <path id="Trazado_873541" data-name="Trazado 873541" d="M204.336,176.079c1.221.213,4.6-6.2,4.6-6.2,1.744,2.187-1.243,10.891-1.243,10.891,6.309,5.083,6.336,15.205,6.336,15.205v.485H195.691s-.507-10.112,5.531-15.515c0,0-3.44-8.539-1.808-10.811,0,0,3.712,6.229,4.917,5.957" transform="translate(21.184 18.39)" fill="#ef0080"/>
              <path id="Trazado_873542" data-name="Trazado 873542" d="M155.755,124.389c1.221.213,4.6-6.2,4.6-6.2,1.744,2.187-1.243,10.891-1.243,10.891,6.309,5.083,6.336,15.205,6.336,15.205v.485H147.11s-.507-10.112,5.531-15.515c0,0-3.44-8.539-1.808-10.811,0,0,3.712,6.229,4.917,5.957" transform="translate(15.925 12.795)" fill="#edc02d"/>
              <path id="Trazado_873543" data-name="Trazado 873543" d="M179.378,198.94l-3.237-10.048c2.971-3.317,2.213-8.048,2.213-8.048a2.424,2.424,0,0,0-.395-1.072v-8.2l-6.88,5.067-6.88-5.067v7.92a2.222,2.222,0,0,0-.619,1.349s-.757,4.731,2.213,8.048l-3.237,10.048s5.493,4.2,8.261,4.821v.064a1.493,1.493,0,0,0,.149-.032c.048.011.107.027.149.032v-.064c2.768-.619,8.261-4.821,8.261-4.821ZM177.634,172.2v7.221a3.477,3.477,0,0,0-3.061-.2l-3.232-2.379,6.293-4.635Zm-13.12,7.051V172.2l6.293,4.635-3.339,2.459a3.871,3.871,0,0,0-2.96-.043Zm6.3,1.632a16.774,16.774,0,0,0-2.976-1.467l3.237-2.384,3.12,2.3a17.591,17.591,0,0,0-3.381,1.557Z" transform="translate(17.598 18.574)" fill="#da46b6"/>
              <path id="Trazado_873544" data-name="Trazado 873544" d="M213.723,141.1l-2.885-8.96c2.651-2.955,1.973-7.173,1.973-7.173a2.193,2.193,0,0,0-.352-.955v-7.307l-6.133,4.517-6.133-4.517v7.061a2.007,2.007,0,0,0-.549,1.2s-.677,4.219,1.973,7.173l-2.885,8.96s4.9,3.749,7.365,4.3v.059c.043-.005.091-.021.133-.027s.091.021.133.027V145.4c2.464-.549,7.365-4.3,7.365-4.3Zm-1.552-23.84V123.7a3.107,3.107,0,0,0-2.731-.181l-2.88-2.123,5.611-4.133Zm-11.7,6.288v-6.288l5.611,4.133-2.976,2.192A3.441,3.441,0,0,0,200.47,123.552Zm5.616,1.456a14.707,14.707,0,0,0-2.651-1.307l2.885-2.128,2.779,2.048A15.519,15.519,0,0,0,206.086,125.008Z" transform="translate(21.514 12.635)" fill="#da46b6"/>
              <rect id="Rectángulo_401344" data-name="Rectángulo 401344" width="111.525" height="2.661" transform="translate(134.608 183.301)" fill="#033351"/>
              <rect id="Rectángulo_401345" data-name="Rectángulo 401345" width="68.539" height="2.661" rx="0.784" transform="translate(244.256 246.72) rotate(-90)" fill="#033351"/>
              <rect id="Rectángulo_401346" data-name="Rectángulo 401346" width="68.539" height="2.661" rx="0.784" transform="translate(134.613 246.725) rotate(-90)" fill="#033351"/>
              <g id="Grupo_1099532" data-name="Grupo 1099532" transform="translate(253.419 146.133)">
                <rect id="Rectángulo_401347" data-name="Rectángulo 401347" width="65.755" height="1.733" transform="translate(0.005 3.333)" fill="#054779"/>
                <path id="Trazado_873545" data-name="Trazado 873545" d="M288.17,132.728v42.928a.869.869,0,0,1-.869.869h0a.869.869,0,0,1-.869-.869V132.728a.869.869,0,0,1,.869-.869h0A.869.869,0,0,1,288.17,132.728Z" transform="translate(-222.41 -131.859)" fill="#054779"/>
                <path id="Trazado_873546" data-name="Trazado 873546" d="M230.4,132.728v42.928a.87.87,0,0,1-.869.869h0a.87.87,0,0,1-.869-.869V132.728a.87.87,0,0,1,.869-.869h0A.87.87,0,0,1,230.4,132.728Z" transform="translate(-228.664 -131.859)" fill="#054779"/>
                <g id="Grupo_1099528" data-name="Grupo 1099528" transform="translate(8.832 3.824)">
                  <rect id="Rectángulo_401348" data-name="Rectángulo 401348" width="1.531" height="16.011" transform="translate(1.301)" fill="#054779"/>
                  <rect id="Rectángulo_401349" data-name="Rectángulo 401349" width="4.133" height="25.504" transform="translate(0 6.512)" fill="#7566ff"/>
                </g>
                <g id="Grupo_1099529" data-name="Grupo 1099529" transform="translate(54.997 3.824)">
                  <rect id="Rectángulo_401350" data-name="Rectángulo 401350" width="1.531" height="16.011" transform="translate(1.307)" fill="#054779"/>
                  <rect id="Rectángulo_401351" data-name="Rectángulo 401351" width="4.133" height="25.504" transform="translate(0 6.512)" fill="#da46b6"/>
                </g>
                <g id="Grupo_1099530" data-name="Grupo 1099530" transform="translate(39.611 3.824)">
                  <rect id="Rectángulo_401352" data-name="Rectángulo 401352" width="1.531" height="16.011" transform="translate(1.301)" fill="#054779"/>
                  <rect id="Rectángulo_401353" data-name="Rectángulo 401353" width="4.133" height="25.504" transform="translate(0 6.512)" fill="#edc02d"/>
                </g>
                <g id="Grupo_1099531" data-name="Grupo 1099531" transform="translate(24.224 3.824)">
                  <rect id="Rectángulo_401354" data-name="Rectángulo 401354" width="1.531" height="16.011" transform="translate(1.301)" fill="#054779"/>
                  <rect id="Rectángulo_401355" data-name="Rectángulo 401355" width="4.133" height="25.504" transform="translate(0 6.512)" fill="#ef0080"/>
                </g>
              </g>
              <g id="Grupo_1099538" data-name="Grupo 1099538" transform="translate(277.926 125.824)">
                <path id="Trazado_873547" data-name="Trazado 873547" d="M275.739,123.124l.021,6.069-4.939,2.923-.059-6.747Z" transform="translate(-248.614 -112.495)" fill="#ffdcdc"/>
                <path id="Trazado_873548" data-name="Trazado 873548" d="M283.868,188.847l.976,1.941-1.264.992-1.3-2.331Z" transform="translate(-247.367 -105.38)" fill="#ffdcdc"/>
                <path id="Trazado_873549" data-name="Trazado 873549" d="M261,190.724l-.512,1.675-1.557-.651.651-2.213Z" transform="translate(-249.895 -105.305)" fill="#ffdcdc"/>
                <path id="Trazado_873550" data-name="Trazado 873550" d="M266.395,146.156l-8.853,9.893c-.224.08-.5.187-.533.2a3.239,3.239,0,0,0-1.621.757c-.437.485-.907.949-1.317,1.456a4.442,4.442,0,0,0-.864,1.925c0,.283-.075.576-.08.864a.169.169,0,0,0,.011.075.13.13,0,0,0,.075.053c.352.144.373.016.507-.288a2.851,2.851,0,0,1,.427-.741c.187-.229.373-.464.56-.693a3.243,3.243,0,0,1,.976-.72,6.5,6.5,0,0,0,.757-.352,1.079,1.079,0,0,1-.48,1.024,1.378,1.378,0,0,0-.576.219.257.257,0,0,0,.08.459.722.722,0,0,0,.352-.021,3.307,3.307,0,0,0,2.475-1.861,3.973,3.973,0,0,0,.283-.917h0l12.059-11.157.123-10.368-4.357,10.208Z" transform="translate(-250.523 -111.105)" fill="#ffdcdc"/>
                <path id="Trazado_873551" data-name="Trazado 873551" d="M285.489,193.381l-6.037-13.552-.619-28.5-9.216-1.312,1.813,13.792,4.533,17.024,7.979,13.936Z" transform="translate(-248.738 -109.583)" fill="#74d199"/>
                <path id="Trazado_873552" data-name="Trazado 873552" d="M259.8,191.109l-.795.768-7.6-2.053-.352.683-.149.267,10.037,4.416.107-.267.731-2.981Z" transform="translate(-250.763 -105.274)" fill="#191919"/>
                <path id="Trazado_873553" data-name="Trazado 873553" d="M283.294,190.985l.272,1.067-5.589,5.552.416.64.155.267,8.853-6.475-.176-.224-2.213-2.128Z" transform="translate(-247.833 -105.289)" fill="#191919"/>
                <path id="Trazado_873554" data-name="Trazado 873554" d="M279.96,151.351l-11.936,24.235-7,20.091-1.813-.832L263.63,174.6l6.091-24.752Z" transform="translate(-249.865 -109.602)" fill="#74d199"/>
                <path id="Trazado_873555" data-name="Trazado 873555" d="M270.6,131.405l-2.512,7.115-1.216,21.808,8.395-.437,5.125-.272-.133-13.493,2.187-11.707-6.192-5.808Z" transform="translate(-249.035 -111.901)" fill="#3a48b0"/>
                <path id="Trazado_873556" data-name="Trazado 873556" d="M289.288,160.885a2.7,2.7,0,0,0-.277-.555l-.592-1.2-.144-.352c-.645-3.269-2.24-11.669-2.24-11.669q-.9-2.584-1.787-5.173-1.28-3.7-2.555-7.408c-.123-.363-.517-.629-.795-.891-.341-.32-.683-.64-1.024-.965-.453-.427-.9-.853-1.355-1.275a6.763,6.763,0,0,1-.581,1.4c-.272.608-.544,1.216-.811,1.829a8.655,8.655,0,0,0-.651,1.621c-.117.571.293.928.565,1.387.347.587.693,1.173,1.045,1.76.683,1.157,1.365,2.309,2.048,3.467q1.464,2.48,2.933,4.96c.016.032.037.064.053.091l.96,3.925,2.523,7.349h0c.053.1.085.176.1.208a3.54,3.54,0,0,0-.3.491,3.182,3.182,0,0,0-.261,2.357,3.377,3.377,0,0,0,.475,1.045c.08.1.235.32.379.331.117.011.229-.117.309-.187a3.222,3.222,0,0,0-.2-.64,1.365,1.365,0,0,1-.128-.5.792.792,0,0,1,.224-.491c.347-.288.459.517.512.7a4.919,4.919,0,0,1-.011,2.549,5.681,5.681,0,0,0-.272.683c-.011.075-.037.053.021.117.176.192.395.048.528-.085a4,4,0,0,0,.693-.912,4.154,4.154,0,0,0,.5-1.387c.085-.64.053-1.291.117-1.936a1.934,1.934,0,0,0,.005-.656Z" transform="translate(-247.997 -111.599)" fill="#ffdcdc"/>
                <path id="Trazado_873557" data-name="Trazado 873557" d="M268.726,113.875l-.651.741c-.011,1.291-.027,2.581-.037,3.872,0,3.125-.037,6.251-.085,9.371a1.464,1.464,0,0,0,.181.885,1.327,1.327,0,0,0,1.339.336,6.86,6.86,0,0,0,1.893-1.115c1.387-.9,2.821-1.712,4.235-2.56a9.112,9.112,0,0,0,3.483-6.309" transform="translate(-248.918 -113.496)" fill="#ffdcdc"/>
                <path id="Trazado_873558" data-name="Trazado 873558" d="M275.294,124.314c-1.413.848-2.848,1.669-4.235,2.56-.1.064-.192.128-.283.192v.661q.16-.1.3-.208c1.387-.9,2.821-1.712,4.235-2.56a5.323,5.323,0,0,0,.427-.336v-.667a5.111,5.111,0,0,1-.448.352Z" transform="translate(-248.612 -112.405)" fill="#fcc5c5"/>
                <path id="Trazado_873559" data-name="Trazado 873559" d="M276.16,125.149l-.363-1.211a9.62,9.62,0,0,1-.251-1.739c-.021-.293-.032-.587-.043-.88-.011-.336-.032-.347-.325-.5-.773-.405-1.707-.72-2.027-1.579-.171-.448-.091-1.173-.384-1.547a1.529,1.529,0,0,0-1.189-.5,6.106,6.106,0,0,0-1.312.2,5.255,5.255,0,0,1-3.669-.3,1.074,1.074,0,0,0,.587-.235,1.25,1.25,0,0,1-.608-.5.656.656,0,0,0,.784-.389,1.28,1.28,0,0,1-.379-.448,6.527,6.527,0,0,1,1.84-1.584,5.659,5.659,0,0,1,3.029-.347,10.746,10.746,0,0,1,5.195,1.621,5.369,5.369,0,0,1,2.464,4.635,7.2,7.2,0,0,1-2.267,4.608c-.053.053-1.035.853-1.077.7Z" transform="translate(-249.067 -113.533)" fill="#191919"/>
                <path id="Trazado_873560" data-name="Trazado 873560" d="M274.281,119.791c.619-.5,1.36.789,1.28,1.579a1.441,1.441,0,0,1-1.579,1.28S274.2,119.855,274.281,119.791Z" transform="translate(-248.265 -112.868)" fill="#ffcaca"/>
                <path id="Trazado_873561" data-name="Trazado 873561" d="M273.608,119.371s.4,2.293-.213,2.811a2.2,2.2,0,0,0,1.595-2.491l-1.376-.32Z" transform="translate(-248.329 -112.901)" fill="#191919"/>
                <path id="Trazado_873562" data-name="Trazado 873562" d="M281.693,134.532c-.123-.363-.517-.629-.795-.891-.341-.32-.683-.64-1.024-.965-.453-.427-.9-.853-1.355-1.275a6.759,6.759,0,0,1-.581,1.4c-.272.608-.544,1.216-.811,1.829a8.655,8.655,0,0,0-.651,1.621c-.117.571.293.928.565,1.387.347.587.693,1.173,1.045,1.76.245.416.491.827.736,1.243l4.891-.283q-1.008-2.912-2.011-5.829Z" transform="translate(-247.997 -111.599)" fill="#4e62c6"/>
                <path id="Trazado_873563" data-name="Trazado 873563" d="M266.008,143.514l2.037.528.064-5.451Z" transform="translate(-249.128 -110.82)" fill="#4e62c6"/>
                <g id="Grupo_1099534" data-name="Grupo 1099534" transform="translate(0 47.83)">
                  <g id="Grupo_1099533" data-name="Grupo 1099533" transform="translate(0.442 2.842)">
                    <path id="Trazado_873564" data-name="Trazado 873564" d="M257.4,165.7a10.541,10.541,0,0,1-2.949,4.453l-2.96-.971-.192-3.931a5.692,5.692,0,0,1,.864-2.667l2.565-3.195,2.9.955a9.776,9.776,0,0,1-.229,5.349Z" transform="translate(-251.163 -159.241)" fill="#fff"/>
                    <path id="Trazado_873565" data-name="Trazado 873565" d="M251.715,163.906a5.554,5.554,0,0,1,.576-1.221l2.5-3.115,2.741.9a9.68,9.68,0,0,1-.245,5.2,10.56,10.56,0,0,1-2.848,4.347l-2.8-.917-.187-3.829a5.67,5.67,0,0,1,.261-1.365m-.261-.085a5.822,5.822,0,0,0-.277,1.445l.2,4.032,3.12,1.024a10.55,10.55,0,0,0,3.045-4.565,9.736,9.736,0,0,0,.208-5.5l-3.061-1-2.629,3.275a5.958,5.958,0,0,0-.613,1.291h0Z" transform="translate(-251.176 -159.255)" fill="#054779"/>
                  </g>
                  <path id="Trazado_873566" data-name="Trazado 873566" d="M254.628,169.105l-.645,1.963a1.644,1.644,0,1,1-3.125-1.024l.645-1.963,3.12,1.024Zm-3.5,1.045a1.353,1.353,0,0,0,2.571.843l.565-1.723-2.571-.843Z" transform="translate(-250.777 -155.458)" fill="#054779"/>
                  <path id="Trazado_873567" data-name="Trazado 873567" d="M254.256,159.784l.645-1.963a1.644,1.644,0,1,1,3.125,1.024l-.645,1.963-3.12-1.024Zm.363-.171,2.571.843.565-1.723a1.353,1.353,0,1,0-2.571-.843l-.565,1.723Z" transform="translate(-250.401 -156.691)" fill="#054779"/>
                </g>
                <path id="Trazado_873568" data-name="Trazado 873568" d="M256.195,156.739a.8.8,0,0,1-.075.187.95.95,0,0,1-.368.411,1.378,1.378,0,0,0-.576.219.257.257,0,0,0,.08.459.723.723,0,0,0,.352-.021,4.54,4.54,0,0,0,1.125-.411c.059-.032.117-.069.176-.107a1.183,1.183,0,0,0-.715-.731Z" transform="translate(-250.313 -108.856)" fill="#ffdcdc"/>
                <g id="Grupo_1099537" data-name="Grupo 1099537" transform="translate(28.709 51.186)">
                  <path id="Trazado_873569" data-name="Trazado 873569" d="M277.951,161.893h20.773l1.776,27.381H276.682Z" transform="translate(-276.682 -159.484)" fill="#edc02d"/>
                  <g id="Grupo_1099535" data-name="Grupo 1099535" transform="translate(9.531 2.857)">
                    <ellipse id="Elipse_11497" data-name="Elipse 11497" cx="0.576" cy="0.587" rx="0.576" ry="0.587" fill="#4960c8"/>
                    <path id="Trazado_873570" data-name="Trazado 873570" d="M286.158,162.859a.325.325,0,1,1-.325-.331A.328.328,0,0,1,286.158,162.859Z" transform="translate(-285.257 -162.272)" fill="#efc941"/>
                  </g>
                  <g id="Grupo_1099536" data-name="Grupo 1099536" transform="translate(12.821 2.889)">
                    <path id="Trazado_873571" data-name="Trazado 873571" d="M289.371,162.9a.56.56,0,1,1-.56-.571A.566.566,0,0,1,289.371,162.9Z" transform="translate(-288.251 -162.326)" fill="#4960c8"/>
                    <path id="Trazado_873572" data-name="Trazado 873572" d="M289.1,162.872a.325.325,0,0,1-.315.325.326.326,0,1,1,.315-.325Z" transform="translate(-288.227 -162.302)" fill="#efc941"/>
                  </g>
                  <path id="Trazado_873573" data-name="Trazado 873573" d="M289.118,163.413h-.027a.154.154,0,0,1-.112-.181,4.6,4.6,0,0,0-.112-2.085,1.8,1.8,0,0,0-.619-.907,1.327,1.327,0,0,0-1.115-.139,1.863,1.863,0,0,0-1.221,1.36,4.264,4.264,0,0,0-.032,1.4c.005.069.016.144.027.213a.153.153,0,0,1-.117.176.15.15,0,0,1-.16-.133c-.011-.075-.021-.149-.027-.224a4.561,4.561,0,0,1,.043-1.515,2.165,2.165,0,0,1,1.419-1.584,1.58,1.58,0,0,1,1.339.176,2.077,2.077,0,0,1,.725,1.061,5.024,5.024,0,0,1,.128,2.245.143.143,0,0,1-.139.128Z" transform="translate(-275.721 -159.719)" fill="#4960c8"/>
                </g>
                <path id="Trazado_873574" data-name="Trazado 873574" d="M286.734,159.884a4.893,4.893,0,0,1-.1,2.155,5.688,5.688,0,0,0-.272.683c-.011.075-.037.053.021.117.176.192.395.048.528-.085a4,4,0,0,0,.693-.912,4.153,4.153,0,0,0,.5-1.387c.059-.459.064-.928.08-1.392a12.159,12.159,0,0,1-1.445.827Z" transform="translate(-246.927 -108.604)" fill="#ffdcdc"/>
              </g>
              <rect id="Rectángulo_401356" data-name="Rectángulo 401356" width="73.456" height="49.392" transform="translate(323.355 210.864)" fill="#08547a"/>
              <rect id="Rectángulo_401357" data-name="Rectángulo 401357" width="73.456" height="2.832" transform="translate(323.355 228.272)" fill="#033351"/>
              <rect id="Rectángulo_401358" data-name="Rectángulo 401358" width="73.456" height="2.832" transform="translate(323.355 247.76)" fill="#033351"/>
              <g id="Grupo_1099540" data-name="Grupo 1099540" transform="translate(344.657 217.228)">
                <path id="Trazado_873575" data-name="Trazado 873575" d="M1.456,0H28.363a1.454,1.454,0,0,1,1.456,1.456v.2H0v-.2A1.454,1.454,0,0,1,1.456,0Z" transform="matrix(-1, -0.008, 0.008, -1, 29.818, 11.041)" fill="#fff"/>
                <g id="Grupo_1099539" data-name="Grupo 1099539" transform="translate(0.005)">
                  <path id="Trazado_873576" data-name="Trazado 873576" d="M311.592,200.386h-.16l.443-4.341a.042.042,0,0,1,.069-.027,9.6,9.6,0,0,0,3.445,1.824,7.977,7.977,0,0,0,3.205,2.075,11.911,11.911,0,0,0,5.616.416c.864-.123,1.723-.309,2.6-.368a9.031,9.031,0,0,1,3.744.539c.891.331,1.723.8,2.592,1.184a6.354,6.354,0,0,0,2.747.651,3.165,3.165,0,0,0,2.1-.853l1.573.571a1.843,1.843,0,0,1,1.216,1.749l-.011,1.6-23.973-.192a5.26,5.26,0,0,0-5.2-4.827Z" transform="translate(-310.947 -196.008)" fill="#da46b6"/>
                  <path id="Trazado_873577" data-name="Trazado 873577" d="M311.479,199.963h.16a5.26,5.26,0,0,1,5.2,4.827l-5.845-.048.485-4.779Z" transform="translate(-310.994 -195.58)" fill="#fff"/>
                  <path id="Trazado_873578" data-name="Trazado 873578" d="M332.757,201.687c-.869-.384-1.7-.853-2.592-1.184a8.945,8.945,0,0,0-3.744-.539c-.875.059-1.728.245-2.6.368a12.049,12.049,0,0,1-5.616-.416A7.921,7.921,0,0,1,315,197.842a8.657,8.657,0,0,0,7.579-1.781L337.6,201.49a3.176,3.176,0,0,1-2.1.853,6.279,6.279,0,0,1-2.747-.651Z" transform="translate(-310.56 -196.003)" fill="#fff"/>
                </g>
              </g>
              <g id="Grupo_1099542" data-name="Grupo 1099542" transform="translate(345.147 199.58)">
                <path id="Trazado_873579" data-name="Trazado 873579" d="M0,0H29.819V.2a1.454,1.454,0,0,1-1.456,1.456H1.456A1.454,1.454,0,0,1,0,.2V0Z" transform="matrix(1, -0.008, 0.008, 1, 0.024, 9.381)" fill="#033351"/>
                <g id="Grupo_1099541" data-name="Grupo 1099541">
                  <path id="Trazado_873580" data-name="Trazado 873580" d="M340.616,184.462h.16l-.443-4.341a.042.042,0,0,0-.069-.027,9.6,9.6,0,0,1-3.445,1.824,7.977,7.977,0,0,1-3.205,2.075,11.911,11.911,0,0,1-5.616.416c-.864-.123-1.723-.309-2.6-.368a9.031,9.031,0,0,0-3.744.539c-.891.331-1.723.8-2.592,1.184a6.354,6.354,0,0,1-2.747.651,3.165,3.165,0,0,1-2.1-.853l-1.573.571a1.843,1.843,0,0,0-1.216,1.749l.011,1.6,23.973-.192a5.26,5.26,0,0,1,5.2-4.827Z" transform="translate(-311.432 -180.084)" fill="#fff"/>
                  <path id="Trazado_873581" data-name="Trazado 873581" d="M338.433,184.034h-.16a5.26,5.26,0,0,0-5.2,4.827l5.845-.048-.485-4.779Z" transform="translate(-309.089 -179.657)" fill="#033351"/>
                  <path id="Trazado_873582" data-name="Trazado 873582" d="M318.8,185.758c.869-.384,1.7-.853,2.592-1.184a8.945,8.945,0,0,1,3.744-.539c.875.059,1.728.245,2.6.368a12.049,12.049,0,0,0,5.616-.416,7.921,7.921,0,0,0,3.205-2.075,8.657,8.657,0,0,1-7.579-1.781l-15.019,5.429a3.176,3.176,0,0,0,2.1.853,6.279,6.279,0,0,0,2.747-.651Z" transform="translate(-311.159 -180.079)" fill="#033351"/>
                </g>
              </g>
              <g id="Grupo_1099544" data-name="Grupo 1099544" transform="translate(345.147 236.908)">
                <path id="Trazado_873583" data-name="Trazado 873583" d="M0,0H29.819V.2a1.454,1.454,0,0,1-1.456,1.456H1.456A1.454,1.454,0,0,1,0,.2V0Z" transform="matrix(1, -0.008, 0.008, 1, 0.025, 9.385)" fill="#fff"/>
                <g id="Grupo_1099543" data-name="Grupo 1099543">
                  <path id="Trazado_873584" data-name="Trazado 873584" d="M340.616,218.144h.16l-.443-4.341a.042.042,0,0,0-.069-.027,9.6,9.6,0,0,1-3.445,1.824,7.977,7.977,0,0,1-3.205,2.075,11.911,11.911,0,0,1-5.616.416c-.864-.123-1.723-.309-2.6-.368a9.031,9.031,0,0,0-3.744.539c-.891.331-1.723.8-2.592,1.184a6.354,6.354,0,0,1-2.747.651,3.165,3.165,0,0,1-2.1-.853l-1.573.571a1.843,1.843,0,0,0-1.216,1.749l.011,1.6,23.973-.192a5.26,5.26,0,0,1,5.2-4.827Z" transform="translate(-311.432 -213.766)" fill="#7566ff"/>
                  <path id="Trazado_873585" data-name="Trazado 873585" d="M338.433,217.716h-.16a5.26,5.26,0,0,0-5.2,4.827l5.845-.048-.485-4.779Z" transform="translate(-309.089 -213.338)" fill="#ef0080"/>
                  <path id="Trazado_873586" data-name="Trazado 873586" d="M318.8,219.44c.869-.384,1.7-.853,2.592-1.184a8.945,8.945,0,0,1,3.744-.539c.875.059,1.728.245,2.6.368a12.049,12.049,0,0,0,5.616-.416,7.921,7.921,0,0,0,3.205-2.075,8.657,8.657,0,0,1-7.579-1.781l-15.019,5.429a3.176,3.176,0,0,0,2.1.853,6.279,6.279,0,0,0,2.747-.651Z" transform="translate(-311.159 -213.761)" fill="#ef0080"/>
                </g>
              </g>
              <path id="Trazado_873587" data-name="Trazado 873587" d="M87.941,226.59a12.606,12.606,0,0,0-.005-4.773,70.209,70.209,0,0,1-1.792-16.144c.043-2.9.245-5.781.245-8.688h-.619c0,2.848-.2,5.675-.24,8.517a68.661,68.661,0,0,0,1.76,15.829,12.349,12.349,0,0,1,.005,4.683c-.107.741-.432,2.624.389,3.083.08.043.165.091.256.133a6.278,6.278,0,0,1,0-2.64Z" transform="translate(9.259 21.325)" fill="#1b3a4f"/>
              <path id="Trazado_873588" data-name="Trazado 873588" d="M80.134,226.59a12.606,12.606,0,0,1,.005-4.773,70.21,70.21,0,0,0,1.792-16.144c-.043-2.9-.245-5.781-.245-8.688H82.3c0,2.848.2,5.675.24,8.517a68.659,68.659,0,0,1-1.76,15.829,12.349,12.349,0,0,0-.005,4.683c.107.741.432,2.624-.389,3.083-.08.043-.165.091-.256.133a6.278,6.278,0,0,0,0-2.64Z" transform="translate(8.522 21.325)" fill="#1b3a4f"/>
              <path id="Trazado_873589" data-name="Trazado 873589" d="M81,196.363l-2.9-.037V181.248h2.224Z" transform="translate(8.454 19.621)" fill="#efc941"/>
              <g id="Grupo_1099550" data-name="Grupo 1099550" transform="translate(67.728 142.443)">
                <ellipse id="Elipse_11498" data-name="Elipse 11498" cx="9.669" cy="12.112" rx="9.669" ry="12.112" transform="translate(15.445)" fill="#132051"/>
                <path id="Trazado_873590" data-name="Trazado 873590" d="M89.125,222.633c-.171.027-2.576-.475-2.661,2.843,0,0,.3,4.117,3.659,5.627,0,0,2.752-2.1,1.163-7.867a2.555,2.555,0,0,0-2.155-.6Z" transform="translate(-58.368 -118.345)" fill="#191919"/>
                <path id="Trazado_873591" data-name="Trazado 873591" d="M79.1,222.633c.171.027,2.576-.475,2.661,2.843,0,0-.3,4.117-3.659,5.627,0,0-2.752-2.1-1.163-7.867a2.555,2.555,0,0,1,2.155-.6Z" transform="translate(-59.452 -118.345)" fill="#191919"/>
                <path id="Trazado_873592" data-name="Trazado 873592" d="M80.039,148.618a25.039,25.039,0,0,0,1.616-5.744h5.1s.837,5.152,1.355,5.744H80.039Z" transform="translate(-59.063 -126.976)" fill="#f3d4d0"/>
                <path id="Trazado_873593" data-name="Trazado 873593" d="M93.705,178.437a.514.514,0,0,0-.224-.123,2.7,2.7,0,0,0-.549,0h-16.5c-.043,0-.848-.011-.848,0-.155,1.819-.6,3.211-.624,4.64,0,0-.491,4.976-.459,6.5.048,2.736,1.12,10.864,1.12,10.864A114.843,114.843,0,0,0,76.6,215.6c.267,1.872.56,3.739.827,5.611.235,1.643.795,3.6.491,5.243-.24,1.28-1.243,2.875-.725,4.192.581,1.477,2.587,1.056,3.664.453.816-.453.5-2.336.389-3.083a12.349,12.349,0,0,1,.005-4.683,68.955,68.955,0,0,0,1.76-15.829c-.032-2.315-.123-4.635-.219-6.949a23.038,23.038,0,0,1,.325-4.149,9.82,9.82,0,0,1,.981-3.675,1.1,1.1,0,0,1,.576-.533c.107-.032.357.395.395.448A8.648,8.648,0,0,1,85.977,195c.213.779.379,1.568.523,2.357a18.488,18.488,0,0,1,.437,3.195c.021,2.315-.187,4.635-.219,6.955a68.661,68.661,0,0,0,1.76,15.829,12.349,12.349,0,0,1,.005,4.683c-.107.741-.432,2.624.389,3.083,1.077.6,3.083,1.024,3.664-.453.517-1.317-.485-2.912-.725-4.192-.3-1.643.251-3.6.491-5.243.267-1.872.56-3.739.827-5.611a115.688,115.688,0,0,0,.971-15.285c.027-2.341.651-4.651.875-6.976.427-4.459.672-8.912-.523-13.28l-.016-.064a3.117,3.117,0,0,0-.725-1.557Z" transform="translate(-59.662 -123.141)" fill="#033351"/>
                <path id="Trazado_873594" data-name="Trazado 873594" d="M83.949,144.946a4.209,4.209,0,0,1-2.6-.949c-.053.256-.117.517-.181.784a4.263,4.263,0,0,0,2.784,1.1,4.366,4.366,0,0,0,3-1.3c-.053-.288-.1-.56-.144-.8a4.294,4.294,0,0,1-2.853,1.163Z" transform="translate(-58.941 -126.877)" fill="#eebeb4"/>
                <ellipse id="Elipse_11499" data-name="Elipse 11499" cx="5.531" cy="8.112" rx="5.531" ry="8.112" transform="translate(19.477 1.845)" fill="#f3d4d0"/>
                <path id="Trazado_873595" data-name="Trazado 873595" d="M90.19,135.8a6.117,6.117,0,1,0-12.235,0" transform="translate(-59.289 -128.404)" fill="#1d306d"/>
                <g id="Grupo_1099547" data-name="Grupo 1099547" transform="translate(0 54.663)">
                  <path id="Trazado_873596" data-name="Trazado 873596" d="M61.646,181.258H85.416l.949,31.387H61.112Z" transform="translate(-61.112 -177.483)" fill="#edc02d"/>
                  <g id="Grupo_1099545" data-name="Grupo 1099545" transform="translate(8.864 4.617)">
                    <path id="Trazado_873597" data-name="Trazado 873597" d="M71.361,183.133a1.125,1.125,0,1,1-1.125-1.115A1.12,1.12,0,0,1,71.361,183.133Z" transform="translate(-69.11 -182.018)" fill="#4960c8"/>
                    <path id="Trazado_873598" data-name="Trazado 873598" d="M70.827,183.085a.635.635,0,1,1-.635-.629A.632.632,0,0,1,70.827,183.085Z" transform="translate(-69.062 -181.971)" fill="#efc941"/>
                  </g>
                  <g id="Grupo_1099546" data-name="Grupo 1099546" transform="translate(15.275 4.681)">
                    <path id="Trazado_873599" data-name="Trazado 873599" d="M77.081,183.158a1.093,1.093,0,1,1-1.093-1.083A1.089,1.089,0,0,1,77.081,183.158Z" transform="translate(-74.895 -182.076)" fill="#4960c8"/>
                    <path id="Trazado_873600" data-name="Trazado 873600" d="M76.56,183.113a.619.619,0,1,1-.619-.613A.618.618,0,0,1,76.56,183.113Z" transform="translate(-74.848 -182.03)" fill="#efc941"/>
                  </g>
                  <path id="Trazado_873601" data-name="Trazado 873601" d="M76.592,184.058h-.048a.261.261,0,0,1-.219-.3,6.785,6.785,0,0,0-.219-3.515,3.035,3.035,0,0,0-1.205-1.525,2.914,2.914,0,0,0-2.171-.229,3.355,3.355,0,0,0-2.379,2.288,6.3,6.3,0,0,0-.064,2.357c.016.123.032.24.048.357a.264.264,0,0,1-.229.3.268.268,0,0,1-.309-.219c-.021-.128-.037-.251-.053-.379a6.791,6.791,0,0,1,.08-2.549,3.893,3.893,0,0,1,2.768-2.667,3.488,3.488,0,0,1,2.608.3,3.594,3.594,0,0,1,1.419,1.787,7.29,7.29,0,0,1,.245,3.787.269.269,0,0,1-.267.219Z" transform="translate(-60.187 -177.852)" fill="#4960c8"/>
                </g>
                <path id="Trazado_873602" data-name="Trazado 873602" d="M80.847,222.346q-1.7.016-3.4.027c-.363,1.136-.971,2.411-.539,3.5.581,1.477,2.587,1.056,3.664.453.816-.453.5-2.336.389-3.083-.043-.309-.08-.608-.117-.9Z" transform="translate(-59.418 -118.373)" fill="#ffdcdc"/>
                <path id="Trazado_873603" data-name="Trazado 873603" d="M87.227,222.283c-.037.32-.075.64-.123.981-.107.741-.432,2.624.389,3.083,1.077.6,3.083,1.024,3.664-.453.448-1.141-.245-2.491-.592-3.664-1.109.021-2.224.037-3.333.059Z" transform="translate(-58.315 -118.385)" fill="#ffdcdc"/>
                <path id="Trazado_873604" data-name="Trazado 873604" d="M109.158,136.458a5.536,5.536,0,0,1,.181-1.776c-.672-.112-1.344-.208-2.021-.283a6.866,6.866,0,0,1-.048.805c-.117,1.013-.395,2-.565,3.008a25.288,25.288,0,0,1-.683,3.008,21.7,21.7,0,0,1-1.931,4.592A16.229,16.229,0,0,1,101.734,149a13.989,13.989,0,0,1-2.437,2.043,12.785,12.785,0,0,1-2.171,1.147,10.06,10.06,0,0,1-1.563.5,2.976,2.976,0,0,1-.437.059c-3.616-.9-6.315-5.259-6.315-5.259s-.677,1.851-3.525,1.893c-2.848-.037-3.525-1.893-3.525-1.893a13.868,13.868,0,0,1-3.381,3.861c-1.179.917-2.629,1.333-3.808,2.245-4.683,3.643-5.963,9.456-5.664,15.1a64.107,64.107,0,0,0,2.341,13.669,16.476,16.476,0,0,1,1.792-.544c.3-.059.6-.069.9-.123a75.871,75.871,0,0,1-.965-10.117c-.027-3.675.24-8.432,2.629-11.435.384.517,3.216,4.475,2.5,7.525,0,0-1.067,9.552-1.707,16H94.241c-.661-6.448-1.776-16-1.776-16-.768-3.237,2.469-7.189,2.533-7.264a15.847,15.847,0,0,0,4.368-1.931,16.955,16.955,0,0,0,3.445-2.939,21.247,21.247,0,0,0,2.6-3.595,28.059,28.059,0,0,0,1.867-3.92,27.561,27.561,0,0,0,2.011-7.888,20.007,20.007,0,0,0-.1-2.709c-.016-.32-.032-.64-.037-.96Z" transform="translate(-60.273 -127.893)" fill="#da46b6"/>
                <path id="Trazado_873605" data-name="Trazado 873605" d="M103.532,133.979a5.286,5.286,0,0,1,.048,1.787c-.016.144-.043.283-.064.427.667.011,1.328.032,1.984.069a3.235,3.235,0,0,1,.235-1.205,13.074,13.074,0,0,0,.843-1.685c.08-.293.144-.587.2-.885.037-.208.192-.6.069-.795a.5.5,0,0,0-.677-.107c-.267.16-.32.507-.443.768l-.144.32c-.021.048-.1.165-.1.219-.021-.256-.069-.5-.1-.752a9.132,9.132,0,0,1-.069-1.077,1.977,1.977,0,0,1,.261-.725c.075-.165.176-.325.261-.491a1.96,1.96,0,0,0,.213-.453c.059-.267-.277-.16-.421-.133-.368.075-.731.149-1.1.219-.192.037-.379.08-.576.107a.678.678,0,0,0-.427.171.828.828,0,0,0-.155.315c-.091.267-.208.523-.288.789a2.733,2.733,0,0,0,0,1.28c.117.624.3,1.227.432,1.845Z" transform="translate(-56.577 -128.454)" fill="#f3d4d0"/>
                <path id="Trazado_873606" data-name="Trazado 873606" d="M75.973,159.246a17.266,17.266,0,0,1,1.472,3.728,17.56,17.56,0,0,1,4.517-2.1C78.367,161.379,77.007,160.211,75.973,159.246Z" transform="translate(-59.503 -125.203)" fill="#c13aa7"/>
                <path id="Trazado_873607" data-name="Trazado 873607" d="M86.108,160.85a17.573,17.573,0,0,1,4.448,2.053,13.068,13.068,0,0,1,1.408-3.451C90.849,160.343,89.34,161.309,86.108,160.85Z" transform="translate(-58.406 -125.181)" fill="#c13aa7"/>
                <path id="Trazado_873608" data-name="Trazado 873608" d="M74.77,178.547a1.052,1.052,0,0,0-.907-.768c-.043-.315-.091-.629-.133-.944a16.289,16.289,0,0,0-2.72.864c.08.283.155.571.235.853h0a1.05,1.05,0,0,0-.283,1.029l.3,1.109a1.614,1.614,0,0,0,1.979,1.136l.7-.187a1.619,1.619,0,0,0,1.136-1.979l-.3-1.109Z" transform="translate(-60.05 -123.299)" fill="#f3d4d0"/>
                <g id="Grupo_1099549" data-name="Grupo 1099549" transform="translate(47.76 3.76)">
                  <g id="Grupo_1099548" data-name="Grupo 1099548" transform="translate(1.392 3.2)">
                    <path id="Trazado_873609" data-name="Trazado 873609" d="M113.957,139.989a13.7,13.7,0,0,1,1.557,6.757l-3.563,1.92-3.872-3.328A7.361,7.361,0,0,1,107,143.829a7.165,7.165,0,0,1-.651-1.68l-.715-5.275,3.493-1.883a12.693,12.693,0,0,1,4.832,5Z" transform="translate(-105.445 -134.789)" fill="#fff"/>
                    <path id="Trazado_873610" data-name="Trazado 873610" d="M107.175,143.763a7.144,7.144,0,0,1-.635-1.632l-.693-5.141,3.3-1.776a12.55,12.55,0,0,1,4.677,4.88,13.547,13.547,0,0,1,1.541,6.565L112,148.473l-3.771-3.243a7.29,7.29,0,0,1-1.051-1.467m-.32.165a7.764,7.764,0,0,0,1.115,1.557l3.973,3.413,3.755-2.021a13.719,13.719,0,0,0-1.573-6.955,12.6,12.6,0,0,0-4.987-5.115l-3.68,1.984.731,5.4a7.532,7.532,0,0,0,.672,1.733h0Z" transform="translate(-105.463 -134.809)" fill="#054779"/>
                  </g>
                  <path id="Trazado_873611" data-name="Trazado 873611" d="M114.92,145.415l1.275,2.363a2.133,2.133,0,1,1-3.755,2.027l-1.275-2.363,3.755-2.021Zm-2.144,4.229a1.756,1.756,0,0,0,3.093-1.664l-1.115-2.069-3.093,1.664Z" transform="translate(-103.453 -130.46)" fill="#054779"/>
                  <path id="Trazado_873612" data-name="Trazado 873612" d="M105.738,137.431l-1.275-2.363a2.133,2.133,0,0,1,3.755-2.027l1.275,2.363-3.755,2.021Zm.165-.491L109,135.276l-1.115-2.069a1.756,1.756,0,0,0-3.093,1.664Z" transform="translate(-104.207 -131.921)" fill="#054779"/>
                </g>
                <path id="Trazado_873613" data-name="Trazado 873613" d="M105.485,132.135l-.144.32c-.016.032-.059.107-.085.16a7.072,7.072,0,0,1,.8.576c.069.048.139.1.208.149.021-.064.053-.128.075-.192.08-.293.144-.587.2-.885.037-.208.192-.6.069-.795a.494.494,0,0,0-.677-.107c-.267.16-.32.507-.443.768Z" transform="translate(-56.333 -128.231)" fill="#f3d4d0"/>
              </g>
              <g id="Grupo_1099557" data-name="Grupo 1099557" transform="translate(368.03 136.264)">
                <ellipse id="Elipse_11500" data-name="Elipse 11500" cx="12.709" cy="1.477" rx="12.709" ry="1.477" transform="translate(7.133 62.136)" fill="#070063" opacity="0.11" style="mix-blend-mode: multiply;isolation: isolate"/>
                <g id="Grupo_1099556" data-name="Grupo 1099556">
                  <g id="Grupo_1099555" data-name="Grupo 1099555">
                    <g id="Grupo_1099553" data-name="Grupo 1099553">
                      <g id="Grupo_1099551" data-name="Grupo 1099551" transform="translate(0 6.283)">
                        <path id="Trazado_873614" data-name="Trazado 873614" d="M338.7,130.118a4.238,4.238,0,0,0-1.685-1.355,1.3,1.3,0,0,0-1.125-.021,1.39,1.39,0,0,0-.544,1.163,8.572,8.572,0,0,0,.512,2.693c2.363,8.448,8.4,15.323,8.411,15.429a57.293,57.293,0,0,0-.955-6.517,33.183,33.183,0,0,0-3.909-10.363,11.362,11.362,0,0,0-.709-1.029Z" transform="translate(-331.726 -128.623)" fill="#74d199"/>
                        <path id="Trazado_873615" data-name="Trazado 873615" d="M335.074,144.263a3.913,3.913,0,0,0-1.947-.411,1.162,1.162,0,0,0-.923.453,1.269,1.269,0,0,0,.053,1.179,7.947,7.947,0,0,0,1.568,2c5.52,5.952,13.371,9.088,13.424,9.168A54.052,54.052,0,0,0,343.7,151.7a31.315,31.315,0,0,0-7.595-6.885,9.819,9.819,0,0,0-1.019-.549Z" transform="translate(-332.08 -126.975)" fill="#74d199"/>
                        <path id="Trazado_873616" data-name="Trazado 873616" d="M350.717,137.3a3.869,3.869,0,0,1,1.44-1.376,1.187,1.187,0,0,1,1.024-.107,1.263,1.263,0,0,1,.576,1.029,7.957,7.957,0,0,1-.277,2.523c-1.557,7.968-6.576,14.768-6.576,14.864a54.057,54.057,0,0,1,.411-6.085,31.149,31.149,0,0,1,2.832-9.851,10.373,10.373,0,0,1,.576-1Z" transform="translate(-330.475 -127.851)" fill="#74d199"/>
                        <path id="Trazado_873617" data-name="Trazado 873617" d="M350.069,167.845A96.046,96.046,0,0,0,342.25,144.3l.592-.3a96.3,96.3,0,0,1,7.883,23.728l-.656.112Z" transform="translate(-330.979 -126.957)" fill="#74d199"/>
                        <path id="Trazado_873618" data-name="Trazado 873618" d="M349.194,163.29c-.72-5.525-5.707-9.659-5.755-9.7l.421-.517c.213.176,5.237,4.336,5.995,10.128l-.661.085Z" transform="translate(-330.85 -125.976)" fill="#74d199"/>
                        <path id="Trazado_873619" data-name="Trazado 873619" d="M347.386,157.878c-.059-.165-1.451-4.059-.272-7.131l.619.24c-1.083,2.837.267,6.629.277,6.667l-.624.229Z" transform="translate(-330.503 -126.227)" fill="#74d199"/>
                      </g>
                      <g id="Grupo_1099552" data-name="Grupo 1099552" transform="translate(15.892)">
                        <path id="Trazado_873620" data-name="Trazado 873620" d="M361.7,124.449a4.238,4.238,0,0,1,1.685-1.355,1.3,1.3,0,0,1,1.125-.021,1.39,1.39,0,0,1,.544,1.163,8.573,8.573,0,0,1-.512,2.693c-2.363,8.448-8.4,15.323-8.411,15.429a57.3,57.3,0,0,1,.955-6.517A33.182,33.182,0,0,1,361,125.479a11.351,11.351,0,0,1,.709-1.029Z" transform="translate(-345.368 -122.954)" fill="#85e8b0"/>
                        <path id="Trazado_873621" data-name="Trazado 873621" d="M365.942,138.594a3.913,3.913,0,0,1,1.947-.411,1.162,1.162,0,0,1,.923.453,1.269,1.269,0,0,1-.053,1.179,7.948,7.948,0,0,1-1.568,2c-5.52,5.952-13.371,9.088-13.424,9.168a54.06,54.06,0,0,1,3.552-4.955,31.315,31.315,0,0,1,7.595-6.885,9.825,9.825,0,0,1,1.019-.549Z" transform="translate(-345.625 -121.306)" fill="#85e8b0"/>
                        <path id="Trazado_873622" data-name="Trazado 873622" d="M349.49,131.64a3.869,3.869,0,0,0-1.44-1.376,1.187,1.187,0,0,0-1.024-.107,1.264,1.264,0,0,0-.576,1.029,7.956,7.956,0,0,0,.277,2.523c1.557,7.968,6.576,14.768,6.576,14.864a54.058,54.058,0,0,0-.411-6.085,31.153,31.153,0,0,0-2.832-9.851,10.383,10.383,0,0,0-.576-1Z" transform="translate(-346.42 -122.182)" fill="#85e8b0"/>
                        <path id="Trazado_873623" data-name="Trazado 873623" d="M350.293,162.176a96.043,96.043,0,0,1,7.819-23.541l-.592-.3a96.3,96.3,0,0,0-7.883,23.728l.656.112Z" transform="translate(-346.072 -121.288)" fill="#85e8b0"/>
                        <path id="Trazado_873624" data-name="Trazado 873624" d="M350.968,157.621c.72-5.525,5.707-9.659,5.755-9.7l-.421-.517c-.213.176-5.237,4.336-5.995,10.128l.661.085Z" transform="translate(-345.999 -120.307)" fill="#85e8b0"/>
                        <path id="Trazado_873625" data-name="Trazado 873625" d="M352.278,152.214c.059-.165,1.451-4.059.272-7.131l-.619.24c1.083,2.837-.267,6.629-.277,6.667l.624.229Z" transform="translate(-345.853 -120.558)" fill="#85e8b0"/>
                      </g>
                    </g>
                    <g id="Grupo_1099554" data-name="Grupo 1099554" transform="translate(6.194 37.394)">
                      <path id="Trazado_873626" data-name="Trazado 873626" d="M359.208,182.805H342.691l-3.867-21.952H363.08Z" transform="translate(-337.544 -156.245)" fill="#7566ff"/>
                      <rect id="Rectángulo_401359" data-name="Rectángulo 401359" width="27.435" height="6.507" fill="#7566ff"/>
                    </g>
                  </g>
                  <path id="Trazado_873627" data-name="Trazado 873627" d="M339.41,164.2h23.013l.293-1.637H339.122Z" transform="translate(-331.317 -118.666)" fill="#524be2"/>
                </g>
              </g>
              <g id="Grupo_1099564" data-name="Grupo 1099564" transform="translate(84.336)">
                <g id="Grupo_1099559" data-name="Grupo 1099559">
                  <rect id="Rectángulo_401360" data-name="Rectángulo 401360" width="1.936" height="62.267" transform="translate(25.915)" fill="#054779"/>
                  <g id="Grupo_1099558" data-name="Grupo 1099558" transform="translate(0 61.696)">
                    <path id="Trazado_873628" data-name="Trazado 873628" d="M129.869,82.555a26.885,26.885,0,1,0-53.771,0h53.776Z" transform="translate(-76.098 -55.669)" fill="#f8b445"/>
                    <path id="Trazado_873629" data-name="Trazado 873629" d="M123.15,82.555h6.208a26.886,26.886,0,0,0-48.5-15.995,26.891,26.891,0,0,1,42.293,16Z" transform="translate(-75.582 -55.669)" fill="#ffc578"/>
                    <path id="Trazado_873630" data-name="Trazado 873630" d="M95.93,79.929a4.907,4.907,0,1,0,9.813,0Z" transform="translate(-73.951 -53.043)" fill="#ffe9cf"/>
                  </g>
                </g>
                <g id="Grupo_1099561" data-name="Grupo 1099561" transform="translate(99.019)">
                  <rect id="Rectángulo_401361" data-name="Rectángulo 401361" width="1.936" height="62.267" transform="translate(25.915)" fill="#054779"/>
                  <g id="Grupo_1099560" data-name="Grupo 1099560" transform="translate(0 61.696)">
                    <path id="Trazado_873631" data-name="Trazado 873631" d="M219.215,82.555a26.885,26.885,0,0,0-53.771,0H219.22Z" transform="translate(-165.444 -55.669)" fill="#f8b445"/>
                    <path id="Trazado_873632" data-name="Trazado 873632" d="M212.492,82.555H218.7A26.886,26.886,0,0,0,170.2,66.56a26.891,26.891,0,0,1,42.293,16Z" transform="translate(-164.929 -55.669)" fill="#ffc578"/>
                    <path id="Trazado_873633" data-name="Trazado 873633" d="M185.276,79.929a4.907,4.907,0,1,0,9.813,0h-9.813Z" transform="translate(-163.297 -53.043)" fill="#ffe9cf"/>
                  </g>
                </g>
                <g id="Grupo_1099563" data-name="Grupo 1099563" transform="translate(198.032)">
                  <rect id="Rectángulo_401362" data-name="Rectángulo 401362" width="1.936" height="62.267" transform="translate(25.92)" fill="#054779"/>
                  <g id="Grupo_1099562" data-name="Grupo 1099562" transform="translate(0 61.696)">
                    <path id="Trazado_873634" data-name="Trazado 873634" d="M308.556,82.555a26.885,26.885,0,1,0-53.771,0h53.776Z" transform="translate(-254.786 -55.669)" fill="#f8b445"/>
                    <path id="Trazado_873635" data-name="Trazado 873635" d="M301.838,82.555h6.208a26.886,26.886,0,0,0-48.5-15.995,26.891,26.891,0,0,1,42.293,16Z" transform="translate(-254.27 -55.669)" fill="#ffc578"/>
                    <path id="Trazado_873636" data-name="Trazado 873636" d="M274.617,79.929a4.907,4.907,0,0,0,9.813,0Z" transform="translate(-252.639 -53.043)" fill="#ffe9cf"/>
                  </g>
                </g>
              </g>
            </g>
          </g>
        </g>
      </g>
      <rect id="Rectángulo_400986" data-name="Rectángulo 400986" width="161.765" height="141.366" rx="25" transform="translate(1162.904 16420.365)" fill="none" stroke="#ff725d" stroke-miterlimit="10" stroke-width="3"/>
    </g>
  </g>
</svg>
