<svg xmlns="http://www.w3.org/2000/svg" width="101.157" height="123.424" viewBox="0 0 101.157 123.424">
  <g id="Grupo_1099733" data-name="Grupo 1099733" transform="translate(-326.843 -25999.48)">
    <g id="Grupo_1099595" data-name="Grupo 1099595" transform="translate(-4.199 -356.134)">
      <path id="Path_157053" data-name="Path 157053" d="M165.595,0h1.227a5.306,5.306,0,0,1,3.884,2.729q3.02,5.667,6.017,11.345a1.182,1.182,0,0,0,1.051.678q6.172,1.114,12.334,2.283a5.621,5.621,0,0,1,2.885,1.258,5.085,5.085,0,0,1,1.487,5.388,6.261,6.261,0,0,1-1.646,2.461c-2.743,2.8-5.436,5.648-8.194,8.435-.339.364-.773.781-.617,1.331.461,3.653.965,7.3,1.419,10.955a15.419,15.419,0,0,1,.275,3.52,5.04,5.04,0,0,1-3.2,4.033,5.1,5.1,0,0,1-4.012-.174c-3.9-1.891-7.782-3.816-11.683-5.7-.432-.285-.9.02-1.311.183C161.764,50.534,158,52.3,154.25,54.1a5.484,5.484,0,0,1-2.994.624,5.067,5.067,0,0,1-4.32-3.394,6.939,6.939,0,0,1-.1-3.358c.538-3.816,1.053-7.637,1.636-11.448.041-.411.169-.926-.206-1.234-3.043-3.224-6.1-6.432-9.142-9.655a5.057,5.057,0,0,1,2.75-8.515c4.238-.764,8.488-1.473,12.727-2.239a1.131,1.131,0,0,0,.913-.743c2.092-3.859,4.18-7.722,6.3-11.567A5.308,5.308,0,0,1,165.595,0m.26,5.2c-2.11,3.9-4.241,7.792-6.355,11.692-.524,1.01-1.1,2.252-2.366,2.433-4.867.885-9.749,1.7-14.616,2.587a1.646,1.646,0,0,0,.479.823q4.828,5.056,9.624,10.144a2.612,2.612,0,0,1,.9,2.057c-.583,5.012-1.5,9.988-2.025,15.007a7.631,7.631,0,0,0,1.109-.405q6.361-3.042,12.729-6.056a2.842,2.842,0,0,1,2.712.258c3.877,1.914,7.768,3.806,11.647,5.716a9.993,9.993,0,0,0,1.222.5,22.952,22.952,0,0,0-.3-2.871c-.524-4.04-1.06-8.077-1.582-12.117a2.584,2.584,0,0,1,.781-2.327c3.17-3.257,6.311-6.543,9.494-9.79a1.939,1.939,0,0,0,.593-.935c-4.964-.976-9.947-1.851-14.915-2.8a2.625,2.625,0,0,1-1.825-1.471q-3.338-6.306-6.686-12.605C166.35,4.7,165.891,4.908,165.855,5.2Z" transform="translate(215.407 26355.613)"/>
      <path id="Path_157054" data-name="Path 157054" d="M58.082,272.654a11.212,11.212,0,0,1,5.755-.673,2.5,2.5,0,0,1,2.074,2.356,2.6,2.6,0,0,1-1.663,2.273c-1.188.309-2.442-.022-3.638.237a5.566,5.566,0,0,0-2.777,2.066c-1.923,2.5-3.9,4.957-5.807,7.464,10.06.034,20.12,0,30.183.016a4.9,4.9,0,0,0,3.751-2.268c1.882-2.469,3.855-4.867,5.7-7.363-2.04-.039-4.076,0-6.114-.012a2.8,2.8,0,0,1-2-.624,3.664,3.664,0,0,1-.89-1.8,3.581,3.581,0,0,1,.89-1.774,2.769,2.769,0,0,1,2-.626q23.158.014,46.316,0a8.806,8.806,0,0,1,5.723,2.218,17.745,17.745,0,0,1,2.483,2.824c1.968,2.536,3.961,5.05,5.924,7.589a4.826,4.826,0,0,1,1.159,4.12,3.521,3.521,0,0,1-3.464,2.526c-2.818.036-5.639-.012-8.457.014q-.022,15.553,0,31.109a7.346,7.346,0,0,1-2.126,5.332,7.9,7.9,0,0,1-4.272,2.126H64.48a7.949,7.949,0,0,1-4.151-2.006,7.312,7.312,0,0,1-2.25-5.452q-.007-15.553,0-31.109c-2.818-.029-5.639.022-8.455-.014a3.526,3.526,0,0,1-3.414-2.345,4.72,4.72,0,0,1,1.107-4.3l6.767-8.669a10.451,10.451,0,0,1,4-3.233m43.565,4.105c1.88,2.539,3.888,4.986,5.807,7.5a4.692,4.692,0,0,0,3.9,2.144c9.977-.027,19.955.016,29.932-.022-1.954-2.551-3.949-5.061-5.913-7.6a4.653,4.653,0,0,0-3.749-2.037c-9.991.02-19.983-.016-29.973.016m-12.5,11.066a9.257,9.257,0,0,1-6.963,3.394H62.9q-.007,15.557,0,31.113a2.439,2.439,0,0,0,2.389,2.623c9.648.027,19.3.007,28.944.009-.007-14.5.034-28.992-.02-43.488-1.787,2.035-3.334,4.267-5.063,6.35m9.935-6.347c-.061,14.494-.014,28.99-.024,43.486q14.23.014,28.459.007a2.531,2.531,0,0,0,2.88-2.885q-.019-15.429-.007-30.867-9.644-.011-19.286,0a9.185,9.185,0,0,1-6.738-3.136c-1.834-2.143-3.413-4.5-5.284-6.606Z" transform="translate(284.965 26149.26)"/>
      <path id="Path_157055" data-name="Path 157055" d="M153.82,272.647a2.42,2.42,0,0,1,3.149-.063,2.922,2.922,0,0,1,.919,1.851,2.887,2.887,0,0,1-.919,1.851,2.422,2.422,0,0,1-3.146-.063,3.647,3.647,0,0,1-.892-1.8,3.581,3.581,0,0,1,.89-1.774Z" transform="translate(203.839 26149.162)"/>
      <path id="Path_157056" data-name="Path 157056" d="M181.067,20.519c.036-.3.494-.506.617-.161q3.355,6.3,6.686,12.605a2.625,2.625,0,0,0,1.825,1.471c4.968.952,9.952,1.828,14.915,2.8a1.938,1.938,0,0,1-.594.935c-3.182,3.247-6.324,6.534-9.494,9.79a2.584,2.584,0,0,0-.781,2.327c.52,4.04,1.058,8.077,1.581,12.117a22.955,22.955,0,0,1,.3,2.871,9.991,9.991,0,0,1-1.222-.5c-3.879-1.914-7.77-3.806-11.647-5.716a2.842,2.842,0,0,0-2.712-.258q-6.364,3.023-12.729,6.055a7.632,7.632,0,0,1-1.109.405c.524-5.02,1.44-9.995,2.025-15.007a2.612,2.612,0,0,0-.9-2.057c-3.209-3.382-6.405-6.774-9.624-10.145a1.646,1.646,0,0,1-.479-.823c4.867-.888,9.749-1.7,14.616-2.587,1.268-.181,1.842-1.423,2.366-2.433C176.826,28.311,178.957,24.418,181.067,20.519Z" transform="translate(200.195 26340.297)" fill="#ff725d"/>
      <path id="Path_157057" data-name="Path 157057" d="M84.766,281.954c1.965-.007,3.929.014,5.894-.014a3.646,3.646,0,0,0,.892,1.8,2.422,2.422,0,0,0,3.146.063,2.888,2.888,0,0,0,.919-1.851c1.965-.007,3.927.014,5.892-.014a3.663,3.663,0,0,0,.89,1.8,2.8,2.8,0,0,0,2,.624c2.037.012,4.074-.027,6.114.012-1.851,2.5-3.819,4.894-5.7,7.363a4.9,4.9,0,0,1-3.751,2.268c-10.063-.016-20.122.016-30.183-.016,1.912-2.508,3.884-4.966,5.807-7.464a5.566,5.566,0,0,1,2.777-2.066c1.2-.258,2.449.077,3.638-.237A2.6,2.6,0,0,0,84.766,281.954Z" transform="translate(266.108 26141.645)" fill="#53bced"/>
      <path id="Path_157058" data-name="Path 157058" d="M276.72,291.977c9.99-.034,19.983,0,29.973-.016A4.653,4.653,0,0,1,310.443,294c1.965,2.537,3.963,5.046,5.913,7.6-9.977.039-19.955,0-29.932.022a4.691,4.691,0,0,1-3.9-2.144C280.608,296.963,278.6,294.516,276.72,291.977Z" transform="translate(109.892 26134.043)" fill="#53bced"/>
      <path id="Path_157059" data-name="Path 157059" d="M142.238,317.95c1.728-2.083,3.276-4.32,5.063-6.35.053,14.5.012,28.992.02,43.488-9.648,0-19.3.016-28.944-.009a2.439,2.439,0,0,1-2.389-2.623q0-15.557,0-31.113,9.644-.011,19.288,0a9.257,9.257,0,0,0,6.963-3.393Z" transform="translate(231.881 26119.133)" fill="#71a7c0"/>
      <path id="Path_157060" data-name="Path 157060" d="M266.01,311.61c1.871,2.11,3.45,4.462,5.287,6.6a9.185,9.185,0,0,0,6.738,3.136h19.286q.011,15.429.007,30.867a2.531,2.531,0,0,1-2.88,2.885q-14.23-.018-28.459-.007C266,340.6,265.949,326.1,266.01,311.61Z" transform="translate(118.044 26119.125)" fill="#71a7c0"/>
    </g>
  </g>
</svg>
