<svg xmlns="http://www.w3.org/2000/svg" width="166.7" height="125.004" viewBox="0 0 166.7 125.004">
  <g id="Grupo_1099734" data-name="Grupo 1099734" transform="translate(-714 -26005.998)">
    <g id="Grupo_1099594" data-name="Grupo 1099594" transform="translate(6.348 -346.914)">
      <path id="Path_157061" data-name="Path 157061" d="M23.689,72.371A10.268,10.268,0,0,1,43.2,70.359a10.549,10.549,0,0,1-.638,9.377c1.1.062,2.393-.163,3.269.667a2.606,2.606,0,0,1,.716,2.549C45,92.329,43.406,101.7,41.879,111.076c9.331-.007,18.665.026,28-.016a23.126,23.126,0,0,1-5.3-7.062A20.63,20.63,0,0,1,73.034,77.35c.124-3.65-.026-7.3.068-10.949a2.461,2.461,0,0,1,2.732-2.289c5.118.01,10.236-.026,15.354.016a2.388,2.388,0,0,1,2.406,2.256c.094,3.65-.052,7.306.068,10.956a20.653,20.653,0,0,1,9.126,25.04,22.415,22.415,0,0,1-5.961,8.68c8.169.046,16.341.007,24.513.02a11.774,11.774,0,0,1-1.416-4.317c-.28-2.465.583-4.851,1.276-7.176a2.609,2.609,0,0,1,2.741-1.569c.107-.218.218-.433.332-.648-.007.176-.016.527-.023.7a2.8,2.8,0,0,1,1.621,2.468c-.2,1.651-.964,3.184-1.107,4.845a5.4,5.4,0,0,0,3.187,5.242,9.4,9.4,0,0,0,3.959.459c1.5-.036,3,.072,4.5-.055a5.456,5.456,0,0,0,4.382-7.283c-1.625-5.886-3.207-11.783-4.835-17.669a3.257,3.257,0,0,1-.091-2.058c.746-2.116,1.732-4.145,2.445-6.274a2.763,2.763,0,0,0-1.856-3.415,49.521,49.521,0,0,0-5.9-.124,2.89,2.89,0,0,0-2.868,1.638c-.693,1.4.247,2.826.716,4.128a44.369,44.369,0,0,1,1.722,4.578,20.45,20.45,0,0,1-.944,4.177c-.358,1.094-.42,2.429-1.367,3.21a3.054,3.054,0,0,1-2.191.521,2.692,2.692,0,0,1-1.768-2.351c.169-1.778,1-3.415,1.218-5.183-.625-2.032-1.654-3.92-2.256-5.961a7.627,7.627,0,0,1,1.787-7.189,8.22,8.22,0,0,1,5.9-2.51,12.91,12.91,0,0,1,.208-3.718,2.459,2.459,0,0,1,3.966-.7c1.11,1.192.583,2.969.7,4.434a7.846,7.846,0,0,1,7.8,6.248c.615,2.693-.785,5.193-1.732,7.615-.27.8-.866,1.612-.547,2.481q2.383,8.708,4.75,17.422a10.575,10.575,0,0,1-1.123,8.019c6.528.042,13.056-.007,19.583.023A2.648,2.648,0,0,1,166.7,113v11.512a2.639,2.639,0,0,1-2.611,1.888q-80.737.015-161.473,0A2.65,2.65,0,0,1,0,124.529V113a2.612,2.612,0,0,1,2.308-1.9q4.034-.073,8.071,0a2.6,2.6,0,0,1,2.4,2.426,2.627,2.627,0,0,1-2.041,2.373c-1.937.147-3.891.036-5.834.042-.046,1.859-.016,3.718-.023,5.574H161.809c-.01-1.859.026-3.718-.026-5.577q-70.462.073-140.926.016a2.425,2.425,0,0,1-.55-4.819c1.771-.15,3.552-.02,5.326-.052-1.511-9.38-3.119-18.743-4.666-28.117a2.614,2.614,0,0,1,.651-2.5c.866-.9,2.217-.667,3.344-.729a10.636,10.636,0,0,1-1.276-7.365M32.4,69.164a5.42,5.42,0,1,0,4.56.907,5.385,5.385,0,0,0-4.56-.907M77.953,69c.02,2.084-.01,4.171.02,6.254a20.888,20.888,0,0,1,10.721,0c.1-2.08,0-4.164.055-6.245-3.6-.029-7.2-.016-10.8-.007M70.517,86.033A15.8,15.8,0,0,0,81.026,110.9,15.254,15.254,0,0,0,92.577,108a15.421,15.421,0,0,0,6.551-11.711A15.805,15.805,0,0,0,70.517,86.033M26.245,84.62c1.361,8.833,2.927,17.633,4.363,26.456,2.093.013,4.187-.01,6.28.013.342-1.914.71-3.826.928-5.759l.078.052c1.078-6.922,2.3-13.824,3.422-20.739H31.942C30.044,84.633,28.143,84.665,26.245,84.62Z" transform="translate(707.652 26288.816)"/>
      <path id="Path_157062" data-name="Path 157062" d="M23.526,283.274a2.442,2.442,0,0,1,2.523-2.748c4.877-.042,9.754.007,14.631-.023a3.168,3.168,0,0,1,2.816.947c.755.886.472,2.113.374,3.165-.208,1.416-.234,2.862-.544,4.262a2.6,2.6,0,0,1-2.6,1.791,2.707,2.707,0,0,1-2.084-1.875,14.869,14.869,0,0,1,.212-3.4c-3.4,0-6.8-.007-10.207,0Q29.7,294.7,30.726,304.01h6.056c.29-2.019.365-4.066.742-6.072a2.4,2.4,0,0,1,4.737.589c-.068,1.836-.4,3.653-.547,5.486,2.6.013,5.19-.046,7.781.013a2.444,2.444,0,0,1,2.36,2.67c.013,4.317,0,8.638,0,12.955,4.62.02,9.243-.01,13.863.016-.661-1.986-.453-4.092-.475-6.147.007-4.122-.013-8.244.007-12.365a7.619,7.619,0,0,1,2.11-5.213,8.057,8.057,0,0,1,5.72-2.429c0-1.944-.205-4,.645-5.815a7.648,7.648,0,0,1,6.707-4.558q2.911-.044,5.828,0a7.66,7.66,0,0,1,6.782,4.747c.755,1.778.557,3.747.563,5.629a7.753,7.753,0,0,1,7.84,7.97v12.04c-.02,2.051.179,4.154-.475,6.14q7.15-.029,14.3,0c-.8-3.181-.3-6.486-.446-9.725a7.82,7.82,0,0,1,3.23-6.922c2.455-1.66,4.9-3.337,7.4-4.926a9.053,9.053,0,0,1-2.191-2.321c-.85-1.53-.553-3.337-.6-5.011.052-1.667-.26-3.487.628-5a5.105,5.105,0,0,1,4.679-2.637c3.461.016,6.925-.023,10.386.016a5.071,5.071,0,0,1,4.841,4.981c0,1.957.068,3.92-.046,5.873a5.65,5.65,0,0,1-2.8,4.057q3.79,2.437,7.514,4.985a8.046,8.046,0,0,1,3.178,7.238c-.179,3.109.423,6.316-.495,9.347,4.62.111,9.246-.039,13.866.068a2.5,2.5,0,0,1,2.282,2.038v11.268a2.589,2.589,0,0,1-2.6,1.976c-5.759.029-11.522-.01-17.282.02a2.8,2.8,0,0,1-3.344-2.452,2.571,2.571,0,0,1,2.367-2.416c5.32-.065,10.643-.01,15.966-.023.007-1.856,0-3.708,0-5.561H4.884V330.1q64.469-.02,128.938-.01c1.113.046,2.435-.212,3.331.622a3.16,3.16,0,0,1,.9,1.827,2.648,2.648,0,0,1-2.9,2.442q-66.281-.015-132.565-.01A2.585,2.585,0,0,1,0,333.016V321.757a2.536,2.536,0,0,1,2.614-2.08c4.34-.023,8.683-.007,13.023,0,.068-4.431-.023-8.866.042-13.3a2.366,2.366,0,0,1,2.22-2.331c2.621-.075,5.245-.02,7.866-.01-.641-6.932-1.546-13.837-2.24-20.762m54.635,6.5a15.167,15.167,0,0,0-.2,3.806c3.594-.01,7.192.029,10.79-.02-.033-1.035.029-2.071-.052-3.1a2.751,2.751,0,0,0-2.767-2.426q-2.583-.024-5.17,0a2.76,2.76,0,0,0-2.6,1.742m49.393-1.739c.02,1.853-.088,3.712.062,5.564,3.562-.046,7.124,0,10.685-.023.046-1.843.01-3.686.026-5.525-3.591-.052-7.182-.023-10.773-.016M70.133,301.5c0,5.1-.01,10.207,0,15.309a2.787,2.787,0,0,0,2.761,2.846q10.436.024,20.87,0a2.73,2.73,0,0,0,2.706-2.165c.2-5.33.042-10.676.091-16.012a2.8,2.8,0,0,0-2.82-3.012c-6.075-.016-12.147,0-18.223-.007a27.574,27.574,0,0,0-3.24.072,2.823,2.823,0,0,0-2.149,2.969m54.8,2.787c-1.319.879-2.657,1.735-3.956,2.64a2.788,2.788,0,0,0-1.253,2.406c-.036,2.165.01,4.333-.016,6.5a4.37,4.37,0,0,0,.472,2.582,2.854,2.854,0,0,0,2.546,1.25c6.853,0,13.707.01,20.557-.007a2.74,2.74,0,0,0,2.767-2.155c.192-2.618.059-5.248.1-7.872a2.982,2.982,0,0,0-1.4-2.806c-3.891-2.595-7.775-5.2-11.675-7.781h-.238c-2.66,1.7-5.261,3.506-7.9,5.248M20.544,308.9c0,3.588-.01,7.179.007,10.77q13.2-.015,26.411,0c.036-1.817.007-3.633.016-5.45V308.9H20.544Z" transform="translate(707.652 26142.869)"/>
      <path id="Path_157063" data-name="Path 157063" d="M91.138,79.257a5.386,5.386,0,1,1-3.7,3.366,5.386,5.386,0,0,1,3.7-3.366Z" transform="translate(648.915 26278.725)" fill="#c79a94"/>
      <path id="Path_157064" data-name="Path 157064" d="M80.61,127.13c1.9.046,3.8.013,5.7.023.928,4.952,1.673,9.933,2.513,14.9a9.515,9.515,0,0,0,1.13,3.8,6.992,6.992,0,0,0,2.23,1.989c-.218,1.934-.586,3.845-.928,5.759-2.093-.023-4.187,0-6.28-.013C83.537,144.763,81.971,135.963,80.61,127.13Z" transform="translate(653.287 26246.307)" fill="#c79a94"/>
      <path id="Path_157065" data-name="Path 157065" d="M239.43,79.136c3.6-.01,7.2-.023,10.8.007-.052,2.08.046,4.164-.055,6.245a20.888,20.888,0,0,0-10.721,0C239.42,83.307,239.45,81.22,239.43,79.136Z" transform="translate(546.175 26278.682)" fill="#ff725d"/>
      <path id="Path_157066" data-name="Path 157066" d="M385.068,96.72a2.89,2.89,0,0,1,2.868-1.638,49.525,49.525,0,0,1,5.9.124,10.908,10.908,0,0,0-3.178.221,4.906,4.906,0,0,0-.368,4.125,27.129,27.129,0,0,1,1.534,4.617,13.024,13.024,0,0,1-.27,5.808c-1.335,5-2.754,9.979-4.063,14.983-.638,2.487.413,4.975,1.8,7a9.4,9.4,0,0,1-3.959-.459,5.4,5.4,0,0,1-3.187-5.242c.143-1.66.912-3.194,1.107-4.845a2.8,2.8,0,0,0-1.621-2.468c.007-.173.016-.524.023-.7.479-1.631.915-3.272,1.351-4.913a3.054,3.054,0,0,0,2.191-.521c.947-.781,1.009-2.116,1.367-3.21a20.448,20.448,0,0,0,.944-4.177,44.374,44.374,0,0,0-1.722-4.578C385.316,99.546,384.375,98.117,385.068,96.72Z" transform="translate(450.272 26267.939)" fill="#c79a94"/>
      <path id="Path_157067" data-name="Path 157067" d="M402.4,95.729a10.908,10.908,0,0,1,3.178-.221,2.763,2.763,0,0,1,1.856,3.415c-.713,2.129-1.7,4.158-2.445,6.274a3.257,3.257,0,0,0,.091,2.058c1.628,5.886,3.21,11.783,4.835,17.669a5.456,5.456,0,0,1-4.382,7.283c-1.5.127-3,.02-4.5.055-1.387-2.025-2.439-4.512-1.8-7,1.309-5,2.728-9.985,4.063-14.983a13.024,13.024,0,0,0,.27-5.808,27.129,27.129,0,0,0-1.534-4.617,4.906,4.906,0,0,1,.368-4.125Z" transform="translate(438.528 26267.637)" fill="#ff725d"/>
      <path id="Path_157068" data-name="Path 157068" d="M216.244,117.812a15.811,15.811,0,0,1,28.612,10.262,15.422,15.422,0,0,1-6.551,11.711,20.438,20.438,0,0,1-11.734-1.4,18.5,18.5,0,0,1-9.289-9.95C215.795,125.089,216.01,121.371,216.244,117.812Z" transform="translate(561.925 26257.037)" fill="#53bced"/>
      <path id="Path_157069" data-name="Path 157069" d="M98.11,127.2h9.373c-1.126,6.915-2.344,13.818-3.422,20.739l-.078-.052a6.992,6.992,0,0,1-2.23-1.989,9.515,9.515,0,0,1-1.13-3.8C99.783,137.133,99.038,132.152,98.11,127.2Z" transform="translate(641.484 26246.26)" fill="#ff725d"/>
      <path id="Path_157070" data-name="Path 157070" d="M208.868,147.3a15.8,15.8,0,0,1,1.543-15.826c-.234,3.559-.449,7.277,1.039,10.624a18.5,18.5,0,0,0,9.289,9.95,20.438,20.438,0,0,0,11.734,1.4,15.255,15.255,0,0,1-11.551,2.9,15.9,15.9,0,0,1-12.054-9.048Z" transform="translate(567.757 26243.379)" fill="#4190b5"/>
      <path id="Path_157071" data-name="Path 157071" d="M22.892,215.917h5.421a2.59,2.59,0,0,0,2.657,2.429q70.462,0,140.926-.016c.052,1.859.016,3.718.026,5.577H14.994c.007-1.856-.023-3.715.023-5.574,1.944-.007,3.9.1,5.834-.042A2.627,2.627,0,0,0,22.892,215.917Z" transform="translate(697.542 26186.426)" fill="#e8e8e8"/>
      <path id="Path_157072" data-name="Path 157072" d="M15,415.8H171.927v5.561c-5.323.013-10.646-.042-15.966.023a2.571,2.571,0,0,0-2.367,2.416H148.17a3.16,3.16,0,0,0-.9-1.826c-.9-.833-2.217-.576-3.331-.622q-64.469.024-128.938.01Q15,418.577,15,415.8Z" transform="translate(697.537 26051.619)" fill="#e8e8e8"/>
      <path id="Path_157073" data-name="Path 157073" d="M88.01,295.539c3.4-.01,6.8,0,10.207,0a14.87,14.87,0,0,0-.212,3.4,2.708,2.708,0,0,0,2.084,1.875c-.2,1.82-.413,3.64-.6,5.463a2.6,2.6,0,0,0-2.608,1.817c-.378,2.006-.453,4.053-.742,6.072-2.019-.007-4.037,0-6.056,0Q89.044,304.847,88.01,295.539Z" transform="translate(648.296 26132.73)" fill="#e8e8e8"/>
      <path id="Path_157074" data-name="Path 157074" d="M239.612,305.337a2.76,2.76,0,0,1,2.6-1.742q2.588-.024,5.17,0a2.751,2.751,0,0,1,2.767,2.426c.081,1.032.02,2.067.052,3.1-3.6.049-7.2.01-10.79.02A15.167,15.167,0,0,1,239.612,305.337Z" transform="translate(546.201 26127.301)" fill="#e8e8e8"/>
      <path id="Path_157075" data-name="Path 157075" d="M391.74,303.6c3.591-.007,7.182-.036,10.773.016-.016,1.84.02,3.682-.026,5.525-3.562.023-7.124-.023-10.685.023C391.652,307.312,391.76,305.453,391.74,303.6Z" transform="translate(443.467 26127.299)" fill="#e8e8e8"/>
      <path id="Path_157076" data-name="Path 157076" d="M215.391,338.686a2.823,2.823,0,0,1,2.149-2.969,27.588,27.588,0,0,1,3.24-.072c0,4.171.02,8.338,0,12.505a3.329,3.329,0,0,0,.72,2.517,2.948,2.948,0,0,0,2.233.755c5.948,0,11.9-.042,17.848.02.029,1.078.094,2.155.147,3.233a2.73,2.73,0,0,1-2.706,2.165q-10.431.024-20.87,0a2.787,2.787,0,0,1-2.761-2.846C215.382,348.893,215.391,343.788,215.391,338.686Z" transform="translate(562.394 26105.688)" fill="#c79a94"/>
      <path id="Path_157077" data-name="Path 157077" d="M231.96,335.666c6.075,0,12.147-.01,18.223.007A2.8,2.8,0,0,1,253,338.684c-.049,5.336.114,10.682-.091,16.012-.052-1.078-.117-2.155-.147-3.233-5.948-.062-11.9-.02-17.848-.02a2.948,2.948,0,0,1-2.233-.755,3.329,3.329,0,0,1-.72-2.517C231.98,344,231.963,339.837,231.96,335.666Z" transform="translate(551.213 26105.666)" fill="#ff725d"/>
      <path id="Path_157078" data-name="Path 157078" d="M383.74,342.7c2.637-1.742,5.239-3.546,7.9-5.248h.238c3.9,2.579,7.785,5.186,11.675,7.781a2.982,2.982,0,0,1,1.4,2.807c-.039,2.624.094,5.255-.1,7.872-.02-1.091-.107-2.178-.2-3.259-5.1-.013-10.2.023-15.292.007a22.2,22.2,0,0,1-3.575-.111,2.618,2.618,0,0,1-1.882-2.543C383.776,347.572,384.007,345.127,383.74,342.7Z" transform="translate(448.849 26104.463)" fill="#53bced"/>
      <path id="Path_157079" data-name="Path 157079" d="M368.96,356.21c1.3-.9,2.637-1.761,3.956-2.64.267,2.429.036,4.874.163,7.309a2.618,2.618,0,0,0,1.882,2.543,22.2,22.2,0,0,0,3.575.111c5.1.016,10.194-.02,15.292-.007.1,1.081.186,2.168.2,3.259a2.74,2.74,0,0,1-2.767,2.155c-6.85.016-13.7,0-20.557.007a2.854,2.854,0,0,1-2.546-1.25,4.369,4.369,0,0,1-.472-2.582c.026-2.165-.02-4.333.016-6.5a2.788,2.788,0,0,1,1.253-2.4Z" transform="translate(459.674 26093.59)" fill="#4190b5"/>
      <path id="Path_157080" data-name="Path 157080" d="M63.1,367.733h5.45c.127,1.582-.511,3.62.918,4.77.612.654,1.573.563,2.39.593,5.893-.059,11.786.02,17.676-.039-.01,1.817.02,3.633-.016,5.45q-13.205-.02-26.411,0C63.086,374.912,63.1,371.321,63.1,367.733Z" transform="translate(665.1 26084.039)" fill="#4190b5"/>
      <path id="Path_157081" data-name="Path 157081" d="M79.766,367.73h20.98v5.32c-5.89.059-11.783-.02-17.676.039-.817-.029-1.778.062-2.39-.593C79.255,371.35,79.893,369.312,79.766,367.73Z" transform="translate(653.88 26084.039)" fill="#53bced"/>
    </g>
  </g>
</svg>
