<svg xmlns="http://www.w3.org/2000/svg" width="124.801" height="124.918" viewBox="0 0 124.801 124.918">
  <g id="Grupo_1099737" data-name="Grupo 1099737" transform="translate(-927.199 -26514.561)">
    <g id="Grupo_1099599" data-name="Grupo 1099599" transform="translate(-20.801 -243.439)">
      <g id="_a6f5cfff" data-name="#a6f5cfff" transform="translate(949.917 26761.658)">
        <path id="Path_157146" data-name="Path 157146" d="M13.933,18.107A12.51,12.51,0,0,1,22.279,15q14.627-.007,29.25,0a23.4,23.4,0,0,1,3.013,2.4,14.418,14.418,0,0,1,4.123,10.039c-.01,9.6.01,19.2,0,28.8a14.437,14.437,0,0,1-4.489,10.4c-.844.771-1.8,1.41-2.693,2.118a17.686,17.686,0,0,0-2.274.059,1.933,1.933,0,0,0-1.388,1.342c-2.154.583-4.394.354-6.6.522-1.149-.688-2.1-2.013-3.569-1.925q-7.568.015-15.136,0a13.288,13.288,0,0,1-4.679-.781A12.494,12.494,0,0,1,9.7,56.7c-.034-5.119-.012-10.237-.01-15.353a2.443,2.443,0,0,0-.4-1.62,2.412,2.412,0,0,0-1.435-.688q-.007-3.048,0-6.1a1.914,1.914,0,0,0,1.759-1.356c.19-1.7-.024-3.418.122-5.121A12.391,12.391,0,0,1,13.93,18.1" transform="translate(-7.858 -14.998)" fill="#ffdc39"/>
      </g>
      <g id="_8aedbdff" data-name="#8aedbdff" transform="translate(983.288 26761.65)">
        <path id="Path_157147" data-name="Path 157147" d="M186.724,14.974a18.311,18.311,0,0,1,6.865.751,12.5,12.5,0,0,1,8.2,11.442c.029,9.517,0,19.035.015,28.55a12.619,12.619,0,0,1-9.408,12.6,21.457,21.457,0,0,1-5.714.41c.9-.708,1.849-1.347,2.693-2.118a14.437,14.437,0,0,0,4.489-10.4c.007-9.6-.012-19.2,0-28.8a14.418,14.418,0,0,0-4.123-10.039,23.4,23.4,0,0,0-3.017-2.4Z" transform="translate(-176.423 -14.962)" fill="#aa9430"/>
        <path id="Path_157148" data-name="Path 157148" d="M144.64,241.582c2.2-.168,4.44.061,6.6-.522-.059,1.783-.007,3.569-.024,5.355C149.022,244.8,146.826,243.2,144.64,241.582Z" transform="translate(-144.64 -185.899)" fill="#aa9430"/>
      </g>
      <g id="_ffffffff" data-name="#ffffffff" transform="translate(975.752 26775.619)">
        <path id="Path_157149" data-name="Path 157149" d="M119.57,72.242c.41-.146.364.385.368.634.01,2.613-.024,5.228.015,7.841a1.822,1.822,0,0,0,1.9,1.7q4.9.022,9.8-.007c.412-.076.866.3.673.739-1.081,4.352-2.23,8.69-3.32,13.043-.159.434-.139,1.254-.808,1.174q-4.871.015-9.744,0c-2.027-.056-4.406-1.3-4.684-3.494-.044-3,0-6.011-.02-9.015a5.677,5.677,0,0,1,.869-2.571C116.283,78.944,117.867,75.563,119.57,72.242Z" transform="translate(-113.751 -72.217)" fill="#fff"/>
      </g>
      <g id="_b36212ff" data-name="#b36212ff" transform="translate(984.293 26779.844)">
        <path id="Path_157150" data-name="Path 157150" d="M176.78,92.492a37.083,37.083,0,0,1,51.493,31.541c.188,2.535-.051,5.119.566,7.607a34.57,34.57,0,0,0,1.9,4.933,41.757,41.757,0,0,1,2.3,8.4,4.126,4.126,0,0,0,.52,1.686,2.286,2.286,0,0,0,1.681.676,51.311,51.311,0,0,1,.3,6.509,2.5,2.5,0,0,0-1.41.639,3.2,3.2,0,0,0-.573,1.993,41.881,41.881,0,0,1-3.618,14.124,44.045,44.045,0,0,0-18.513-18.51,30.783,30.783,0,0,0,4.445-5.6,28.81,28.81,0,0,0-3.32-34.468,1.982,1.982,0,0,0-2.22-.661,3.778,3.778,0,0,0-1.508,1.944,33.954,33.954,0,0,1-15.19,15.309c-8.354,4.206-18.1,4.994-27.242,3.491a5.727,5.727,0,0,0-2.852-.127,1.951,1.951,0,0,0-1,2.1A28.867,28.867,0,0,0,171.09,152.1a43.916,43.916,0,0,0-18.452,18.369,43.147,43.147,0,0,1-.146-35.413c.9.629,1.749,1.339,2.674,1.94a1.836,1.836,0,0,0,2.471-.468,2.824,2.824,0,0,0,.364-1.752c-.017-2,0-4-.012-6a30.149,30.149,0,0,0,5.706-.3,16.335,16.335,0,0,0,10.1-6.543,15.913,15.913,0,0,0,3-9.332C176.788,105.891,176.8,99.192,176.78,92.492Z" transform="translate(-148.76 -89.53)" fill="#12263f"/>
      </g>
      <g id="_ffd54dff" data-name="#ffd54dff" transform="translate(966.019 26784.477)">
        <path id="Path_157151" data-name="Path 157151" d="M75.689,108.774a3.049,3.049,0,0,1,3.647.991,3.423,3.423,0,0,1,.59,2.3c-.09,3.5-.022,7,0,10.5a3.123,3.123,0,0,1-1.061,2.513,3.027,3.027,0,0,1-3.767.139,3.11,3.11,0,0,1-1.242-2.674c0-3.66-.012-7.322.007-10.981a3.05,3.05,0,0,1,1.826-2.788Z" transform="translate(-73.856 -108.527)" fill="#53bced"/>
      </g>
      <g id="_ffd8d0ff" data-name="#ffd8d0ff" transform="translate(1001.981 26806.648)">
        <path id="Path_157152" data-name="Path 157152" d="M266.2,199.4a25.187,25.187,0,0,1-35.249,35.273c-4.845-3.986-8.644-9.508-9.693-15.778,9.822,1.5,20.245.5,29.164-4.079A37.192,37.192,0,0,0,266.2,199.4Z" transform="translate(-221.26 -199.4)" fill="#ffd8d0"/>
      </g>
      <g id="_ff8acbff" data-name="#ff8acbff" transform="translate(986.796 26844.988)">
        <path id="Path_157153" data-name="Path 157153" d="M165.282,371.215a40.044,40.044,0,0,1,16.6-14.665,28.873,28.873,0,0,0,34.259,0A40.075,40.075,0,0,1,239,392.75c-26.656-.1-53.318-.032-79.976-.046a39.979,39.979,0,0,1,6.267-21.5Z" transform="translate(-159.02 -356.55)" fill="#53bced"/>
      </g>
      <g id="_000000ff" data-name="#000000ff" transform="translate(948 26758)">
        <path id="Path_157144" data-name="Path 157144" d="M15.265,0H49.129a16.254,16.254,0,0,1,10.73,5,16.008,16.008,0,0,1,4.452,10.583c.034,1.747,0,3.5.015,5.243a40.771,40.771,0,0,1,55.225,37.479c.029,2.223.024,4.535.991,6.592a45.086,45.086,0,0,1,3.786,12.674,1.833,1.833,0,0,1-1.554,2.071,2.286,2.286,0,0,1-1.681-.676,4.126,4.126,0,0,1-.52-1.686,41.758,41.758,0,0,0-2.3-8.4,34.567,34.567,0,0,1-1.9-4.933c-.617-2.489-.378-5.072-.566-7.607A37.081,37.081,0,0,0,64.313,24.8c.022,6.7.007,13.4.01,20.1a15.913,15.913,0,0,1-3,9.332,16.335,16.335,0,0,1-10.1,6.543,30.15,30.15,0,0,1-5.707.3c.007,2,0,4,.012,6a2.824,2.824,0,0,1-.364,1.752,1.836,1.836,0,0,1-2.471.468c-.925-.6-1.771-1.31-2.674-1.94a43.147,43.147,0,0,0,.146,35.413A43.916,43.916,0,0,1,58.619,84.409a28.867,28.867,0,0,1-8.546-18.027,1.951,1.951,0,0,1,1-2.1,5.727,5.727,0,0,1,2.852.127c9.139,1.5,18.888.715,27.242-3.491a33.954,33.954,0,0,0,15.19-15.309,3.778,3.778,0,0,1,1.508-1.944,1.981,1.981,0,0,1,2.22.661A28.81,28.81,0,0,1,103.4,78.8a30.783,30.783,0,0,1-4.445,5.6,44.045,44.045,0,0,1,18.513,18.51,41.883,41.883,0,0,0,3.618-14.124,3.2,3.2,0,0,1,.573-1.993,2.5,2.5,0,0,1,1.41-.639,1.945,1.945,0,0,1,1.732,1.9,45.058,45.058,0,0,1-5.382,19.1,44.686,44.686,0,0,1,2.935,13.367,16.42,16.42,0,0,1,0,3.155,1.834,1.834,0,0,1-1.425,1.237h-.583a1.82,1.82,0,0,1-1.578-1.722A40.075,40.075,0,0,0,95.908,87a28.873,28.873,0,0,1-34.259,0A40.041,40.041,0,0,0,38.8,123.145a1.823,1.823,0,0,1-1.535,1.769h-.583a1.754,1.754,0,0,1-1.527-1.693,43.331,43.331,0,0,1,3.057-16.17A46.833,46.833,0,0,1,32.652,83.2,46.086,46.086,0,0,1,37.011,65.15c-1.574-1.166-3.162-2.313-4.726-3.491A2.068,2.068,0,0,0,31,61.073H16.345a16.215,16.215,0,0,1-14.4-8.61A18.662,18.662,0,0,1,0,45.479V29.726A2.036,2.036,0,0,1,1.92,27.7a2.412,2.412,0,0,1,1.435.688,2.443,2.443,0,0,1,.4,1.62c0,5.116-.024,10.235.01,15.353A12.494,12.494,0,0,0,11.9,56.633a13.288,13.288,0,0,0,4.679.781H31.715c1.466-.088,2.42,1.237,3.569,1.925,2.186,1.618,4.382,3.22,6.57,4.833.017-1.786-.034-3.572.024-5.355a1.933,1.933,0,0,1,1.388-1.342,17.686,17.686,0,0,1,2.274-.059A21.457,21.457,0,0,0,51.258,57a12.619,12.619,0,0,0,9.408-12.6c-.012-9.515.015-19.032-.015-28.55a12.5,12.5,0,0,0-8.2-11.442,18.311,18.311,0,0,0-6.865-.751H16.336A12.47,12.47,0,0,0,3.8,15.126c-.146,1.7.068,3.423-.122,5.121A1.914,1.914,0,0,1,1.918,21.6a2.618,2.618,0,0,1-1.4-.647,2.421,2.421,0,0,1-.434-1.676c0-1.22,0-2.437.017-3.657A15.946,15.946,0,0,1,4.426,5.138,16.287,16.287,0,0,1,15.265,0M98.923,48.648A37.192,37.192,0,0,1,83.146,64.065c-8.92,4.579-19.342,5.577-29.164,4.079,1.049,6.27,4.848,11.791,9.693,15.778A25.186,25.186,0,0,0,98.923,48.648Z"/>
        <path id="Path_157145" data-name="Path 157145" d="M74.721,59.4a3.9,3.9,0,0,1,7.349,1.46c.056,2.206,0,4.411.022,6.617,2.669.012,5.338-.012,8.007-.015a4.24,4.24,0,0,1,2.523.673,4.463,4.463,0,0,1,1.718,4.8C93.156,77.521,92,82.117,90.8,86.7a4.134,4.134,0,0,1-3.874,3.033c-3.33.029-6.663.007-9.993.01a9.374,9.374,0,0,1-5.733-2.08,6.813,6.813,0,0,1-6.7,2.986,6.72,6.72,0,0,1-5.631-6.365c-.027-3.816-.007-7.629-.01-11.442a6.7,6.7,0,0,1,8.1-6.57,6.982,6.982,0,0,1,3.46,1.92q2.148-4.4,4.3-8.8m3.342,1.557c-1.7,3.32-3.286,6.7-4.948,10.044a5.677,5.677,0,0,0-.869,2.571c.015,3-.024,6.011.02,9.015.278,2.193,2.657,3.438,4.684,3.494q4.871.022,9.744,0c.668.081.649-.739.808-1.174,1.091-4.352,2.24-8.69,3.32-13.043.193-.439-.261-.815-.673-.739q-4.9.022-9.8.007a1.822,1.822,0,0,1-1.9-1.7c-.039-2.613,0-5.228-.015-7.841,0-.249.041-.781-.368-.634M64.345,70.033a3.05,3.05,0,0,0-1.822,2.786c-.02,3.66,0,7.322-.007,10.981a3.11,3.11,0,0,0,1.242,2.674,3.027,3.027,0,0,0,3.767-.139,3.123,3.123,0,0,0,1.061-2.513c-.024-3.5-.093-7,0-10.5a3.423,3.423,0,0,0-.59-2.3,3.049,3.049,0,0,0-3.651-.989Z" transform="translate(-44.493 -43.309)"/>
      </g>
    </g>
  </g>
</svg>
