<svg xmlns="http://www.w3.org/2000/svg" width="124.993" height="124.939" viewBox="0 0 124.993 124.939">
  <g id="Grupo_1099739" data-name="Grupo 1099739" transform="translate(-582.274 -27023.613)">
    <g id="Group_108287" data-name="Group 108287" transform="translate(3791.571 29694.221)">
      <path id="Trazado_157215" data-name="Trazado 157215" d="M-3206.168-2670.607h118.54a3.858,3.858,0,0,1,3.255,3.245v4.45a3.631,3.631,0,0,1-1.457,2.525,3.631,3.631,0,0,1-2.844.64c-.973-.3-1.186-1.364-1.154-2.252a2.5,2.5,0,0,1,1.8-1.391v-3.557h-117.594v3.66h110.058a2.011,2.011,0,0,1,2.013,1.286c-.073.6.02,1.313-.451,1.778a2.011,2.011,0,0,1-1.579.59q-54.9.011-109.794,0a3.786,3.786,0,0,1-3.906-3.24v-4.487a3.917,3.917,0,0,1,3.112-3.247Z"/>
      <path id="Trazado_157216" data-name="Trazado 157216" d="M-3203.274-2609.315a1.879,1.879,0,0,1,2.027-1.322c5.953.007,11.906-.02,17.856.014a1.82,1.82,0,0,1,1.854,1.785v.135c.029,7.136-.012,14.272.019,21.408q1.823-.007,3.647,0v-19.437a13.146,13.146,0,0,1,.117-2.681,1.835,1.835,0,0,1,1.891-1.215c5.77-.022,11.54.01,17.31-.015a2.558,2.558,0,0,1,1.959.529,2.456,2.456,0,0,1,.564,1.915c-.017,6.968,0,13.933-.007,20.9,1.222,0,2.447.01,3.669-.02-.032-6.96,0-13.923-.02-20.886a2.465,2.465,0,0,1,.524-1.874,2.361,2.361,0,0,1,1.862-.566q8.541.018,17.088,0a2.332,2.332,0,0,1,1.857.578,2.5,2.5,0,0,1,.512,1.871c-.022,6.96.007,13.921-.015,20.884,1.222.02,2.445.017,3.667.015.017-3.874-.029-7.749.02-11.62a4.739,4.739,0,0,1,2.718-4.055c.047-2-.053-4,.039-5.992a1.789,1.789,0,0,1,.613-1.231,1.79,1.79,0,0,1,1.305-.433q3.55-.029,7.1,0a1.8,1.8,0,0,1,1.9,1.691h0c.083,1.989-.022,3.979.044,5.968a4.752,4.752,0,0,1,2.72,4.289c.02,3.793,0,7.585.007,11.379h3.65c.032-3.879-.022-7.76.024-11.637a4.7,4.7,0,0,1,2.7-4.018c.066-1.837.007-3.677.024-5.516a2.109,2.109,0,0,1,.61-1.7,3.156,3.156,0,0,1,2.215-.48c2.12.042,4.243-.034,6.363.029a1.766,1.766,0,0,1,1.766,1.7c.083,1.979,0,3.96.032,5.941a5.5,5.5,0,0,1,2.071,1.869,5.568,5.568,0,0,1,.677,3.152c-.007,3.557-.02,7.114.007,10.671,1.4.027,2.957-.244,4.2.566a3.855,3.855,0,0,1,1.71,2.735v4.448a3.778,3.778,0,0,1-3.657,3.216q-54.168.025-108.34.01a9.775,9.775,0,0,1-2.659-.159,2.17,2.17,0,0,1-1.176-1.669,2.138,2.138,0,0,1,1.21-1.693,12.2,12.2,0,0,1,2.893-.144q54.034.007,108.064,0c.007-1.222,0-2.442,0-3.662h-117.591v3.567a2.277,2.277,0,0,1,1.893,1.927,2.065,2.065,0,0,1-1.515,1.779,3.71,3.71,0,0,1-4.04-3.177v-4.57a3.945,3.945,0,0,1,1.71-2.608c1.247-.82,2.808-.539,4.213-.576q.011-9.709,0-19.423a15.919,15.919,0,0,1,.085-2.6m3.574,2.34q.008,7.085,0,14.172v5.506h14.506v-19.678h-14.509m25.49,0v14.187c0,1.828.007,3.655,0,5.482,4.838.027,9.674,0,14.509.014.015-6.56,0-13.123,0-19.684h-14.507m25.485,0v19.681h14.506v-19.678h-14.509m28.232,0c-.01,1.8.017,3.6,0,5.392a1.772,1.772,0,0,1-1.312,1.82c-.459.156-1.088.11-1.332.617a4.108,4.108,0,0,0-.1,1.2c.015,3.547.008,7.1,0,10.644,3.052.01,6.107.022,9.161,0-.03-3.791.014-7.585-.02-11.374.063-.6-.5-.961-1.037-.988a1.8,1.8,0,0,1-1.676-1.686c-.059-1.871,0-3.745-.022-5.619h-3.659m20.123.01c0,1.864.039,3.73-.015,5.594a1.751,1.751,0,0,1-1.513,1.661c-.559.044-1.264.322-1.2,1-.029,3.8,0,7.61-.01,11.416h9.147c-.01-3.8.019-7.6-.012-11.406.063-.659-.6-.961-1.154-1a1.766,1.766,0,0,1-1.562-1.678c-.046-1.864,0-3.73-.017-5.6-1.222,0-2.444-.007-3.664.01Z" transform="translate(0 -45.332)"/>
      <path id="Trazado_157219" data-name="Trazado 157219" d="M-3194.286-2655.607h117.594v3.557a2.5,2.5,0,0,0-1.8,1.391,6.025,6.025,0,0,0-.139.715,7.589,7.589,0,0,0-3.449,0c-.042-.242-.076-.483-.139-.717a2.01,2.01,0,0,0-2.013-1.286q-55.029-.011-110.057,0Z" transform="translate(-11.34 -11.34)" fill="#e8e8e8"/>
      <path id="Trazado_157220" data-name="Trazado 157220" d="M-3194.285-2499.943h117.591v3.662q-54.034-.015-108.064,0a12.2,12.2,0,0,0-2.893.144,2.14,2.14,0,0,0-1.21,1.693q-1.764.007-3.525,0a2.279,2.279,0,0,0-1.893-1.927C-3194.29-2497.564-3194.287-2498.755-3194.285-2499.943Z" transform="translate(-11.339 -129.026)" fill="#e8e8e8"/>
      <g id="_ffcf5dff" data-name=" ffcf5dff" transform="translate(-3199.7 -2652.311)">
        <path id="Trazado_157223" data-name="Trazado 157223" d="M-3170-2595.6h9c-.012,4.718.066,9.437-.032,14.155-2.989.078-5.979.027-8.968.02Q-3169.994-2588.517-3170-2595.6Z" transform="translate(3169.996 2595.609)" fill="#9ed4ff"/>
        <path id="Trazado_157224" data-name="Trazado 157224" d="M-3065.523-2595.607h9.039c-.024,4.714,0,9.427-.015,14.141-3.006.115-6.016.022-9.027.046Q-3065.526-2588.512-3065.523-2595.607Z" transform="translate(3091.013 2595.609)" fill="#9ed4ff"/>
        <path id="Trazado_157225" data-name="Trazado 157225" d="M-2961.056-2595.613h9c0,4.721.046,9.439-.025,14.16-2.991.066-5.985.027-8.978.015Z" transform="translate(3012.031 2595.615)" fill="#9ed4ff"/>
      </g>
      <g id="_ffb545ff" data-name=" ffb545ff" transform="translate(-3199.698 -2652.31)">
        <path id="Trazado_157226" data-name="Trazado 157226" d="M-3160.986-2595.609h5.509q-.007,9.837,0,19.679h-14.507v-5.506c2.989.007,5.98.059,8.969-.02C-3160.92-2586.172-3161-2590.891-3160.986-2595.609Z" transform="translate(3169.986 2595.609)" fill="#75baf1"/>
        <path id="Trazado_157227" data-name="Trazado 157227" d="M-3056.5-2595.607h5.467q0,9.84,0,19.684c-4.835-.015-9.671.012-14.509-.015.012-1.827,0-3.655,0-5.482,3.011-.024,6.021.068,9.027-.046C-3056.5-2586.18-3056.524-2590.893-3056.5-2595.607Z" transform="translate(3091.026 2595.607)" fill="#75baf1"/>
        <path id="Trazado_157228" data-name="Trazado 157228" d="M-2952.053-2595.607h5.509q-.007,9.841,0,19.679h-14.506v-5.506c2.993.012,5.987.051,8.978-.015C-2952.007-2586.168-2952.058-2590.886-2952.053-2595.607Z" transform="translate(3012.029 2595.607)" fill="#75baf1"/>
      </g>
      <path id="Trazado_157229" data-name="Trazado 157229" d="M-2853.888-2595.607h3.66c.02,1.874-.037,3.747.022,5.619a1.8,1.8,0,0,0,1.676,1.686c.532.027,1.1.385,1.037.988.034,3.789-.01,7.583.02,11.374-3.055.027-6.109.015-9.161,0,0-3.547.01-7.1,0-10.645a4.092,4.092,0,0,1,.1-1.2c.244-.508.873-.461,1.332-.617a1.773,1.773,0,0,0,1.313-1.82C-2853.871-2592.011-2853.9-2593.809-2853.888-2595.607Z" transform="translate(-266.605 -56.702)" fill="#f9f024"/>
      <path id="Trazado_157230" data-name="Trazado 157230" d="M-2771.352-2595.6c1.22-.017,2.442-.01,3.664-.01.017,1.866-.029,3.733.017,5.6a1.766,1.766,0,0,0,1.562,1.678c.549.039,1.217.342,1.154,1,.032,3.8,0,7.6.012,11.406h-9.146c.007-3.806-.02-7.612.01-11.416-.063-.678.641-.957,1.2-1a1.75,1.75,0,0,0,1.513-1.661C-2771.313-2591.872-2771.357-2593.738-2771.352-2595.6Z" transform="translate(-329.018 -56.697)" fill="#f9f024"/>
      <g id="Group_108286" data-name="Group 108286" transform="translate(-3209.286 -2617.999)">
        <path id="Trazado_157216-2" data-name="Trazado 157216" d="M-3203.274-2453.643a1.879,1.879,0,0,1,2.027-1.322c5.953.007,11.906-.02,17.856.015a1.82,1.82,0,0,1,1.854,1.785v.135c.029,7.136-.012,14.272.019,21.408q1.823-.007,3.647,0v-19.437a13.148,13.148,0,0,1,.117-2.681,1.834,1.834,0,0,1,1.891-1.215c5.77-.022,11.54.01,17.31-.015a2.558,2.558,0,0,1,1.959.529,2.455,2.455,0,0,1,.564,1.915c-.017,6.968,0,13.933-.007,20.9,1.222,0,2.447.01,3.669-.02-.032-6.96,0-13.924-.02-20.886a2.465,2.465,0,0,1,.524-1.874,2.362,2.362,0,0,1,1.862-.565q8.541.017,17.088,0a2.332,2.332,0,0,1,1.857.578,2.5,2.5,0,0,1,.512,1.871c-.022,6.96.007,13.921-.015,20.884,1.222.019,2.445.017,3.667.015.017-3.874-.029-7.748.02-11.62a4.738,4.738,0,0,1,2.718-4.055c.047-2-.053-4,.039-5.992a1.789,1.789,0,0,1,.613-1.231,1.79,1.79,0,0,1,1.305-.433q3.55-.029,7.1,0a1.8,1.8,0,0,1,1.9,1.691h0c.083,1.989-.022,3.979.044,5.968a4.752,4.752,0,0,1,2.72,4.289c.02,3.794,0,7.585.007,11.379h3.65c.032-3.879-.022-7.76.024-11.637a4.7,4.7,0,0,1,2.7-4.018c.066-1.837.007-3.677.024-5.516a2.109,2.109,0,0,1,.61-1.7,3.159,3.159,0,0,1,2.215-.48c2.12.042,4.243-.034,6.363.029a1.766,1.766,0,0,1,1.766,1.7c.083,1.979,0,3.96.032,5.941a5.5,5.5,0,0,1,2.071,1.869,5.567,5.567,0,0,1,.677,3.152c-.007,3.557-.02,7.114.007,10.671,1.4.027,2.957-.244,4.2.566a3.854,3.854,0,0,1,1.71,2.735v4.448a3.778,3.778,0,0,1-3.657,3.216q-54.168.025-108.34.01a9.782,9.782,0,0,1-2.659-.159,2.171,2.171,0,0,1-1.176-1.668,2.138,2.138,0,0,1,1.21-1.693,12.175,12.175,0,0,1,2.893-.144q54.034.007,108.064,0c.007-1.222,0-2.442,0-3.662h-117.591v3.567a2.276,2.276,0,0,1,1.893,1.927,2.065,2.065,0,0,1-1.515,1.779,3.709,3.709,0,0,1-4.04-3.177v-4.57a3.945,3.945,0,0,1,1.71-2.608c1.247-.82,2.808-.539,4.213-.576q.011-9.709,0-19.423a15.949,15.949,0,0,1,.085-2.6m3.574,2.34q.008,7.085,0,14.172v5.506h14.506v-19.678h-14.509m25.49,0v14.187c0,1.827.007,3.655,0,5.482,4.838.027,9.674,0,14.509.015.015-6.56,0-13.123,0-19.684h-14.507m25.485,0v19.681h14.506v-19.678h-14.509m28.232,0c-.01,1.8.017,3.6,0,5.392a1.772,1.772,0,0,1-1.312,1.82c-.459.156-1.088.11-1.332.617a4.1,4.1,0,0,0-.1,1.2c.015,3.547.008,7.1,0,10.644,3.052.01,6.107.022,9.161,0-.03-3.791.014-7.585-.02-11.374.063-.6-.5-.961-1.037-.988a1.8,1.8,0,0,1-1.676-1.686c-.059-1.871,0-3.745-.022-5.619h-3.659m20.123.01c0,1.864.039,3.73-.015,5.594a1.751,1.751,0,0,1-1.513,1.661c-.559.044-1.264.322-1.2,1-.029,3.8,0,7.609-.01,11.415h9.147c-.01-3.8.019-7.6-.012-11.406.063-.659-.6-.961-1.154-1a1.765,1.765,0,0,1-1.562-1.678c-.046-1.864,0-3.73-.017-5.6-1.222,0-2.444-.007-3.664.01Z" transform="translate(3209.286 2454.975)"/>
        <path id="Trazado_157220-2" data-name="Trazado 157220" d="M-3194.285-2344.271h117.591v3.662q-54.034-.015-108.064,0a12.187,12.187,0,0,0-2.893.144,2.14,2.14,0,0,0-1.21,1.693q-1.764.007-3.525,0a2.279,2.279,0,0,0-1.893-1.927C-3194.29-2341.892-3194.287-2343.083-3194.285-2344.271Z" transform="translate(3197.947 2371.281)" fill="#e8e8e8"/>
        <g id="_ffcf5dff-2" data-name=" ffcf5dff" transform="translate(9.586 3.667)">
          <path id="Trazado_157223-2" data-name="Trazado 157223" d="M-3170-2439.933h9c-.012,4.718.066,9.437-.032,14.155-2.989.078-5.979.027-8.968.02Q-3169.994-2432.845-3170-2439.933Z" transform="translate(3169.996 2439.937)" fill="#9ed4ff"/>
          <path id="Trazado_157224-2" data-name="Trazado 157224" d="M-3065.523-2439.935h9.039c-.024,4.714,0,9.427-.015,14.141-3.006.115-6.016.022-9.027.046Q-3065.526-2432.84-3065.523-2439.935Z" transform="translate(3091.013 2439.937)" fill="#9ed4ff"/>
          <path id="Trazado_157225-2" data-name="Trazado 157225" d="M-2961.056-2439.941h9c0,4.721.046,9.439-.025,14.16-2.991.066-5.985.027-8.978.015Z" transform="translate(3012.031 2439.942)" fill="#9ed4ff"/>
        </g>
        <g id="_ffb545ff-2" data-name=" ffb545ff" transform="translate(9.588 3.669)">
          <path id="Trazado_157226-2" data-name="Trazado 157226" d="M-3160.986-2439.937h5.509q-.007,9.837,0,19.679h-14.507v-5.506c2.989.007,5.98.059,8.969-.02C-3160.92-2430.5-3161-2435.219-3160.986-2439.937Z" transform="translate(3169.986 2439.938)" fill="#75baf1"/>
          <path id="Trazado_157227-2" data-name="Trazado 157227" d="M-3056.5-2439.935h5.467q0,9.842,0,19.684c-4.835-.015-9.671.012-14.509-.015.012-1.827,0-3.655,0-5.482,3.011-.024,6.021.068,9.027-.046C-3056.5-2430.508-3056.524-2435.221-3056.5-2439.935Z" transform="translate(3091.026 2439.936)" fill="#75baf1"/>
          <path id="Trazado_157228-2" data-name="Trazado 157228" d="M-2952.053-2439.935h5.509q-.007,9.841,0,19.679h-14.506v-5.506c2.993.012,5.987.051,8.978-.015C-2952.007-2430.5-2952.058-2435.214-2952.053-2439.935Z" transform="translate(3012.029 2439.936)" fill="#75baf1"/>
        </g>
        <path id="Trazado_157229-2" data-name="Trazado 157229" d="M-2853.888-2439.935h3.66c.02,1.874-.037,3.748.022,5.619a1.8,1.8,0,0,0,1.676,1.686c.532.027,1.1.385,1.037.988.034,3.789-.01,7.583.02,11.374-3.055.027-6.109.015-9.161,0,0-3.547.01-7.1,0-10.645a4.091,4.091,0,0,1,.1-1.2c.244-.508.873-.461,1.332-.617a1.773,1.773,0,0,0,1.313-1.82C-2853.871-2436.339-2853.9-2438.137-2853.888-2439.935Z" transform="translate(2942.681 2443.604)" fill="#f9f024"/>
        <path id="Trazado_157230-2" data-name="Trazado 157230" d="M-2771.352-2439.93c1.22-.017,2.442-.01,3.664-.01.017,1.866-.029,3.733.017,5.6a1.764,1.764,0,0,0,1.562,1.678c.549.039,1.217.342,1.154,1,.032,3.8,0,7.6.012,11.406h-9.146c.007-3.806-.02-7.612.01-11.415-.063-.678.641-.957,1.2-1a1.751,1.751,0,0,0,1.513-1.661C-2771.313-2436.2-2771.357-2438.066-2771.352-2439.93Z" transform="translate(2880.268 2443.609)" fill="#f9f024"/>
      </g>
      <path id="Trazado_157220-3" data-name="Trazado 157220" d="M-3194.285-2188.67h117.591v3.662q-54.034-.015-108.064,0a12.187,12.187,0,0,0-2.893.144,2.14,2.14,0,0,0-1.21,1.693q-1.764.008-3.525,0a2.279,2.279,0,0,0-1.893-1.927C-3194.29-2186.291-3194.287-2187.482-3194.285-2188.67Z" transform="translate(-11.339 -364.357)" fill="#e8e8e8"/>
      <g id="_ffcf5dff-3" data-name=" ffcf5dff" transform="translate(-3199.7 -2576.37)">
        <path id="Trazado_157223-3" data-name="Trazado 157223" d="M-3170-2284.332h9c-.012,4.719.066,9.437-.032,14.155-2.989.078-5.979.027-8.968.02Q-3169.994-2277.244-3170-2284.332Z" transform="translate(3169.996 2284.336)" fill="#9ed4ff"/>
        <path id="Trazado_157224-3" data-name="Trazado 157224" d="M-3065.523-2284.334h9.039c-.024,4.714,0,9.427-.015,14.141-3.006.115-6.016.022-9.027.046Q-3065.526-2277.239-3065.523-2284.334Z" transform="translate(3091.013 2284.336)" fill="#9ed4ff"/>
        <path id="Trazado_157225-3" data-name="Trazado 157225" d="M-2961.056-2284.34h9c0,4.721.046,9.439-.025,14.16-2.991.066-5.985.027-8.978.015Z" transform="translate(3012.031 2284.342)" fill="#9ed4ff"/>
      </g>
      <g id="_ffb545ff-3" data-name=" ffb545ff" transform="translate(-3199.698 -2576.368)">
        <path id="Trazado_157226-3" data-name="Trazado 157226" d="M-3160.986-2284.336h5.509q-.007,9.837,0,19.679h-14.507v-5.506c2.989.007,5.98.059,8.969-.02C-3160.92-2274.9-3161-2279.617-3160.986-2284.336Z" transform="translate(3169.986 2284.336)" fill="#75baf1"/>
        <path id="Trazado_157227-3" data-name="Trazado 157227" d="M-3056.5-2284.334h5.467q0,9.84,0,19.684c-4.835-.015-9.671.012-14.509-.015.012-1.827,0-3.655,0-5.482,3.011-.024,6.021.068,9.027-.046C-3056.5-2274.907-3056.524-2279.62-3056.5-2284.334Z" transform="translate(3091.026 2284.334)" fill="#75baf1"/>
        <path id="Trazado_157228-3" data-name="Trazado 157228" d="M-2952.053-2284.334h5.509q-.007,9.84,0,19.679h-14.506v-5.506c2.993.012,5.987.051,8.978-.015C-2952.007-2274.9-2952.058-2279.613-2952.053-2284.334Z" transform="translate(3012.029 2284.334)" fill="#75baf1"/>
      </g>
      <g id="_fff9ebff" data-name=" fff9ebff" transform="translate(-3119.716 -2571.398)">
        <path id="Trazado_157238" data-name="Trazado 157238" d="M-2728.088-2254.616c-2.181-.037-2.9,0-5.087-.02-.056-3.106-.024-6.211-.015-9.315,1.576.01,1.688-.02,3.264.007a1.814,1.814,0,0,1,1.83,1.788C-2728.068-2259.642-2728.095-2257.129-2728.088-2254.616Z" transform="translate(2759.786 2263.957)" fill="#ff725d"/>
        <path id="Trazado_157239" data-name="Trazado 157239" d="M-2782.561-2254.624c-2.191-.032-2.916,0-5.106-.015-.024-3.106.01-6.211-.017-9.317,1.618.012,1.771-.029,3.384.015a1.8,1.8,0,0,1,1.725,1.779C-2782.541-2259.65-2782.573-2257.137-2782.561-2254.624Z" transform="translate(2800.972 2263.962)" fill="#ff725d"/>
        <path id="Trazado_157240" data-name="Trazado 157240" d="M-2837.028-2254.624c-2.181-.02-2.9,0-5.08,0-.081-3.108-.022-6.216-.029-9.322,1.579.01,1.693-.02,3.272.007a1.817,1.817,0,0,1,1.83,1.8C-2837.013-2259.637-2837.035-2257.131-2837.028-2254.624Z" transform="translate(2842.15 2263.957)" fill="#ff725d"/>
      </g>
      <g id="_d3cdbfff" data-name=" d3cdbfff" transform="translate(-3124.23 -2571.399)">
        <path id="Trazado_157241" data-name="Trazado 157241" d="M-2747.163-2254.646c2.186.015,2.906-.017,5.087.02v5.465h-9.627q0-6.386,0-12.774a1.84,1.84,0,0,1,.431-1.365,1.84,1.84,0,0,1,1.279-.643c1.261-.053,1.549,0,2.813-.017C-2747.187-2260.857-2747.219-2257.751-2747.163-2254.646Z" transform="translate(2778.288 2263.968)" fill="#c07e74"/>
        <path id="Trazado_157242" data-name="Trazado 157242" d="M-2801.642-2254.639c2.191.012,2.916-.017,5.106.015v5.467h-9.63c.007-4.331-.019-8.661.012-12.989a1.81,1.81,0,0,1,1.8-1.8c1.225-.037,1.474,0,2.7-.01C-2801.632-2260.851-2801.667-2257.745-2801.642-2254.639Z" transform="translate(2819.461 2263.965)" fill="#c07e74"/>
        <path id="Trazado_157243" data-name="Trazado 157243" d="M-2856.1-2254.639c2.181,0,2.9-.015,5.079,0v5.475h-9.627v-12.772a1.846,1.846,0,0,1,.429-1.36,1.846,1.846,0,0,1,1.271-.648c1.266-.059,1.559,0,2.825-.02C-2856.118-2260.855-2856.177-2257.748-2856.1-2254.639Z" transform="translate(2860.654 2263.969)" fill="#c07e74"/>
      </g>
      <path id="Path_157215" data-name="Path 157215" d="M-2876-2256.837c17,0,26.674.07,43.67.07,0,0-.055-12.068-.047-16.238a5.991,5.991,0,0,0-.69-3.111,5.5,5.5,0,0,0-4.8-2.833c-2.845-.007-3.25-.02-6.092,0a5.95,5.95,0,0,0-3.533,1.334,5.967,5.967,0,0,0-3.555-1.334c-2.842-.022-3.245-.015-6.087,0a6.028,6.028,0,0,0-3.65,1.334,6.041,6.041,0,0,0-3.681-1.337c-2.845,0-3.25-.019-6.094.008a5.49,5.49,0,0,0-5.326,5.177c-.049,4.423,0,8.849-.02,13.274H-2876Zm30.332-16.431a1.84,1.84,0,0,1,.431-1.365,1.84,1.84,0,0,1,1.279-.643c1.261-.054,1.549,0,2.813-.017,1.576.01,1.688-.02,3.264.007a1.814,1.814,0,0,1,1.83,1.788c.027,2.513,0,5.026.007,7.539v5.465h-9.627c0-4.257-.005-8.515,0-12.775Zm-13.279-.215a1.81,1.81,0,0,1,1.8-1.8c1.225-.037,1.474,0,2.7-.01,1.618.012,1.771-.029,3.384.015a1.8,1.8,0,0,1,1.725,1.779c.034,2.513,0,5.026.015,7.539v5.467h-9.63c0-4.332-.026-8.662,0-12.99Zm-11.606-1.791c1.266-.058,1.559,0,2.825-.02,1.579.01,1.693-.02,3.271.007a1.818,1.818,0,0,1,1.83,1.8c.022,2.508,0,5.014.007,7.521v5.475h-9.627v-12.772a1.845,1.845,0,0,1,.426-1.36A1.844,1.844,0,0,1-2870.553-2275.274Z" transform="translate(-251.974 -296.098)"/>
      <path id="Path_157216" data-name="Path 157216" d="M-3086.083-2275.443c-1.247-.81-2.8-.539-4.2-.566,0-.03-39.055,0-40.277-.022.022-6.963-.007-13.923.015-20.884a2.5,2.5,0,0,0-.512-1.871,2.329,2.329,0,0,0-1.857-.578q-8.546.019-17.088,0a2.36,2.36,0,0,0-1.862.566,2.467,2.467,0,0,0-.524,1.874c.024,6.963-.012,13.926.02,20.886-1.222.029-2.447.024-3.669.019,0-6.968-.01-13.933.007-20.9a2.457,2.457,0,0,0-.564-1.915,2.559,2.559,0,0,0-1.958-.529c-5.77.024-11.54-.007-17.31.015a1.835,1.835,0,0,0-1.891,1.215,13.158,13.158,0,0,0-.117,2.682q0,9.717,0,19.437h-3.647c-.032-7.136.01-14.272-.019-21.409v-.135a1.82,1.82,0,0,0-1.854-1.785c-5.95-.034-11.9-.007-17.856-.015a1.878,1.878,0,0,0-2.027,1.322,15.925,15.925,0,0,0-.085,2.6q.009,9.714,0,19.423c-1.405.036-2.967-.244-4.213.576a3.943,3.943,0,0,0-1.71,2.608v4.57a3.709,3.709,0,0,0,4.04,3.177,2.064,2.064,0,0,0,1.515-1.779,2.278,2.278,0,0,0-1.893-1.927q0-1.782,0-3.567h117.591v3.662h-108.064a12.164,12.164,0,0,0-2.893.144,2.137,2.137,0,0,0-1.21,1.693,2.17,2.17,0,0,0,1.176,1.669,9.784,9.784,0,0,0,2.659.159q54.171.016,108.34-.01a3.778,3.778,0,0,0,3.657-3.216v-4.448a3.856,3.856,0,0,0-1.719-2.741Zm-99.108-.573H-3199.7v-19.678h14.509Q-3185.187-2285.857-3185.191-2276.016Zm25.483,0c-4.835-.015-9.671.012-14.509-.015.012-1.827,0-3.655,0-5.482V-2295.7h14.507c0,6.563.011,13.126,0,19.686Zm25.492,0h-14.506V-2295.7h14.509Q-3134.212-2285.857-3134.216-2276.016Z" transform="translate(0 -280.67)"/>
    </g>
  </g>
</svg>
