<svg xmlns="http://www.w3.org/2000/svg" width="101.032" height="124.863" viewBox="0 0 101.032 124.863">
  <g id="Grupo_1099740" data-name="Grupo 1099740" transform="translate(-900.283 -27023.664)">
    <g id="botella-de-cerveza" transform="translate(851.382 27023.664)">
      <g id="_000000ff" data-name="#000000ff" transform="translate(48.903)">
        <path id="Path_157173" data-name="Path 157173" d="M96.862,0H101.8c1.87.424,4.073.619,5.365,2.222A3.392,3.392,0,0,1,107.59,5.1a3.8,3.8,0,0,1,1.08,2.97c-.02,1.071-1.115,1.685-1.341,2.651.08,2.156.91,4.192,1.427,6.268A64.058,64.058,0,0,1,111.5,38.068a33,33,0,0,0-.178,3.4,4.26,4.26,0,0,0,.927.922,25.073,25.073,0,0,1,4.195,4.546,25.4,25.4,0,0,1,3.473-3.358,52.133,52.133,0,0,1,.712-15.535c.58-3.161,1.536-6.231,2.366-9.331a6.889,6.889,0,0,0,.339-2.548c-.41-.734-1.093-1.368-1.168-2.249a3.882,3.882,0,0,1,.927-2.646,4.007,4.007,0,0,1,.293-2.395,4.81,4.81,0,0,1,3-1.888,21.789,21.789,0,0,1,6.455-.354c1.724.19,3.651.534,4.843,1.912a3.235,3.235,0,0,1,.5,2.69,4.231,4.231,0,0,1,.951,2.429,3.983,3.983,0,0,1-1.258,2.47,30.368,30.368,0,0,0,1.361,5.97,59.664,59.664,0,0,1,2.339,13.267,63.3,63.3,0,0,1-.188,8.219,21.186,21.186,0,0,1,7.716,11.767,36.512,36.512,0,0,1,.724,10.494c-.444,5.865-1.278,11.694-1.79,17.554-.256,2.509-.376,5.031-.583,7.543,0,2.936-.315,5.863-.258,8.8.041,4.4.278,8.8.622,13.184a4.65,4.65,0,0,1-2.366,4.546c-1.251.7-2.724.532-4.1.544q-11.479-.007-22.956,0c.032,1.456.263,3.039-.5,4.36a5.448,5.448,0,0,1-3.183,2.483H84.169a5.167,5.167,0,0,1-3.268-2.49c-.756-1.324-.515-2.9-.488-4.356q-12.456-.007-24.914,0a4.55,4.55,0,0,1-4.29-3.156,8.414,8.414,0,0,1-.124-3.153,128.467,128.467,0,0,0,.344-17.81c-.178-7.758-1.175-15.464-2-23.173-.58-5.407-1-11,.524-16.3a21.235,21.235,0,0,1,7.5-10.846,57.948,57.948,0,0,1-.219-7.97,58.967,58.967,0,0,1,2.295-13.3,32.02,32.02,0,0,0,1.414-6.182,3.914,3.914,0,0,1-1.261-2.473,4.189,4.189,0,0,1,.956-2.407,3.09,3.09,0,0,1,1-3.187c2.217-1.636,5.153-1.5,7.775-1.478,1.992.1,4.251.349,5.716,1.856a3.365,3.365,0,0,1,.612,2.831,3.711,3.711,0,0,1,.89,2.848c-.127.863-.91,1.424-1.168,2.219.063,1.992.854,3.873,1.322,5.794A55.3,55.3,0,0,1,78.9,43.565a31.793,31.793,0,0,1,3.509,3.368,23.506,23.506,0,0,1,4.431-4.77c.259-.276.729-.488.671-.936,0-1.39-.21-2.773-.234-4.163A61.855,61.855,0,0,1,89.2,20.234c.615-2.519,1.4-4.992,2.022-7.511a6.537,6.537,0,0,0,.229-2.244c-.485-.861-1.371-1.583-1.327-2.658a3.921,3.921,0,0,1,1.1-2.714,3.343,3.343,0,0,1,.415-2.88C92.907.658,95.043.456,96.862,0M95.35,4.382A3.891,3.891,0,0,1,94.426,7.7a5.454,5.454,0,0,1,.936,4.268,70.385,70.385,0,0,1-1.844,7.323,58.066,58.066,0,0,0-2.031,21.675,5.27,5.27,0,0,1-.027,2.1,3.231,3.231,0,0,1-1.207,1.39,20.5,20.5,0,0,0-5.79,6.685C82.029,55.665,81.715,60.954,82,65.986c2.67.02,5.343,0,8.014.012a2.115,2.115,0,0,1,1.471,1.583,1.948,1.948,0,0,1-1.851,2.285c-2.434.029-4.868,0-7.3.012.9,8.45,1.975,16.888,2.368,25.382,5.063.024,10.128.007,15.191.01a10.214,10.214,0,0,1,2.217.107,1.947,1.947,0,0,1,1.168,2.651,2.126,2.126,0,0,1-1.444,1.134c-5.655-.015-11.311,0-16.966-.01.117,4.968.076,9.94-.215,14.9q14.753.026,29.511,0c-.3-4.96-.344-9.93-.215-14.9h-4.4a2.189,2.189,0,0,1-1.4-1.358,1.945,1.945,0,0,1,1.744-2.5c1.4-.056,2.807,0,4.212-.022.393-8.5,1.471-16.939,2.373-25.392-6.268-.007-12.533.01-18.8-.01a1.939,1.939,0,1,1,.029-3.878c6.365-.037,12.733,0,19.1-.017.276-4.848.007-9.926-2.2-14.342a21,21,0,0,0-6.416-7.477,2.433,2.433,0,0,1-.924-2.47,57.63,57.63,0,0,0-1.724-21.473c-.651-2.641-1.566-5.219-2.039-7.9a5.631,5.631,0,0,1,.89-4.607,3.91,3.91,0,0,1-.924-3.322,17.177,17.177,0,0,0-8.119,0m-30.516,6.4a4.04,4.04,0,0,1-.79,2.851,5.49,5.49,0,0,1,.69,4.187c-.527,2.8-1.493,5.49-2.129,8.262A50.438,50.438,0,0,0,61.4,43.643a2.484,2.484,0,0,1-.876,2.544,18.7,18.7,0,0,0-5.687,6.555C52.768,56.82,52.642,61.531,52.954,66h.078c1.966.007,3.931,0,5.9,0a2.2,2.2,0,0,1,2.149.9,1.947,1.947,0,0,1-1.446,2.968c-2.1.049-4.2,0-6.307.02.78,7.114,1.644,14.225,1.995,21.378,4.948.01,9.894-.017,14.84.012a1.937,1.937,0,0,1,1.692,2.641c-.178.566-.715.871-1.171,1.19-5.07.073-10.138.012-15.208.032q.165,6.413-.176,12.823H81.019c.083-4.273,0-8.548-.188-12.818q-1.907,0-3.809-.02a2.482,2.482,0,0,1-1.241-1.246A1.939,1.939,0,0,1,77.274,91.3c1.1-.083,2.2-.012,3.3-.034C80.091,84.109,79.155,77,78.423,69.879h-11.7A1.941,1.941,0,1,1,66.749,66c3.79-.017,7.58.01,11.369-.007-.31-5.16.046-10.511,2.173-15.291a18.835,18.835,0,0,0-3.878-4.046,2.757,2.757,0,0,1-1.5-2.275c.129-1.946.341-3.89.322-5.846A58.639,58.639,0,0,0,72.35,20.959c-.607-2.353-1.575-5.112-.046-7.316a3.893,3.893,0,0,1-.8-2.853,17.924,17.924,0,0,0-6.677,0m62.47,0a4.023,4.023,0,0,1-.793,2.856,5.243,5.243,0,0,1,.741,3.9c-.373,2.327-1.151,4.563-1.736,6.843a51.77,51.77,0,0,0-1.851,16.822c.034,1.141.258,2.273.232,3.417a2.734,2.734,0,0,1-1.351,1.922,19.424,19.424,0,0,0-4.017,4.141C120.656,55.476,121,60.829,120.7,66q.852.015,1.71.01a2.016,2.016,0,0,1,1.107,3c-.663,1.073-2.056.878-3.129.88C119.669,77,118.728,84.1,118.252,91.24c4.777.01,9.555-.017,14.33.015a1.944,1.944,0,0,1,1.827,2.39,2.349,2.349,0,0,1-1.285,1.458c-5.041.068-10.082.01-15.125.032-.2,4.265-.271,8.533-.183,12.8q12.855.007,25.711,0c-.234-4.268-.278-8.543-.183-12.815-1.319.027-2.639.007-3.956-.039a2.462,2.462,0,0,1-1.2-1.439,1.932,1.932,0,0,1,1.685-2.38c1.21-.066,2.424-.007,3.636-.027.349-7.148,1.222-14.252,2-21.361-5.448-.007-10.894.01-16.339-.007a1.958,1.958,0,0,1-1.939-2.341,2.068,2.068,0,0,1,1.519-1.536h17.12a28.89,28.89,0,0,0-.9-10.857,17.415,17.415,0,0,0-5.96-8.4,4.336,4.336,0,0,1-1.439-1.468,4.174,4.174,0,0,1-.093-2.109,50.015,50.015,0,0,0-1.1-16.356c-.634-2.936-1.644-5.775-2.249-8.716a5.681,5.681,0,0,1,.641-4.453,4.022,4.022,0,0,1-.788-2.858,18.04,18.04,0,0,0-6.68,0M55.019,111.857c.012.734-.512,2.324.727,2.209H80.76q.055-1.1.112-2.207H55.019m62.931,0c.037.736.076,1.471.112,2.209h25.029c1.224.1.693-1.483.71-2.209h-25.85M85.24,120.953c8.867.024,17.734,0,26.6.012.8-.085,1.746.224,2.446-.256.534-.8.146-1.851.122-2.748q-15,.029-30.006,0c0,.968-.68,2.931.837,2.99Z" transform="translate(-48.903)"/>
        <path id="Path_157174" data-name="Path 157174" d="M239.819,105.165a4.8,4.8,0,1,1-3.426,4.229,4.8,4.8,0,0,1,3.426-4.229m.924,3.8a.912.912,0,1,0,.908.044A.907.907,0,0,0,240.743,108.965Z" transform="translate(-190.655 -79.368)"/>
        <path id="Path_157175" data-name="Path 157175" d="M113.211,120.316a4.475,4.475,0,1,1-3,2.1,4.475,4.475,0,0,1,3-2.1m.493,3.926c-.637.427.146,1.483.739.922.584-.455-.179-1.4-.743-.921Z" transform="translate(-94.787 -90.913)"/>
        <path id="Path_157176" data-name="Path 157176" d="M369.357,120.323a4.476,4.476,0,1,1-3.156,2.444,4.476,4.476,0,0,1,3.156-2.444m.512,3.926c-.627.439.156,1.461.734.924C371.2,124.734,370.447,123.744,369.869,124.249Z" transform="translate(-288.485 -90.914)"/>
        <path id="Path_157177" data-name="Path 157177" d="M99.99,296.018a8.421,8.421,0,1,1-6.107,5.316,8.421,8.421,0,0,1,6.107-5.316m.478,3.919a4.513,4.513,0,1,0,4.349.981,4.509,4.509,0,0,0-4.349-.981Z" transform="translate(-82.52 -223.688)"/>
        <path id="Path_157178" data-name="Path 157178" d="M356.136,296.029a8.418,8.418,0,1,1-6.382,9.96,8.428,8.428,0,0,1,6.382-9.96m.468,3.929a4.506,4.506,0,1,0,5.531,2.531,4.506,4.506,0,0,0-5.531-2.531Z" transform="translate(-276.239 -223.689)"/>
        <path id="Path_157179" data-name="Path 157179" d="M225.827,302.271a9.239,9.239,0,1,1-6.065,3.9,9.239,9.239,0,0,1,6.065-3.9m.451,3.9a5.337,5.337,0,1,0,4.068.794,5.316,5.316,0,0,0-4.068-.794Z" transform="translate(-176.878 -228.458)"/>
      </g>
      <g id="_8ce19cff" data-name="#8ce19cff" transform="translate(52.82 3.896)">
        <path id="Path_157180" data-name="Path 157180" d="M197.707,16.462a17.177,17.177,0,0,1,8.118,0,3.91,3.91,0,0,0,.924,3.322,5.631,5.631,0,0,0-.89,4.607c.473,2.683,1.388,5.26,2.039,7.9a57.63,57.63,0,0,1,1.724,21.473,2.433,2.433,0,0,0,.924,2.47,21,21,0,0,1,6.416,7.477c2.212,4.417,2.48,9.494,2.2,14.342-8.931-.122-17.861-.027-26.792.024-2.67-.012-5.343.007-8.014-.012-.29-5.031.024-10.321,2.458-14.845a20.5,20.5,0,0,1,5.79-6.685,3.232,3.232,0,0,0,1.207-1.39,5.27,5.27,0,0,0,.027-2.1,58.067,58.067,0,0,1,2.031-21.675,70.381,70.381,0,0,0,1.844-7.323,5.454,5.454,0,0,0-.936-4.268,3.891,3.891,0,0,0,.924-3.314m2.717,21.414a3.733,3.733,0,1,0,.006,0Z" transform="translate(-155.177 -15.975)" fill="#ffdc39"/>
        <path id="Path_157181" data-name="Path 157181" d="M76.978,43.245a17.924,17.924,0,0,1,6.677,0,3.893,3.893,0,0,0,.8,2.853c-1.529,2.2-.561,4.963.046,7.316A58.64,58.64,0,0,1,87.382,71c.02,1.956-.193,3.9-.322,5.846a2.757,2.757,0,0,0,1.5,2.275,18.835,18.835,0,0,1,3.878,4.046c-2.127,4.78-2.483,10.13-2.173,15.291-3.634-.124-7.272-.037-10.908-.054-4.729.168-9.457-.139-14.184.056H65.1c-.312-4.468-.185-9.179,1.88-13.257a18.7,18.7,0,0,1,5.687-6.555,2.484,2.484,0,0,0,.876-2.544,50.438,50.438,0,0,1,1.214-17.559c.637-2.773,1.6-5.465,2.129-8.262a5.49,5.49,0,0,0-.69-4.187,4.04,4.04,0,0,0,.79-2.851m2.492,18.622a4.477,4.477,0,1,0,4.3,1.568,4.477,4.477,0,0,0-4.3-1.568Z" transform="translate(-64.964 -36.359)" fill="#ffdc39"/>
        <path id="Path_157182" data-name="Path 157182" d="M343.185,43.236a18.04,18.04,0,0,1,6.68,0,4.022,4.022,0,0,0,.788,2.858,5.681,5.681,0,0,0-.641,4.453c.6,2.941,1.614,5.78,2.249,8.716a50.015,50.015,0,0,1,1.093,16.359,4.174,4.174,0,0,0,.093,2.109,4.336,4.336,0,0,0,1.439,1.468,17.415,17.415,0,0,1,5.96,8.4,28.89,28.89,0,0,1,.9,10.857h-17.12c-2.107-.02-4.217-.034-6.324.007q-.856,0-1.71-.01c.293-5.168-.046-10.521-2.18-15.305A19.425,19.425,0,0,1,338.427,79a2.734,2.734,0,0,0,1.351-1.922c.027-1.144-.2-2.275-.232-3.417A51.77,51.77,0,0,1,341.4,56.839c.585-2.28,1.363-4.517,1.736-6.843a5.243,5.243,0,0,0-.741-3.9,4.023,4.023,0,0,0,.793-2.856m2.47,18.627a4.476,4.476,0,1,0,4.314,1.536,4.476,4.476,0,0,0-4.314-1.536Z" transform="translate(-268.699 -36.35)" fill="#ffdc39"/>
        <path id="Path_157183" data-name="Path 157183" d="M112.6,312.057a4.506,4.506,0,1,1-3.065,3.261,4.506,4.506,0,0,1,3.065-3.261Z" transform="translate(-98.573 -239.703)" fill="#ff725d"/>
        <path id="Path_157184" data-name="Path 157184" d="M368.724,312.053a4.509,4.509,0,1,1-3.051,3.473,4.509,4.509,0,0,1,3.051-3.473Z" transform="translate(-292.275 -239.68)" fill="#ff725d"/>
        <path id="Path_157185" data-name="Path 157185" d="M238.413,318.251a5.32,5.32,0,1,1-4.18,4.682A5.32,5.32,0,0,1,238.413,318.251Z" transform="translate(-192.929 -244.437)" fill="#ff725d"/>
        <path id="Path_157186" data-name="Path 157186" d="M75.276,389.992c5.07-.02,10.138.041,15.208-.032,2.112.063,4.226.051,6.338.015,1.271.012,2.539.024,3.809.02.193,4.27.271,8.545.188,12.818H75.1Q75.444,396.409,75.276,389.992Z" transform="translate(-72.628 -298.755)" fill="#ffdc39"/>
        <path id="Path_157187" data-name="Path 157187" d="M331.55,389.949c5.043-.022,10.084.037,15.125-.032,2.088.051,4.178.076,6.265-.017,1.317.046,2.636.066,3.956.039-.1,4.273-.051,8.548.183,12.815q-12.855-.007-25.711,0C331.28,398.482,331.355,394.214,331.55,389.949Z" transform="translate(-266.371 -298.71)" fill="#ffdc39"/>
        <path id="Path_157188" data-name="Path 157188" d="M195.51,421.475c.29-4.963.332-9.935.215-14.9,5.655.01,11.311,0,16.966.01,2.57.012,5.141.029,7.714-.012,1.466,0,2.934.01,4.4,0-.129,4.968-.083,9.938.215,14.9Q210.264,421.506,195.51,421.475Z" transform="translate(-163.673 -311.315)" fill="#ffdc39"/>
        <path id="Path_157189" data-name="Path 157189" d="M73.67,458.667H99.523q-.059,1.1-.112,2.207-12.507.007-25.014,0C73.158,460.991,73.682,459.4,73.67,458.667Z" transform="translate(-71.471 -350.705)" fill="#ff725d"/>
        <path id="Path_157190" data-name="Path 157190" d="M332.03,458.664h25.85c-.017.727.515,2.307-.71,2.21H332.141C332.106,460.135,332.067,459.4,332.03,458.664Z" transform="translate(-266.9 -350.703)" fill="#ff725d"/>
        <path id="Path_157191" data-name="Path 157191" d="M194.833,486.682c-1.517-.059-.839-2.022-.834-2.987q15,.007,30.006,0c.024.9.412,1.946-.122,2.748-.7.48-1.646.171-2.446.256C212.567,486.682,203.7,486.707,194.833,486.682Z" transform="translate(-162.413 -369.627)" fill="#ff725d"/>
      </g>
      <g id="_eef0f5ff" data-name="#eef0f5ff" transform="translate(53.026 29.483)">
        <path id="Path_157192" data-name="Path 157192" d="M252.8,121.007a.916.916,0,1,1-.477.8.907.907,0,0,1,.477-.8Z" transform="translate(-206.839 -120.893)" fill="#eef0f5"/>
        <path id="Path_157193" data-name="Path 157193" d="M125.735,136.265c.561-.476,1.324.466.739.922C125.882,137.748,125.1,136.692,125.735,136.265Z" transform="translate(-110.942 -132.417)" fill="#eef0f5"/>
        <path id="Path_157194" data-name="Path 157194" d="M381.9,136.256c.578-.5,1.332.485.734.924C382.059,137.717,381.276,136.7,381.9,136.256Z" transform="translate(-304.641 -132.404)" fill="#eef0f5"/>
        <path id="Path_157195" data-name="Path 157195" d="M65.81,270.382c4.726-.2,9.455.112,14.184-.056,3.636.017,7.275-.071,10.908.054-3.79.017-7.58-.01-11.369.007a1.941,1.941,0,1,0-.027,3.878c3.9.01,7.8,0,11.7,0,.732,7.124,1.668,14.23,2.146,21.378-1.1.022-2.207-.049-3.3.034a1.939,1.939,0,0,0-1.492,2.578A2.482,2.482,0,0,0,89.8,299.5c-2.112.037-4.226.049-6.338-.015.456-.32.993-.624,1.171-1.19a1.937,1.937,0,0,0-1.692-2.641c-4.946-.029-9.891,0-14.84-.012-.351-7.153-1.214-14.264-2-21.378,2.1-.02,4.2.029,6.307-.02a1.947,1.947,0,0,0,1.446-2.968,2.2,2.2,0,0,0-2.149-.9c-1.966,0-3.931.01-5.9,0m13.347,6.338a3.383,3.383,0,1,1,0,.006Z" transform="translate(-65.81 -233.872)" fill="#eef0f5"/>
        <path id="Path_157196" data-name="Path 157196" d="M193.682,270.37c8.931-.051,17.861-.146,26.792-.024-6.365.02-12.733-.02-19.1.017a1.939,1.939,0,0,0-.029,3.878c6.265.019,12.53,0,18.8.01-.9,8.453-1.98,16.893-2.373,25.392-1.4.022-2.809-.034-4.212.022a1.945,1.945,0,0,0-1.744,2.5,2.189,2.189,0,0,0,1.4,1.358c-2.573.041-5.143.024-7.714.012a2.126,2.126,0,0,0,1.444-1.134,1.947,1.947,0,0,0-1.168-2.651,10.218,10.218,0,0,0-2.217-.107c-5.063,0-10.128.015-15.191-.01-.393-8.494-1.471-16.932-2.368-25.382,2.434-.012,4.868.017,7.3-.012a1.948,1.948,0,0,0,1.851-2.285,2.115,2.115,0,0,0-1.471-1.583m7.833,7.814a9.227,9.227,0,1,0,9.857,5.077,9.228,9.228,0,0,0-9.857-5.077Z" transform="translate(-156.689 -233.853)" fill="#eef0f5"/>
        <path id="Path_157197" data-name="Path 157197" d="M337.438,270.557c2.107-.041,4.217-.027,6.324-.007a2.068,2.068,0,0,0-1.519,1.536,1.958,1.958,0,0,0,1.939,2.341c5.446.017,10.891,0,16.339.007-.776,7.109-1.649,14.213-2,21.361-1.212.019-2.427-.039-3.636.027a1.932,1.932,0,0,0-1.685,2.38,2.462,2.462,0,0,0,1.2,1.439c-2.088.093-4.178.068-6.265.017a2.349,2.349,0,0,0,1.285-1.458,1.944,1.944,0,0,0-1.827-2.39c-4.775-.032-9.552,0-14.33-.015.476-7.143,1.417-14.242,2.146-21.361,1.073,0,2.466.193,3.129-.88a2.016,2.016,0,0,0-1.107-3m6.38,6.338a8.513,8.513,0,0,0-5.282,3.743,8.412,8.412,0,1,0,5.283-3.747Z" transform="translate(-268.044 -234.038)" fill="#eef0f5"/>
      </g>
    </g>
  </g>
</svg>
