<svg xmlns="http://www.w3.org/2000/svg" width="114.768" height="125" viewBox="0 0 114.768 125">
  <g id="Grupo_1099741" data-name="Grupo 1099741" transform="translate(-1220.232 -27022.5)">
    <g id="client" transform="translate(1199.337 27022.5)">
      <g id="_000000ff" data-name="#000000ff" transform="translate(20.896)">
        <path id="Path_157116" data-name="Path 157116" d="M62.738,0h1.035a25.3,25.3,0,0,1,24.07,21,34.1,34.1,0,0,1,.352,6.211,11.494,11.494,0,0,1,3.948.427,5.952,5.952,0,0,1,3.525,4.106,10.182,10.182,0,0,1-8.093,12.468A25.363,25.363,0,0,1,76.056,60.151c-.049,2.322-.01,4.644-.02,6.965,5.208,2.437,10.493,4.709,15.632,7.288.1-.459.393-.916.291-1.392-.989-3.835-2.046-7.656-3.01-11.5a1.828,1.828,0,0,1,2.065-2.124c3.672.486,7.336,1.038,11.008,1.506a23.159,23.159,0,0,1,9.951-2.976,22.4,22.4,0,0,1,19.338,35.637,1.827,1.827,0,0,1-2.81-2.334,18.736,18.736,0,0,0-24.336-27.29,3.134,3.134,0,0,1-1.951.693c-3-.4-6-.833-9-1.238.813,3.13,1.653,6.255,2.466,9.385a2.436,2.436,0,0,1-.151,1.553,18.735,18.735,0,0,0,27.363,22.043,1.829,1.829,0,0,1,2.2,2.92,22.33,22.33,0,0,1-19.988,1.86q-.007,10.957,0,21.912A1.921,1.921,0,0,1,103.578,125H22.5a1.894,1.894,0,0,1-1.58-1.943c0-3.025-.012-6.047,0-9.07a1.823,1.823,0,1,1,3.645,0c.029,2.446-.01,4.9.017,7.341,3.63,0,7.266.017,10.9-.007.007-3.574-.015-7.148.01-10.72a1.821,1.821,0,0,1,3.64-.022c.034,3.584,0,7.166.017,10.749q9.686.015,19.373,0Q50.275,98.074,42.01,74.814c-3.428,1.587-6.965,3.064-9.973,5.4a18.028,18.028,0,0,0-5.884,7.512,22.529,22.529,0,0,0-1.57,8.462c-.02,3.105.012,6.208-.015,9.314a1.823,1.823,0,1,1-3.645-.007c.066-4.324-.215-8.665.229-12.974a22.52,22.52,0,0,1,3.264-9.414c2.664-4.25,6.882-7.246,11.331-9.412,4.719-2.244,9.5-4.368,14.231-6.577,0-2.324.037-4.651-.02-6.973a25.3,25.3,0,0,1-11.5-15.925,10.486,10.486,0,0,1-5.327-2.734,10.269,10.269,0,0,1-2.81-9.646,5.993,5.993,0,0,1,3.56-4.2,11.515,11.515,0,0,1,3.953-.427,35.644,35.644,0,0,1,.281-5.752A25.223,25.223,0,0,1,62.738,0M46.971,10.942a14.462,14.462,0,0,0,4.763,8.042C55.445,22.06,60.4,23.078,65.1,23.256c5.286.093,10.574.037,15.859.081,1.162,0,2.324.012,3.486-.007A21.569,21.569,0,0,0,67.977,4.285a21.166,21.166,0,0,0-21.006,6.658M41.5,26.875c3.066-1.165,4.792-4.324,5.61-7.334a19.938,19.938,0,0,1-2.832-4.912A22.265,22.265,0,0,0,41.5,26.875m8.555-4.514c-1.426,3.831-4.407,7.429-8.562,8.315v8.142A21.529,21.529,0,0,0,69.54,59.133l.049-.059a20.894,20.894,0,0,0,9.663-6.355,21.465,21.465,0,0,0,5.269-13.9q.011-5.911,0-11.819H80.949c-5.2-.046-10.4-.007-15.6-.071-5.364-.139-10.933-1.292-15.3-4.573m-15.9,9.7c-1.372,3.1.608,7.058,3.726,8.208-.1-3.127-.024-6.257-.051-9.385-1.274.032-3.04-.264-3.674,1.177m54.033-1.177c-.022,3.127.049,6.257-.049,9.382a6.644,6.644,0,0,0,4.07-5.1,4.426,4.426,0,0,0-.732-3.655c-.857-.891-2.192-.535-3.289-.625M53.649,62.007v5.171c3.159,1.621,6.3,3.262,9.468,4.868,2.563-1.353,5.137-2.688,7.7-4.038.508-.264,1.008-.537,1.523-.781.081-1.736.012-3.477.034-5.215a25.317,25.317,0,0,1-18.723,0m-8.286,11.27,3.452,9.739q5.468-4.277,10.913-8.582c-2.654-1.367-5.3-2.747-7.961-4.1-2.131.991-4.272,1.956-6.4,2.947m28.882-2.942c-1.76.95-3.545,1.851-5.31,2.793-.83.42-1.646.869-2.473,1.294q5.46,4.3,10.93,8.6c.53-1.494,1.064-2.986,1.587-4.48l.012.007c.593-1.736,1.218-3.459,1.836-5.186q-3.281-1.531-6.582-3.025m9.924,4.561c-.647,1.765-1.26,3.542-1.895,5.31q-7.291,20.566-14.6,41.13h19.2c.01-3.506,0-7.012,0-10.518a1.859,1.859,0,0,1,1.184-1.875,1.832,1.832,0,0,1,2.468,1.653c.022,3.579,0,7.158.007,10.737,1.8.017,3.6,0,5.4.007,1.836,0,3.672.012,5.51-.01L101.447,99.6c.09-.354-.305-.471-.513-.637A23.534,23.534,0,0,1,94.95,93.2a29.546,29.546,0,0,1-2.893-5.73,24.938,24.938,0,0,1-1.084-9.27c-2.207-1.221-4.5-2.266-6.8-3.3M59.54,79.221a5.881,5.881,0,0,0,.342,1.084c.383,1.123.784,2.244,1.174,3.364,1.3.007,2.6.01,3.906,0,.386-1.14.786-2.275,1.167-3.413.137-.376.264-.752.388-1.128-1.128-.9-2.268-1.78-3.4-2.678-1.218.891-2.361,1.882-3.582,2.771m10.029,2.31c-.461,1.372-.962,2.734-1.4,4.114q1.487,7.39,3.015,14.775c1.692-4.563,3.269-9.175,4.912-13.757q-3.259-2.567-6.526-5.132M50.113,86.66c1.6,4.5,3.184,9,4.795,13.5.984-4.839,1.985-9.673,2.949-14.514-.437-1.335-.93-2.654-1.387-3.984q-3.182,2.494-6.357,5m11.145.681q-.11.527-.212,1.062-1.8,8.786-3.586,17.576c-.042.374-.256.769-.093,1.14q2.531,7.1,5.049,14.214.691.015,1.384-.01c1.646-4.722,3.364-9.421,5-14.148-1.248-6.262-2.544-12.515-3.816-18.769-.071-.356-.139-.708-.21-1.062-1.174-.017-2.344-.01-3.516,0Z" transform="translate(-20.896)"/>
        <path id="Path_157117" data-name="Path 157117" d="M373.4,282.619a6.641,6.641,0,0,1,13.057,1.721,6.721,6.721,0,0,1-4.8,6.379c-.083,1.067.308,2.4-.62,3.2a1.84,1.84,0,0,1-3.005-1.013c-.081-1.216-.02-2.437-.034-3.652a1.835,1.835,0,0,1,1.746-1.938,3.031,3.031,0,0,0,3.04-2.722,2.975,2.975,0,0,0-5.9-.735,1.849,1.849,0,0,1-2.974,1.213A2.153,2.153,0,0,1,373.4,282.619Z" transform="translate(-287.217 -209.89)"/>
        <path id="Path_157118" data-name="Path 157118" d="M393.876,364.059a1.839,1.839,0,1,1-1.1,1.44,1.831,1.831,0,0,1,1.1-1.44Z" transform="translate(-301.978 -275.057)"/>
      </g>
      <g id="_375e7dff" data-name="#375e7dff" transform="translate(22.748 3.66)">
        <path id="Path_157119" data-name="Path 157119" d="M127.7,22.272a21.166,21.166,0,0,1,21.006-6.658c.867.681,1.848,1.194,2.754,1.816a23.323,23.323,0,0,1,9.407,13.284c.364,1.3.52,2.639.823,3.953-5.286-.044-10.574.012-15.859-.081-4.7-.178-9.656-1.2-13.367-4.272a14.462,14.462,0,0,1-4.764-8.042Z" transform="translate(-103.476 -14.99)" fill="#727997"/>
        <path id="Path_157120" data-name="Path 157120" d="M37.77,311.838c3.008-2.334,6.545-3.811,9.973-5.4q8.284,23.251,16.511,46.521H44.881c-.022-3.584.017-7.166-.017-10.75a1.821,1.821,0,0,0-3.64.022c-.024,3.572,0,7.146-.01,10.72-3.63.024-7.266.012-10.9.007-.027-2.446.012-4.9-.017-7.341a1.9,1.9,0,0,0-1.821-1.846v-4.812a1.907,1.907,0,0,0,1.821-1.833c.027-3.105,0-6.208.015-9.314a22.529,22.529,0,0,1,1.57-8.462,18.028,18.028,0,0,1,5.888-7.512Z" transform="translate(-28.48 -235.285)" fill="#727997"/>
        <path id="Path_157121" data-name="Path 157121" d="M227.115,328.52a11.816,11.816,0,0,1,1.987.977,31.772,31.772,0,0,1,4.863,3.452c1.021.9,1.855,1.985,2.927,2.827a29.548,29.548,0,0,0,2.893,5.73c.261,1.357.64,2.7.808,4.072a63.646,63.646,0,0,1,.2,7.224c-.007,5.615.022,11.233-.017,16.851-1.8,0-3.6.01-5.4-.007,0-3.579.015-7.158-.007-10.737a1.832,1.832,0,0,0-2.468-1.653,1.859,1.859,0,0,0-1.184,1.875v10.518q-9.6.015-19.2,0Q219.8,349.08,227.115,328.52Z" transform="translate(-167.588 -251.975)" fill="#727997"/>
      </g>
      <g id="_2b4d66ff" data-name="#2b4d66ff" transform="translate(41.474 4.285)">
        <path id="Path_157122" data-name="Path 157122" d="M213.74,17.55A21.569,21.569,0,0,1,230.21,36.6c-1.162.02-2.324.01-3.486.007-.3-1.313-.459-2.656-.823-3.953a23.323,23.323,0,0,0-9.407-13.284C215.588,18.744,214.607,18.231,213.74,17.55Z" transform="translate(-187.237 -17.55)" fill="#575c73"/>
        <path id="Path_157123" data-name="Path 157123" d="M105.212,72.166A22.265,22.265,0,0,1,107.99,59.92a19.938,19.938,0,0,0,2.832,4.912C110,67.842,108.279,71,105.212,72.166Z" transform="translate(-105.184 -49.576)" fill="#575c73"/>
        <path id="Path_157124" data-name="Path 157124" d="M274.2,306.77c2.3,1.03,4.592,2.075,6.8,3.3a24.937,24.937,0,0,0,1.084,9.27c-1.072-.842-1.907-1.931-2.927-2.827a31.768,31.768,0,0,0-4.863-3.452,11.808,11.808,0,0,0-1.987-.977C272.935,310.312,273.548,308.535,274.2,306.77Z" transform="translate(-231.5 -236.16)" fill="#575c73"/>
        <path id="Path_157125" data-name="Path 157125" d="M324.2,381.71a23.533,23.533,0,0,0,5.984,5.757c.208.166.6.283.513.637l.007,21.743c-1.838.022-3.674,0-5.51.01.039-5.618.01-11.235.017-16.851a63.65,63.65,0,0,0-.2-7.224C324.84,384.4,324.461,383.067,324.2,381.71Z" transform="translate(-270.729 -292.804)" fill="#575c73"/>
      </g>
      <path id="Path_157126" data-name="Path 157126" d="M113.832,91.59c4.365,3.281,9.934,4.434,15.3,4.573,5.2.063,10.4.024,15.6.071-.073,4.182.017,8.367-.046,12.551a23.365,23.365,0,0,1-10.2,18.516,3.913,3.913,0,0,0-1.116,1l-.049.059a21.528,21.528,0,0,1-28.044-20.315c-.01-2.712,0-5.427,0-8.142,4.155-.886,7.136-4.485,8.562-8.315" transform="translate(-63.775 -69.229)" fill="#ffe5c1"/>
      <g id="_fed1a3ff" data-name="#fed1a3ff" transform="translate(53.646 27.001)">
        <path id="Path_157127" data-name="Path 157127" d="M231.72,110.6c1.191-.007,2.38,0,3.572,0q.011,5.907,0,11.819a21.465,21.465,0,0,1-5.269,13.9,20.894,20.894,0,0,1-9.663,6.355,3.913,3.913,0,0,1,1.116-1,23.365,23.365,0,0,0,10.2-18.516C231.737,118.966,231.647,114.782,231.72,110.6Z" transform="translate(-204.413 -110.596)" fill="#fed1a3"/>
        <path id="Path_157128" data-name="Path 157128" d="M155.04,265.74c4.729,1.414,9.91,2.483,14.729.862.671-.142,1.55-.642,2.139-.085a8.343,8.343,0,0,1,.3,2.351c-2.563,1.35-5.137,2.686-7.7,4.038-3.164-1.606-6.309-3.247-9.468-4.868Z" transform="translate(-155.04 -227.863)" fill="#fed1a3"/>
      </g>
      <g id="_ffbc85ff" data-name="#ffbc85ff" transform="translate(33.716 30.876)">
        <path id="Path_157129" data-name="Path 157129" d="M73.85,127.65c.635-1.44,2.4-1.145,3.674-1.177.027,3.127-.051,6.257.051,9.385C74.458,134.708,72.478,130.756,73.85,127.65Z" transform="translate(-73.408 -126.468)" fill="#ffbc85"/>
        <path id="Path_157130" data-name="Path 157130" d="M296.389,126.49c1.1.09,2.432-.266,3.289.625a4.426,4.426,0,0,1,.732,3.655,6.644,6.644,0,0,1-4.07,5.1C296.438,132.747,296.367,129.617,296.389,126.49Z" transform="translate(-241.913 -126.485)" fill="#ffbc85"/>
        <path id="Path_157131" data-name="Path 157131" d="M155.042,253.98a25.317,25.317,0,0,0,18.723,0c-.022,1.738.046,3.479-.034,5.215-.515.244-1.016.518-1.523.781a8.343,8.343,0,0,0-.3-2.351c-.588-.557-1.467-.056-2.139.085-4.819,1.621-10,.552-14.729-.862Q155.04,255.416,155.042,253.98Z" transform="translate(-135.11 -222.849)" fill="#ffbc85"/>
      </g>
      <g id="_fec165ff" data-name="#fec165ff" transform="translate(93.216 61.555)">
        <path id="Path_157132" data-name="Path 157132" d="M328.07,254.509a18.642,18.642,0,0,1,18.813.347,7.239,7.239,0,0,0,.869,1.255,20.554,20.554,0,0,1,.513,26.443,20.145,20.145,0,0,1-8.618,6.282c-.5.239-1.177.232-1.5.732A18.755,18.755,0,0,1,319.434,264.9a2.436,2.436,0,0,0,.151-1.553c-.813-3.13-1.653-6.255-2.466-9.385,3,.4,6,.84,9,1.238a3.134,3.134,0,0,0,1.951-.693m2.915,8.8a2.153,2.153,0,0,0,.5,2.454,1.849,1.849,0,0,0,2.974-1.213,2.975,2.975,0,0,1,5.9.735,3.031,3.031,0,0,1-3.04,2.722,1.835,1.835,0,0,0-1.746,1.938c.015,1.216-.046,2.437.034,3.652a1.84,1.84,0,0,0,3.005,1.013c.928-.8.537-2.134.62-3.2a6.643,6.643,0,1,0-8.252-8.1m5.713,16.272a1.831,1.831,0,1,0,2.5,2.039,1.851,1.851,0,0,0-2.493-2.042Z" transform="translate(-317.12 -252.131)" fill="#ffdc39"/>
      </g>
      <g id="_fdb441ff" data-name="#fdb441ff" transform="translate(114.244 64.28)">
        <path id="Path_157133" data-name="Path 157133" d="M411.985,263.29a18.748,18.748,0,0,1,5.522,26.943,1.894,1.894,0,0,0,.334,2.622,25.143,25.143,0,0,1-3.333,3.052,1.912,1.912,0,0,0-2.61-.527A18.6,18.6,0,0,1,403.25,298c.322-.5,1-.493,1.5-.732a20.144,20.144,0,0,0,8.618-6.282,20.554,20.554,0,0,0-.513-26.443,7.239,7.239,0,0,1-.87-1.253Z" transform="translate(-403.25 -263.29)" fill="#d1b52f"/>
      </g>
      <g id="_f9f3f1ff" data-name="#f9f3f1ff" transform="translate(45.362 70.329)">
        <path id="Path_157134" data-name="Path 157134" d="M121.11,291.017c2.131-.991,4.272-1.956,6.4-2.947,2.659,1.357,5.308,2.737,7.961,4.1q-5.453,4.3-10.913,8.582Q122.841,295.885,121.11,291.017Z" transform="translate(-121.11 -288.07)" fill="#f9f3f1"/>
        <path id="Path_157135" data-name="Path 157135" d="M207.53,300.824c.828-.425,1.643-.874,2.473-1.294,1.323.806,2.737,1.438,4.089,2.188,1.96,1.123,4.087,1.948,5.955,3.223-.522,1.494-1.057,2.986-1.587,4.48Q213,305.121,207.53,300.824Z" transform="translate(-186.431 -296.732)" fill="#f9f3f1"/>
      </g>
      <g id="_dddaecff" data-name="#dddaecff" transform="translate(50.113 70.334)">
        <path id="Path_157136" data-name="Path 157136" d="M222.97,288.09q3.3,1.49,6.582,3.025c-.618,1.726-1.243,3.45-1.836,5.186l-.012-.007c-1.868-1.274-3.994-2.1-5.955-3.223-1.353-.75-2.766-1.382-4.089-2.187C219.425,289.941,221.21,289.04,222.97,288.09Z" transform="translate(-198.839 -288.09)" fill="#dddaec"/>
        <path id="Path_157137" data-name="Path 157137" d="M215.921,333.95q3.27,2.556,6.526,5.132c-1.643,4.583-3.22,9.194-4.912,13.757q-1.534-7.383-3.015-14.775C214.959,336.684,215.46,335.322,215.921,333.95Z" transform="translate(-196.466 -322.754)" fill="#dddaec"/>
        <path id="Path_157138" data-name="Path 157138" d="M140.57,339.488l6.357-5c.457,1.331.95,2.649,1.387,3.984-.964,4.841-1.965,9.675-2.949,14.514C143.754,348.491,142.167,343.99,140.57,339.488Z" transform="translate(-140.57 -323.162)" fill="#dddaec"/>
      </g>
      <g id="_e5384fff" data-name="#e5384fff" transform="translate(59.54 76.45)">
        <path id="Path_157139" data-name="Path 157139" d="M179.18,315.911c1.221-.889,2.363-1.88,3.582-2.771,1.128.9,2.268,1.782,3.4,2.678-.125.376-.251.752-.388,1.128-1.106-.691-2.021-1.641-3.14-2.31-1.067.745-2.039,1.619-3.108,2.358a5.879,5.879,0,0,1-.346-1.083Z" transform="translate(-179.18 -313.14)" fill="#b55446"/>
        <path id="Path_157140" data-name="Path 157140" d="M185.562,357.731c1.172,0,2.341-.012,3.513,0,.071.354.139.706.21,1.062-1.311.027-2.625.032-3.936,0Q185.453,358.258,185.562,357.731Z" transform="translate(-183.844 -346.84)" fill="#b55446"/>
      </g>
      <g id="_eb5468ff" data-name="#eb5468ff" transform="translate(57.306 77.947)">
        <path id="Path_157141" data-name="Path 157141" d="M183.688,319.27c1.118.669,2.034,1.619,3.14,2.31-.381,1.138-.781,2.273-1.167,3.413-1.3.01-2.6.007-3.906,0-.391-1.121-.791-2.241-1.174-3.364C181.649,320.889,182.621,320.015,183.688,319.27Z" transform="translate(-178.005 -319.27)" fill="#ff725d"/>
        <path id="Path_157142" data-name="Path 157142" d="M173.772,362.1c1.311.034,2.625.029,3.936,0,1.272,6.255,2.568,12.507,3.816,18.77-1.633,4.727-3.352,9.426-5,14.148q-.691.025-1.384.01-2.531-7.1-5.049-14.214c-.164-.371.051-.767.093-1.14C171.386,373.816,172.568,367.957,173.772,362.1Z" transform="translate(-170.032 -351.644)" fill="#ff725d"/>
      </g>
    </g>
  </g>
</svg>
