<svg xmlns="http://www.w3.org/2000/svg" width="400" height="279.152" viewBox="0 0 400 279.152">
  <g id="Grupo_1099729" data-name="Grupo 1099729" transform="translate(-915 -3061.424)">
    <g id="t2-s1" transform="translate(375.085 3474.998)">
      <rect id="Rectangle_36620" data-name="Rectangle 36620" width="398.138" height="277.289" transform="translate(540.846 -412.643)" fill="#fffee6"/>
      <path id="Rectangle_36620_-_Outline" data-name="Rectangle 36620 - Outline" d="M-.847-.847h400V278.3h-400ZM397.291,1.015H1.015V276.442H397.291Z" transform="translate(540.762 -412.726)" fill="#12263f"/>
      <rect id="Rectangle_36621" data-name="Rectangle 36621" width="42.214" height="216.865" transform="translate(586.371 -371.256)" fill="#fff505"/>
      <rect id="Rectangle_36622" data-name="Rectangle 36622" width="42.214" height="216.865" transform="translate(675.766 -371.256)" fill="#5c22c3"/>
      <rect id="Rectangle_36623" data-name="Rectangle 36623" width="42.214" height="216.865" transform="translate(765.161 -371.256)" fill="#64b5f6"/>
      <rect id="Rectangle_36624" data-name="Rectangle 36624" width="42.214" height="216.865" transform="translate(854.555 -371.256)" fill="#ba68c8"/>
      <path id="Path_157286" data-name="Path 157286" d="M6.921-1.176H3.094L2.367,1.007H.047L3.989-9.588H6.012L9.977,1.007H7.659ZM3.684-2.943H6.332L5-6.908ZM12.45-6.865l.065.88a2.766,2.766,0,0,1,2.262-1.026,2.1,2.1,0,0,1,2.088,1.2,2.7,2.7,0,0,1,2.364-1.2,2.347,2.347,0,0,1,1.9.745,3.428,3.428,0,0,1,.632,2.246V1.007H19.652V-4.024A1.5,1.5,0,0,0,19.391-5a1.159,1.159,0,0,0-.924-.31,1.312,1.312,0,0,0-1.309.9l.007,5.417h-2.1V-4.018a1.49,1.49,0,0,0-.269-.993,1.17,1.17,0,0,0-.916-.306,1.362,1.362,0,0,0-1.295.745V1.007h-2.1V-6.865ZM30.463-2.856A4.718,4.718,0,0,1,29.636.057a2.649,2.649,0,0,1-2.228,1.1A2.453,2.453,0,0,1,25.48.325V4.033h-2.1v-10.9h1.947l.073.771a2.471,2.471,0,0,1,2-.917,2.665,2.665,0,0,1,2.262,1.076,4.849,4.849,0,0,1,.808,2.968Zm-2.1-.161a3.115,3.115,0,0,0-.389-1.7,1.266,1.266,0,0,0-1.132-.6,1.376,1.376,0,0,0-1.361.759v3.233a1.4,1.4,0,0,0,1.375.781q1.506,0,1.506-2.474Zm5.624,4.024h-2.11V-10.168h2.11Zm3.95,0h-2.11V-6.865h2.11ZM35.7-8.9a1.035,1.035,0,0,1,.316-.778,1.189,1.189,0,0,1,.862-.305,1.192,1.192,0,0,1,.858.305,1.03,1.03,0,0,1,.32.778,1.032,1.032,0,0,1-.324.786,1.194,1.194,0,0,1-.855.305,1.194,1.194,0,0,1-.855-.305A1.032,1.032,0,0,1,35.7-8.9Zm6.482.1v1.935h1.346v1.542H42.183v3.929a.938.938,0,0,0,.166.626.84.84,0,0,0,.64.19,3.353,3.353,0,0,0,.618-.051V.963a4.328,4.328,0,0,1-1.273.19A2.007,2.007,0,0,1,40.658.588a2.007,2.007,0,0,1-.579-1.671v-4.24H38.931V-6.865h1.15V-8.8ZM49.411.206a2.636,2.636,0,0,1-2.152.946A2.483,2.483,0,0,1,45.329.427a3.106,3.106,0,0,1-.68-2.131V-6.865h2.1v5.091q0,1.231,1.121,1.231a1.518,1.518,0,0,0,1.469-.745V-6.865h2.11V1.007H49.472Zm3.3-3.193a4.744,4.744,0,0,1,.828-2.932A2.679,2.679,0,0,1,55.793-7.01a2.411,2.411,0,0,1,1.9.858v-4.016H59.8V1.007H57.9L57.8.17a2.474,2.474,0,0,1-2.022.983,2.672,2.672,0,0,1-2.231-1.1,4.9,4.9,0,0,1-.839-3.044Zm2.1.15a3.125,3.125,0,0,0,.386,1.7,1.255,1.255,0,0,0,1.121.592A1.407,1.407,0,0,0,57.69-1.37V-4.489a1.386,1.386,0,0,0-1.361-.828q-1.516,0-1.516,2.48Z" transform="translate(711.26 -388.672)" fill="#12263f"/>
      <path id="Path_157287" data-name="Path 157287" d="M2.182,7.6v3.732H0V.738H4.132a4.781,4.781,0,0,1,2.1.436A3.217,3.217,0,0,1,7.624,2.416a3.458,3.458,0,0,1,.488,1.829A3.041,3.041,0,0,1,7.046,6.7a4.439,4.439,0,0,1-2.95.9Zm0-1.768h1.95a1.917,1.917,0,0,0,1.324-.407,1.482,1.482,0,0,0,.454-1.164A1.747,1.747,0,0,0,5.452,3a1.712,1.712,0,0,0-1.266-.5h-2Zm11.712-.4a5.711,5.711,0,0,0-.757-.058,1.54,1.54,0,0,0-1.564.808v5.15h-2.1V3.461h1.987l.058.939a1.948,1.948,0,0,1,1.753-1.084,2.2,2.2,0,0,1,.655.094Zm.422,1.891a4.668,4.668,0,0,1,.451-2.088,3.3,3.3,0,0,1,1.3-1.419,3.789,3.789,0,0,1,1.968-.5,3.584,3.584,0,0,1,2.6.975A3.913,3.913,0,0,1,21.759,6.94l.015.538a4.114,4.114,0,0,1-1.011,2.906,3.515,3.515,0,0,1-2.713,1.094,3.533,3.533,0,0,1-2.717-1.091A4.187,4.187,0,0,1,14.316,7.42Zm2.1.149a2.943,2.943,0,0,0,.422,1.716,1.516,1.516,0,0,0,2.4.007,3.22,3.22,0,0,0,.43-1.876,2.913,2.913,0,0,0-.43-1.705,1.4,1.4,0,0,0-1.208-.605,1.372,1.372,0,0,0-1.193.6,3.274,3.274,0,0,0-.422,1.864Zm7.224,3.86V5H22.472V3.461h1.171v-.67A2.717,2.717,0,0,1,24.4.736,2.944,2.944,0,0,1,26.531.006,4.956,4.956,0,0,1,27.6.15l-.022,1.617a2.68,2.68,0,0,0-.64-.065q-1.186,0-1.186,1.122v.638h1.564V5H25.753v6.33Zm9.479-.8a2.636,2.636,0,0,1-2.152.946,2.483,2.483,0,0,1-1.933-.725,3.106,3.106,0,0,1-.682-2.134V3.461h2.1V8.553q0,1.231,1.121,1.231a1.518,1.518,0,0,0,1.469-.745V3.461h2.112v7.872H33.18Zm5.558-7.071.065.911a2.748,2.748,0,0,1,2.262-1.055,2.284,2.284,0,0,1,1.862.735,3.428,3.428,0,0,1,.626,2.2v5.084h-2.1V6.284a1.369,1.369,0,0,0-.291-.97,1.3,1.3,0,0,0-.968-.3,1.446,1.446,0,0,0-1.331.758v5.564H36.7V3.461Zm6.082,3.878a4.744,4.744,0,0,1,.828-2.932,2.679,2.679,0,0,1,2.259-1.091,2.411,2.411,0,0,1,1.9.858V.159h2.11V11.333h-1.9l-.1-.837a2.474,2.474,0,0,1-2.025.983,2.672,2.672,0,0,1-2.23-1.1,4.9,4.9,0,0,1-.84-3.044Zm2.1.15a3.125,3.125,0,0,0,.386,1.7,1.255,1.255,0,0,0,1.121.592,1.407,1.407,0,0,0,1.375-.828V5.837a1.386,1.386,0,0,0-1.361-.828Q46.865,5.011,46.865,7.489ZM55.7,11.333H53.595V3.461H55.7ZM53.469,1.424a1.035,1.035,0,0,1,.316-.778,1.365,1.365,0,0,1,1.721,0,1.03,1.03,0,0,1,.32.778,1.032,1.032,0,0,1-.324.786,1.35,1.35,0,0,1-1.71,0,1.032,1.032,0,0,1-.322-.786Zm3.638,5.915a4.744,4.744,0,0,1,.828-2.932,2.679,2.679,0,0,1,2.259-1.091,2.411,2.411,0,0,1,1.9.858V.159H64.2V11.333H62.3l-.1-.837a2.474,2.474,0,0,1-2.022.983,2.672,2.672,0,0,1-2.23-1.1,4.9,4.9,0,0,1-.84-3.044Zm2.1.15a3.125,3.125,0,0,0,.386,1.7,1.255,1.255,0,0,0,1.121.592,1.407,1.407,0,0,0,1.375-.828V5.837a1.386,1.386,0,0,0-1.361-.828q-1.519,0-1.519,2.48Zm11.183,3.844a2.335,2.335,0,0,1-.211-.706,2.544,2.544,0,0,1-1.987.851,2.794,2.794,0,0,1-1.917-.67,2.152,2.152,0,0,1-.757-1.687,2.224,2.224,0,0,1,.928-1.92,4.577,4.577,0,0,1,2.681-.676H70.1V6.074a1.3,1.3,0,0,0-.28-.873,1.1,1.1,0,0,0-.884-.331,1.252,1.252,0,0,0-.833.255.865.865,0,0,0-.3.7H65.7a2.112,2.112,0,0,1,.422-1.266,2.789,2.789,0,0,1,1.193-.911,4.348,4.348,0,0,1,1.732-.331,3.435,3.435,0,0,1,2.31.731A2.558,2.558,0,0,1,72.208,6.1v3.41a3.763,3.763,0,0,0,.313,1.7v.126ZM68.654,9.87a1.811,1.811,0,0,0,.858-.207,1.362,1.362,0,0,0,.579-.556V7.754h-.786q-1.578,0-1.68,1.091l-.007.123a.842.842,0,0,0,.276.647,1.076,1.076,0,0,0,.758.255Zm4.837-2.531a4.744,4.744,0,0,1,.828-2.932,2.679,2.679,0,0,1,2.259-1.091,2.411,2.411,0,0,1,1.9.858V.159h2.111V11.333h-1.9l-.1-.837a2.474,2.474,0,0,1-2.022.983,2.672,2.672,0,0,1-2.23-1.1,4.9,4.9,0,0,1-.84-3.044Zm2.1.15a3.125,3.125,0,0,0,.386,1.7,1.255,1.255,0,0,0,1.121.592,1.407,1.407,0,0,0,1.375-.828V5.837a1.386,1.386,0,0,0-1.361-.828Q75.594,5.011,75.594,7.489Z" transform="translate(559.214 -224.087) rotate(-90)" fill="#12263f"/>
      <g id="Group_107576" data-name="Group 107576" transform="translate(585.709 -371.593)">
        <path id="Rectangle_36625" data-name="Rectangle 36625" d="M-.6-.6H42.936V36.969H-.6ZM41.612.722H.722V35.645h40.89Z" transform="translate(0.603 0.603)" fill="#12263f"/>
        <path id="Rectangle_36626" data-name="Rectangle 36626" d="M-.6-.6H42.936V36.969H-.6ZM41.612.722H.722V35.645h40.89Z" transform="translate(0.603 36.661)" fill="#12263f"/>
        <path id="Rectangle_36627" data-name="Rectangle 36627" d="M-.6-.6H42.936V36.969H-.6ZM41.612.722H.722V35.645h40.89Z" transform="translate(0.603 72.719)" fill="#12263f"/>
        <path id="Rectangle_36628" data-name="Rectangle 36628" d="M-.6-.6H42.936V36.969H-.6ZM41.612.722H.722V35.645h40.89Z" transform="translate(0.603 108.778)" fill="#12263f"/>
        <path id="Rectangle_36629" data-name="Rectangle 36629" d="M-.6-.6H42.936V36.969H-.6ZM41.612.722H.722V35.645h40.89Z" transform="translate(0.603 144.837)" fill="#12263f"/>
        <path id="Rectangle_36630" data-name="Rectangle 36630" d="M-.6-.6H42.936V36.969H-.6ZM41.612.722H.722V35.645h40.89Z" transform="translate(0.603 180.895)" fill="#12263f"/>
      </g>
      <g id="Group_107577" data-name="Group 107577" transform="translate(675.104 -371.593)">
        <path id="Rectangle_36631" data-name="Rectangle 36631" d="M-.6-.6H42.936V36.969H-.6ZM41.612.722H.722V35.645h40.89Z" transform="translate(0.603 0.603)" fill="#12263f"/>
        <path id="Rectangle_36632" data-name="Rectangle 36632" d="M-.6-.6H42.936V36.969H-.6ZM41.612.722H.722V35.645h40.89Z" transform="translate(0.603 36.661)" fill="#12263f"/>
        <path id="Rectangle_36633" data-name="Rectangle 36633" d="M-.6-.6H42.936V36.969H-.6ZM41.612.722H.722V35.645h40.89Z" transform="translate(0.603 72.719)" fill="#12263f"/>
        <path id="Rectangle_36634" data-name="Rectangle 36634" d="M-.6-.6H42.936V36.969H-.6ZM41.612.722H.722V35.645h40.89Z" transform="translate(0.603 108.778)" fill="#12263f"/>
        <path id="Rectangle_36635" data-name="Rectangle 36635" d="M-.6-.6H42.936V36.969H-.6ZM41.612.722H.722V35.645h40.89Z" transform="translate(0.603 144.837)" fill="#12263f"/>
        <path id="Rectangle_36636" data-name="Rectangle 36636" d="M-.6-.6H42.936V36.969H-.6ZM41.612.722H.722V35.645h40.89Z" transform="translate(0.603 180.895)" fill="#12263f"/>
      </g>
      <g id="Group_107578" data-name="Group 107578" transform="translate(764.499 -371.593)">
        <path id="Rectangle_36637" data-name="Rectangle 36637" d="M-.6-.6H42.936V36.969H-.6ZM41.612.722H.722V35.645h40.89Z" transform="translate(0.603 0.603)" fill="#12263f"/>
        <path id="Rectangle_36638" data-name="Rectangle 36638" d="M-.6-.6H42.936V36.969H-.6ZM41.612.722H.722V35.645h40.89Z" transform="translate(0.603 36.661)" fill="#12263f"/>
        <path id="Rectangle_36639" data-name="Rectangle 36639" d="M-.6-.6H42.936V36.969H-.6ZM41.612.722H.722V35.645h40.89Z" transform="translate(0.603 72.719)" fill="#12263f"/>
        <path id="Rectangle_36640" data-name="Rectangle 36640" d="M-.6-.6H42.936V36.969H-.6ZM41.612.722H.722V35.645h40.89Z" transform="translate(0.603 108.778)" fill="#12263f"/>
        <path id="Rectangle_36641" data-name="Rectangle 36641" d="M-.6-.6H42.936V36.969H-.6ZM41.612.722H.722V35.645h40.89Z" transform="translate(0.603 144.837)" fill="#12263f"/>
        <path id="Rectangle_36642" data-name="Rectangle 36642" d="M-.6-.6H42.936V36.969H-.6ZM41.612.722H.722V35.645h40.89Z" transform="translate(0.603 180.895)" fill="#12263f"/>
      </g>
      <g id="Group_107579" data-name="Group 107579" transform="translate(853.893 -371.593)">
        <path id="Rectangle_36643" data-name="Rectangle 36643" d="M-.6-.6H42.936V36.969H-.6ZM41.612.722H.722V35.645h40.89Z" transform="translate(0.603 0.603)" fill="#12263f"/>
        <path id="Rectangle_36644" data-name="Rectangle 36644" d="M-.6-.6H42.936V36.969H-.6ZM41.612.722H.722V35.645h40.89Z" transform="translate(0.603 36.661)" fill="#12263f"/>
        <path id="Rectangle_36645" data-name="Rectangle 36645" d="M-.6-.6H42.936V36.969H-.6ZM41.612.722H.722V35.645h40.89Z" transform="translate(0.603 72.719)" fill="#12263f"/>
        <path id="Rectangle_36646" data-name="Rectangle 36646" d="M-.6-.6H42.936V36.969H-.6ZM41.612.722H.722V35.645h40.89Z" transform="translate(0.603 108.778)" fill="#12263f"/>
        <path id="Rectangle_36647" data-name="Rectangle 36647" d="M-.6-.6H42.936V36.969H-.6ZM41.612.722H.722V35.645h40.89Z" transform="translate(0.603 144.837)" fill="#12263f"/>
        <path id="Rectangle_36648" data-name="Rectangle 36648" d="M-.6-.6H42.936V36.969H-.6ZM41.612.722H.722V35.645h40.89Z" transform="translate(0.603 180.895)" fill="#12263f"/>
      </g>
    </g>
  </g>
</svg>
