<svg xmlns="http://www.w3.org/2000/svg" width="400" height="279.152" viewBox="0 0 400 279.152">
  <g id="Grupo_1099730" data-name="Grupo 1099730" transform="translate(-915 -3665.423)">
    <g id="t2-s2" transform="translate(1941.638 10582.451)">
      <rect id="Rectangle_37265" data-name="Rectangle 37265" width="398.138" height="277.289" transform="translate(-1025.707 -6916.097)" fill="#fffee6"/>
      <path id="Rectangle_37265_-_Outline" data-name="Rectangle 37265 - Outline" d="M-.847-.847h400V278.3h-400ZM397.29,1.015H1.015V276.442H397.29Z" transform="translate(-1025.791 -6916.181)" fill="#12263f"/>
      <rect id="Rectangle_37245" data-name="Rectangle 37245" width="50.491" height="216.865" transform="translate(-980.182 -6874.711)" fill="#fff505"/>
      <rect id="Rectangle_37246" data-name="Rectangle 37246" width="50.491" height="216.865" transform="translate(-893.546 -6874.711)" fill="#5c22c3"/>
      <rect id="Rectangle_37247" data-name="Rectangle 37247" width="50.491" height="216.865" transform="translate(-806.911 -6874.711)" fill="#64b5f6"/>
      <rect id="Rectangle_37248" data-name="Rectangle 37248" width="50.491" height="216.865" transform="translate(-720.275 -6874.711)" fill="#ba68c8"/>
      <path id="Path_156865" data-name="Path 156865" d="M6.921-1.176H3.094L2.367,1.007H.047L3.989-9.588H6.012L9.977,1.007H7.659ZM3.684-2.943H6.332L5-6.908ZM12.45-6.865l.065.88a2.766,2.766,0,0,1,2.262-1.026,2.1,2.1,0,0,1,2.088,1.2,2.7,2.7,0,0,1,2.364-1.2,2.347,2.347,0,0,1,1.9.745,3.428,3.428,0,0,1,.632,2.246V1.007H19.652V-4.013a1.5,1.5,0,0,0-.262-.978,1.159,1.159,0,0,0-.924-.31,1.312,1.312,0,0,0-1.309.9l.007,5.405h-2.1V-4.006A1.481,1.481,0,0,0,14.791-5a1.172,1.172,0,0,0-.915-.3,1.362,1.362,0,0,0-1.295.745V1.007h-2.1V-6.865ZM30.463-2.856A4.718,4.718,0,0,1,29.636.057a2.649,2.649,0,0,1-2.228,1.1A2.453,2.453,0,0,1,25.479.325V4.033h-2.1v-10.9h1.947l.073.771a2.471,2.471,0,0,1,2-.917,2.665,2.665,0,0,1,2.262,1.076,4.849,4.849,0,0,1,.808,2.968Zm-2.1-.153a3.1,3.1,0,0,0-.388-1.7,1.268,1.268,0,0,0-1.132-.6,1.377,1.377,0,0,0-1.361.757v3.223a1.4,1.4,0,0,0,1.375.778q1.506,0,1.506-2.466Zm5.624,4.016h-2.11V-10.168h2.11Zm3.95,0h-2.11V-6.865h2.11ZM35.7-8.9a1.035,1.035,0,0,1,.316-.778,1.189,1.189,0,0,1,.862-.305,1.192,1.192,0,0,1,.858.305,1.03,1.03,0,0,1,.32.778,1.032,1.032,0,0,1-.324.786,1.194,1.194,0,0,1-.855.305,1.194,1.194,0,0,1-.855-.305A1.032,1.032,0,0,1,35.7-8.9Zm6.482.1v1.935h1.346v1.542H42.183v3.929a.938.938,0,0,0,.166.626.84.84,0,0,0,.64.19,3.353,3.353,0,0,0,.618-.051V.963a4.328,4.328,0,0,1-1.273.19A2.007,2.007,0,0,1,40.658.588a2.007,2.007,0,0,1-.579-1.671v-4.24H38.931V-6.865h1.15V-8.8ZM49.411.206a2.636,2.636,0,0,1-2.152.946A2.483,2.483,0,0,1,45.329.427a3.106,3.106,0,0,1-.68-2.131V-6.865h2.1v5.091q0,1.231,1.121,1.231a1.518,1.518,0,0,0,1.469-.745V-6.865h2.11V1.007H49.472Zm3.3-3.193a4.744,4.744,0,0,1,.828-2.932A2.679,2.679,0,0,1,55.793-7.01a2.411,2.411,0,0,1,1.9.858v-4.016H59.8V1.007H57.9L57.8.17a2.474,2.474,0,0,1-2.022.983,2.672,2.672,0,0,1-2.231-1.1,4.9,4.9,0,0,1-.839-3.044Zm2.1.156a3.107,3.107,0,0,0,.386,1.7,1.256,1.256,0,0,0,1.121.59,1.407,1.407,0,0,0,1.375-.824V-4.477A1.386,1.386,0,0,0,56.329-5.3q-1.516,0-1.516,2.47Z" transform="translate(-855.293 -6892.127)" fill="#12263f"/>
      <path id="Path_156864" data-name="Path 156864" d="M2.182,7.6v3.732H0V.738H4.132a4.781,4.781,0,0,1,2.1.436A3.217,3.217,0,0,1,7.624,2.416a3.458,3.458,0,0,1,.488,1.829A3.041,3.041,0,0,1,7.046,6.7a4.439,4.439,0,0,1-2.95.9Zm0-1.768h1.95a1.917,1.917,0,0,0,1.324-.407,1.482,1.482,0,0,0,.454-1.164A1.747,1.747,0,0,0,5.452,3a1.712,1.712,0,0,0-1.266-.5h-2Zm11.712-.4a5.711,5.711,0,0,0-.757-.058,1.54,1.54,0,0,0-1.564.808v5.15h-2.1V3.461h1.987l.058.939a1.948,1.948,0,0,1,1.753-1.084,2.2,2.2,0,0,1,.655.094Zm.422,1.891a4.668,4.668,0,0,1,.451-2.088,3.3,3.3,0,0,1,1.3-1.419,3.789,3.789,0,0,1,1.968-.5,3.584,3.584,0,0,1,2.6.975A3.913,3.913,0,0,1,21.759,6.94l.015.538a4.114,4.114,0,0,1-1.011,2.906,3.515,3.515,0,0,1-2.713,1.094,3.533,3.533,0,0,1-2.717-1.091,4.187,4.187,0,0,1-1.015-2.968Zm2.1.149a2.943,2.943,0,0,0,.422,1.716,1.515,1.515,0,0,0,2.4.007,3.22,3.22,0,0,0,.43-1.876,2.913,2.913,0,0,0-.43-1.705,1.4,1.4,0,0,0-1.208-.605,1.372,1.372,0,0,0-1.193.6,3.274,3.274,0,0,0-.422,1.864Zm7.224,3.86V5H22.472V3.461h1.171v-.67A2.717,2.717,0,0,1,24.4.736,2.944,2.944,0,0,1,26.531.006,4.915,4.915,0,0,1,27.6.151l-.022,1.63a2.68,2.68,0,0,0-.64-.065q-1.186,0-1.186,1.113v.633h1.564V5H25.753v6.329Zm9.479-.8a2.636,2.636,0,0,1-2.152.946,2.483,2.483,0,0,1-1.933-.725,3.106,3.106,0,0,1-.682-2.134V3.461h2.1V8.553q0,1.231,1.121,1.231a1.518,1.518,0,0,0,1.469-.745V3.461h2.112v7.872H33.18Zm5.558-7.071.065.911a2.748,2.748,0,0,1,2.262-1.055,2.284,2.284,0,0,1,1.862.735,3.428,3.428,0,0,1,.626,2.2v5.084h-2.1V6.3a1.364,1.364,0,0,0-.291-.971,1.3,1.3,0,0,0-.968-.3,1.446,1.446,0,0,0-1.331.757v5.551H36.7V3.461Zm6.082,3.878a4.744,4.744,0,0,1,.828-2.932,2.679,2.679,0,0,1,2.259-1.091,2.411,2.411,0,0,1,1.9.858V.159h2.11V11.333h-1.9l-.1-.837a2.474,2.474,0,0,1-2.025.983,2.672,2.672,0,0,1-2.23-1.1,4.9,4.9,0,0,1-.84-3.044Zm2.1.156a3.107,3.107,0,0,0,.386,1.7,1.256,1.256,0,0,0,1.121.59,1.407,1.407,0,0,0,1.375-.824V5.849a1.386,1.386,0,0,0-1.36-.824Q46.865,5.026,46.865,7.5ZM55.7,11.333H53.595V3.461H55.7ZM53.469,1.424a1.035,1.035,0,0,1,.316-.778,1.365,1.365,0,0,1,1.721,0,1.03,1.03,0,0,1,.32.778,1.032,1.032,0,0,1-.324.786,1.35,1.35,0,0,1-1.71,0,1.032,1.032,0,0,1-.322-.786Zm3.638,5.915a4.744,4.744,0,0,1,.828-2.932,2.679,2.679,0,0,1,2.259-1.091,2.411,2.411,0,0,1,1.9.858V.159H64.2V11.333H62.3l-.1-.837a2.474,2.474,0,0,1-2.022.983,2.672,2.672,0,0,1-2.23-1.1,4.9,4.9,0,0,1-.84-3.044Zm2.1.156a3.107,3.107,0,0,0,.386,1.7,1.256,1.256,0,0,0,1.121.59A1.407,1.407,0,0,0,62.09,8.96V5.849a1.386,1.386,0,0,0-1.361-.824q-1.519,0-1.519,2.47Zm11.183,3.837a2.335,2.335,0,0,1-.211-.706,2.544,2.544,0,0,1-1.987.851,2.794,2.794,0,0,1-1.917-.67,2.152,2.152,0,0,1-.757-1.687,2.224,2.224,0,0,1,.928-1.92,4.577,4.577,0,0,1,2.681-.676H70.1V6.074a1.3,1.3,0,0,0-.28-.873,1.1,1.1,0,0,0-.884-.331,1.252,1.252,0,0,0-.833.255.865.865,0,0,0-.3.7H65.7a2.112,2.112,0,0,1,.422-1.266,2.789,2.789,0,0,1,1.193-.911,4.348,4.348,0,0,1,1.732-.331,3.435,3.435,0,0,1,2.31.731A2.558,2.558,0,0,1,72.208,6.1v3.41a3.763,3.763,0,0,0,.313,1.7v.126ZM68.654,9.87a1.811,1.811,0,0,0,.858-.207,1.362,1.362,0,0,0,.579-.556V7.754h-.786q-1.578,0-1.68,1.091l-.007.123a.842.842,0,0,0,.276.647,1.076,1.076,0,0,0,.758.255Zm4.837-2.531a4.744,4.744,0,0,1,.828-2.932,2.679,2.679,0,0,1,2.259-1.091,2.411,2.411,0,0,1,1.9.858V.159h2.111V11.333h-1.9l-.1-.837a2.474,2.474,0,0,1-2.022.983,2.672,2.672,0,0,1-2.23-1.1,4.9,4.9,0,0,1-.84-3.044Zm2.1.156a3.107,3.107,0,0,0,.386,1.7,1.256,1.256,0,0,0,1.121.59,1.407,1.407,0,0,0,1.375-.824V5.849a1.386,1.386,0,0,0-1.361-.824q-1.521,0-1.521,2.47Z" transform="translate(-1007.339 -6727.541) rotate(-90)" fill="#12263f"/>
      <g id="Group_108130" data-name="Group 108130" transform="translate(-980.844 -6875.048)">
        <path id="Rectangle_37249" data-name="Rectangle 37249" d="M-.6-.6H51.213V55.069H-.6ZM49.889.722H.722V53.745H49.889Z" transform="translate(0.603 0.603)" fill="#12263f"/>
        <path id="Rectangle_37250" data-name="Rectangle 37250" d="M-.6-.6H51.213V55.069H-.6ZM49.889.722H.722V53.745H49.889Z" transform="translate(0.603 54.666)" fill="#12263f"/>
        <path id="Rectangle_37251" data-name="Rectangle 37251" d="M-.6-.6H51.213V55.069H-.6ZM49.889.722H.722V53.745H49.889Z" transform="translate(0.603 108.731)" fill="#12263f"/>
        <path id="Rectangle_37252" data-name="Rectangle 37252" d="M-.6-.6H51.213V55.069H-.6ZM49.889.722H.722V53.745H49.889Z" transform="translate(0.603 162.795)" fill="#12263f"/>
      </g>
      <g id="Group_108131" data-name="Group 108131" transform="translate(-894.208 -6875.048)">
        <path id="Rectangle_37253" data-name="Rectangle 37253" d="M-.6-.6H51.213V55.069H-.6ZM49.889.722H.722V53.745H49.889Z" transform="translate(0.603 0.603)" fill="#12263f"/>
        <path id="Rectangle_37254" data-name="Rectangle 37254" d="M-.6-.6H51.213V55.069H-.6ZM49.889.722H.722V53.745H49.889Z" transform="translate(0.603 54.666)" fill="#12263f"/>
        <path id="Rectangle_37255" data-name="Rectangle 37255" d="M-.6-.6H51.213V55.069H-.6ZM49.889.722H.722V53.745H49.889Z" transform="translate(0.603 108.731)" fill="#12263f"/>
        <path id="Rectangle_37256" data-name="Rectangle 37256" d="M-.6-.6H51.213V55.069H-.6ZM49.889.722H.722V53.745H49.889Z" transform="translate(0.603 162.795)" fill="#12263f"/>
      </g>
      <g id="Group_108132" data-name="Group 108132" transform="translate(-807.573 -6875.048)">
        <path id="Rectangle_37257" data-name="Rectangle 37257" d="M-.6-.6H51.213V55.069H-.6ZM49.889.722H.722V53.745H49.889Z" transform="translate(0.603 0.603)" fill="#12263f"/>
        <path id="Rectangle_37258" data-name="Rectangle 37258" d="M-.6-.6H51.213V55.069H-.6ZM49.889.722H.722V53.745H49.889Z" transform="translate(0.603 54.666)" fill="#12263f"/>
        <path id="Rectangle_37259" data-name="Rectangle 37259" d="M-.6-.6H51.213V55.069H-.6ZM49.889.722H.722V53.745H49.889Z" transform="translate(0.603 108.731)" fill="#12263f"/>
        <path id="Rectangle_37260" data-name="Rectangle 37260" d="M-.6-.6H51.213V55.069H-.6ZM49.889.722H.722V53.745H49.889Z" transform="translate(0.603 162.795)" fill="#12263f"/>
      </g>
      <g id="Group_108133" data-name="Group 108133" transform="translate(-720.937 -6875.048)">
        <path id="Rectangle_37261" data-name="Rectangle 37261" d="M-.6-.6H51.213V55.069H-.6ZM49.889.722H.722V53.745H49.889Z" transform="translate(0.603 0.603)" fill="#12263f"/>
        <path id="Rectangle_37262" data-name="Rectangle 37262" d="M-.6-.6H51.213V55.069H-.6ZM49.889.722H.722V53.745H49.889Z" transform="translate(0.603 54.666)" fill="#12263f"/>
        <path id="Rectangle_37263" data-name="Rectangle 37263" d="M-.6-.6H51.213V55.069H-.6ZM49.889.722H.722V53.745H49.889Z" transform="translate(0.603 108.731)" fill="#12263f"/>
        <path id="Rectangle_37264" data-name="Rectangle 37264" d="M-.6-.6H51.213V55.069H-.6ZM49.889.722H.722V53.745H49.889Z" transform="translate(0.603 162.795)" fill="#12263f"/>
      </g>
    </g>
  </g>
</svg>
