<svg xmlns="http://www.w3.org/2000/svg" xmlns:xlink="http://www.w3.org/1999/xlink" width="96.501" height="96.5" viewBox="0 0 96.501 96.5">
  <defs>
    <filter id="Trazado_873160" x="0" y="0" width="96.501" height="96.5" filterUnits="userSpaceOnUse">
      <feOffset dy="3" input="SourceAlpha"/>
      <feGaussianBlur stdDeviation="3" result="blur"/>
      <feFlood flood-opacity="0.161"/>
      <feComposite operator="in" in2="blur"/>
      <feComposite in="SourceGraphic"/>
    </filter>
    <clipPath id="clip-path">
      <rect id="Rectángulo_401095" data-name="Rectángulo 401095" width="51" height="50" fill="none"/>
    </clipPath>
  </defs>
  <g id="Grupo_1099731" data-name="Grupo 1099731" transform="translate(-268.673 -339.325)">
    <g id="Grupo_1099024" data-name="Grupo 1099024" transform="translate(277.673 345.325)">
      <g transform="matrix(1, 0, 0, 1, -9, -6)" filter="url(#Trazado_873160)">
        <path id="Trazado_873160-2" data-name="Trazado 873160" d="M313.261,134.345A39.251,39.251,0,1,1,274.011,95.1,39.251,39.251,0,0,1,313.261,134.345Z" transform="translate(-225.76 -89.1)" fill="#fff"/>
      </g>
      <g id="Grupo_1099348" data-name="Grupo 1099348" transform="translate(14 20.096)">
        <g id="Grupo_1099348-2" data-name="Grupo 1099348" clip-path="url(#clip-path)">
          <path id="Trazado_873436" data-name="Trazado 873436" d="M0,4.791V21.036a4.778,4.778,0,0,0,1.405,3.388c3.41,3.415,17.3,17.3,23.214,23.215a6.385,6.385,0,0,0,9.032,0L49.239,32.055a6.395,6.395,0,0,0,0-9.035C43.657,17.444,30.856,4.639,27.622,1.4A4.814,4.814,0,0,0,24.228,0H4.791A4.794,4.794,0,0,0,0,4.791m9.583,1.6A3.194,3.194,0,1,1,6.388,9.583,3.194,3.194,0,0,1,9.583,6.388" transform="translate(0 0)" fill="#fbe737" fill-rule="evenodd"/>
          <path id="Trazado_873437" data-name="Trazado 873437" d="M1.76,1.4A4.781,4.781,0,0,1,5.146,0H24.583a4.814,4.814,0,0,1,3.394,1.4c3.234,3.236,16.035,16.04,21.617,21.618a6.395,6.395,0,0,1,0,9.035L41,40.645l-28.8-28.8a3.195,3.195,0,0,0-4.52-4.517Z" transform="translate(-0.355 0)" fill="#f5cd20" fill-rule="evenodd"/>
          <path id="Trazado_873438" data-name="Trazado 873438" d="M36.331,20.609a5.587,5.587,0,0,0-7.882,7.881l-3.394,3.4a2.583,2.583,0,0,1-.543-2.524,1.6,1.6,0,0,0-3.034-1A5.776,5.776,0,0,0,22.8,34.148l-1.134,1.131a1.6,1.6,0,0,0,2.26,2.258L25.063,36.4a5.587,5.587,0,0,0,7.882-7.881l3.394-3.4a2.564,2.564,0,0,1,.543,2.524,1.6,1.6,0,0,0,3.034,1A5.758,5.758,0,0,0,38.6,22.857l1.134-1.131a1.6,1.6,0,0,0-2.26-2.258Zm-5.662,10.18-3.33,3.332a2.388,2.388,0,0,0,3.33-3.332Zm3.386-7.9a2.388,2.388,0,0,0-3.33,3.332Z" transform="translate(-4.269 -3.828)" fill="#3e3e3e" fill-rule="evenodd"/>
          <path id="Trazado_873439" data-name="Trazado 873439" d="M29.092,27.16l6.5,6.5a5.641,5.641,0,0,0-1.158-5.147l3.394-3.4a2.564,2.564,0,0,1,.543,2.524,1.6,1.6,0,0,0,3.034,1,5.758,5.758,0,0,0-1.318-5.781l1.134-1.131a1.6,1.6,0,0,0-2.26-2.258l-1.142,1.141a5.581,5.581,0,0,0-8.728,6.551m6.452-4.275a2.388,2.388,0,0,0-3.33,3.332Z" transform="translate(-5.759 -3.828)" fill="#2e2e2e" fill-rule="evenodd"/>
        </g>
      </g>
    </g>
  </g>
</svg>
