<svg xmlns="http://www.w3.org/2000/svg" xmlns:xlink="http://www.w3.org/1999/xlink" width="114.25" height="114.251" viewBox="0 0 114.25 114.251">
  <defs>
    <filter id="Trazado_873178" x="0" y="0" width="114.25" height="114.251" filterUnits="userSpaceOnUse">
      <feOffset dy="3" input="SourceAlpha"/>
      <feGaussianBlur stdDeviation="3" result="blur"/>
      <feFlood flood-opacity="0.161"/>
      <feComposite operator="in" in2="blur"/>
      <feComposite in="SourceGraphic"/>
    </filter>
    <clipPath id="clip-path">
      <rect id="Rectángulo_401097" data-name="Rectángulo 401097" width="54" height="54" transform="translate(-0.23 -0.23)" fill="none"/>
    </clipPath>
  </defs>
  <g id="Grupo_1099729" data-name="Grupo 1099729" transform="translate(-3.687 -94.619)">
    <g id="Grupo_1099034" data-name="Grupo 1099034" transform="translate(12.687 100.619)">
      <g transform="matrix(1, 0, 0, 1, -9, -6)" filter="url(#Trazado_873178)">
        <path id="Trazado_873178-2" data-name="Trazado 873178" d="M220.937,159.14a48.125,48.125,0,1,1-48.125-48.125A48.126,48.126,0,0,1,220.937,159.14Z" transform="translate(-115.69 -105.02)" fill="#fff"/>
      </g>
      <g id="Grupo_1099352" data-name="Grupo 1099352" transform="translate(21.217 21.032)">
        <g id="Grupo_1099351" data-name="Grupo 1099351" clip-path="url(#clip-path)">
          <path id="Trazado_873448" data-name="Trazado 873448" d="M4.678,10A1.674,1.674,0,0,0,3,11.678V45.229a6.709,6.709,0,0,0,6.71,6.71h30.2a6.705,6.705,0,0,0,6.71-6.71V11.678A1.674,1.674,0,0,0,44.939,10Z" transform="translate(-0.484 -1.612)" fill="#e0f1f2" fill-rule="evenodd"/>
          <path id="Trazado_873449" data-name="Trazado 873449" d="M29,10V51.939H44.1a6.705,6.705,0,0,0,6.71-6.71V11.678A1.674,1.674,0,0,0,49.131,10Z" transform="translate(-4.675 -1.612)" fill="#c8e4e6" fill-rule="evenodd"/>
          <path id="Trazado_873450" data-name="Trazado 873450" d="M48.649,14.259V6.71A6.705,6.705,0,0,0,41.939,0H6.71A6.705,6.705,0,0,0,0,6.71v7.549a9.221,9.221,0,0,0,16.776,5.292,9.215,9.215,0,0,0,15.1.008,9.224,9.224,0,0,0,16.776-5.3" transform="translate(0 0)" fill="#fb2f2f" fill-rule="evenodd"/>
          <path id="Trazado_873451" data-name="Trazado 873451" d="M47,0h2.516a6.705,6.705,0,0,1,6.71,6.71v7.549A9.232,9.232,0,0,1,47,23.486Z" transform="translate(-7.578)" fill="#eb1414" fill-rule="evenodd"/>
          <path id="Trazado_873452" data-name="Trazado 873452" d="M36.549,19.552A9.2,9.2,0,0,1,29,23.486V0h7.549Z" transform="translate(-4.675)" fill="#eb1414" fill-rule="evenodd"/>
          <path id="Trazado_873453" data-name="Trazado 873453" d="M18.549,19.56h0A9.185,9.185,0,0,1,11,23.486V0h7.549Z" transform="translate(-1.773)" fill="#eb1414" fill-rule="evenodd"/>
          <path id="Trazado_873454" data-name="Trazado 873454" d="M44.582,32A12.582,12.582,0,1,1,32,44.582,12.582,12.582,0,0,1,44.582,32" transform="translate(-5.159 -5.159)" fill="#fbe737" fill-rule="evenodd"/>
          <path id="Trazado_873455" data-name="Trazado 873455" d="M44.259,30A14.259,14.259,0,1,0,58.518,44.259,14.265,14.265,0,0,0,44.259,30m0,3.355a10.9,10.9,0,1,1-10.9,10.9,10.909,10.909,0,0,1,10.9-10.9" transform="translate(-4.837 -4.837)" fill="#f5cd20" fill-rule="evenodd"/>
          <path id="Trazado_873456" data-name="Trazado 873456" d="M49.561,39.492,39.5,49.557a1.675,1.675,0,0,0,2.365,2.372L51.926,41.864a1.675,1.675,0,1,0-2.365-2.372" transform="translate(-6.289 -6.288)" fill="#2e2e2e" fill-rule="evenodd"/>
          <path id="Trazado_873457" data-name="Trazado 873457" d="M41.1,39A2.1,2.1,0,1,1,39,41.1,2.1,2.1,0,0,1,41.1,39" transform="translate(-6.288 -6.288)" fill="#2e2e2e" fill-rule="evenodd"/>
          <path id="Trazado_873458" data-name="Trazado 873458" d="M52.1,50A2.1,2.1,0,1,1,50,52.1,2.1,2.1,0,0,1,52.1,50" transform="translate(-8.061 -8.061)" fill="#2e2e2e" fill-rule="evenodd"/>
        </g>
      </g>
    </g>
  </g>
</svg>
